<?xml version="1.0" encoding="UTF-8" standalone="no"?>
<!DOCTYPE svg PUBLIC "-//W3C//DTD SVG 1.1//EN"
 "http://www.w3.org/Graphics/SVG/1.1/DTD/svg11.dtd">
<!-- Generated by graphviz version 7.1.0 (0)
 -->
<!-- Title: callgraph Pages: 1 -->
<svg width="754pt" height="201pt"
 viewBox="0.00 0.00 754.00 201.00" xmlns="http://www.w3.org/2000/svg" xmlns:xlink="http://www.w3.org/1999/xlink">
<g id="graph0" class="graph" transform="scale(1 1) rotate(0) translate(4 197)">
<title>callgraph</title>
<polygon fill="white" stroke="none" points="-4,4 -4,-197 750,-197 750,4 -4,4"/>
<!-- delayed_parsing -->
<g id="node1" class="node">
<title>delayed_parsing</title>
<path fill="#ffffff" stroke="black" stroke-width="1.5" d="M235,-102.5C235,-102.5 336,-102.5 336,-102.5 339.5,-102.5 343,-106 343,-109.5 343,-109.5 343,-116.5 343,-116.5 343,-120 339.5,-123.5 336,-123.5 336,-123.5 235,-123.5 235,-123.5 231.5,-123.5 228,-120 228,-116.5 228,-116.5 228,-109.5 228,-109.5 228,-106 231.5,-102.5 235,-102.5"/>
<text text-anchor="middle" x="285.5" y="-109.9" font-family="Times,serif" font-size="12.00">delayed_parsing</text>
</g>
<!-- hcache_key -->
<g id="node2" class="node">
<title>hcache_key</title>
<path fill="#ffffff" stroke="black" stroke-width="1.5" d="M400,-171.5C400,-171.5 472,-171.5 472,-171.5 475.5,-171.5 479,-175 479,-178.5 479,-178.5 479,-185.5 479,-185.5 479,-189 475.5,-192.5 472,-192.5 472,-192.5 400,-192.5 400,-192.5 396.5,-192.5 393,-189 393,-185.5 393,-185.5 393,-178.5 393,-178.5 393,-175 396.5,-171.5 400,-171.5"/>
<text text-anchor="middle" x="436" y="-178.9" font-family="Times,serif" font-size="12.00">hcache_key</text>
</g>
<!-- delayed_parsing&#45;&gt;hcache_key -->
<g id="edge1" class="edge">
<title>delayed_parsing&#45;&gt;hcache_key</title>
<path fill="none" stroke="black" d="M304.02,-123.48C322.86,-134.47 353.89,-151.82 382,-164 386.39,-165.9 391.05,-167.74 395.71,-169.46"/>
<polygon fill="black" stroke="black" points="394.88,-171.02 400.18,-171.07 396.07,-167.73 394.88,-171.02"/>
</g>
<!-- hcache_keylen -->
<g id="node3" class="node">
<title>hcache_keylen</title>
<path fill="#ffffff" stroke="black" stroke-width="1.5" d="M391,-135.5C391,-135.5 481,-135.5 481,-135.5 484.5,-135.5 488,-139 488,-142.5 488,-142.5 488,-149.5 488,-149.5 488,-153 484.5,-156.5 481,-156.5 481,-156.5 391,-156.5 391,-156.5 387.5,-156.5 384,-153 384,-149.5 384,-149.5 384,-142.5 384,-142.5 384,-139 387.5,-135.5 391,-135.5"/>
<text text-anchor="middle" x="436" y="-142.9" font-family="Times,serif" font-size="12.00">hcache_keylen</text>
</g>
<!-- delayed_parsing&#45;&gt;hcache_keylen -->
<g id="edge2" class="edge">
<title>delayed_parsing&#45;&gt;hcache_keylen</title>
<path fill="none" stroke="black" d="M333.49,-123.44C348.79,-126.84 365.89,-130.64 381.62,-134.14"/>
<polygon fill="black" stroke="black" points="381.07,-135.81 386.33,-135.18 381.83,-132.39 381.07,-135.81"/>
</g>
<!-- parse_flags -->
<g id="node4" class="node">
<title>parse_flags</title>
<path fill="#ffffff" stroke="black" stroke-width="1.5" d="M667,-69.5C667,-69.5 739,-69.5 739,-69.5 742.5,-69.5 746,-73 746,-76.5 746,-76.5 746,-83.5 746,-83.5 746,-87 742.5,-90.5 739,-90.5 739,-90.5 667,-90.5 667,-90.5 663.5,-90.5 660,-87 660,-83.5 660,-83.5 660,-76.5 660,-76.5 660,-73 663.5,-69.5 667,-69.5"/>
<text text-anchor="middle" x="703" y="-76.9" font-family="Times,serif" font-size="12.00">parse_flags</text>
</g>
<!-- delayed_parsing&#45;&gt;parse_flags -->
<g id="edge3" class="edge">
<title>delayed_parsing&#45;&gt;parse_flags</title>
<path fill="none" stroke="black" d="M342.92,-113.62C410.16,-113.65 525.79,-111.4 624,-98 634.71,-96.54 646.1,-94.31 656.78,-91.9"/>
<polygon fill="black" stroke="black" points="657.02,-93.64 661.5,-90.81 656.24,-90.23 657.02,-93.64"/>
</g>
<!-- parse_message -->
<g id="node5" class="node">
<title>parse_message</title>
<path fill="#ffffff" stroke="black" stroke-width="1.5" d="M389,-69.5C389,-69.5 483,-69.5 483,-69.5 486.5,-69.5 490,-73 490,-76.5 490,-76.5 490,-83.5 490,-83.5 490,-87 486.5,-90.5 483,-90.5 483,-90.5 389,-90.5 389,-90.5 385.5,-90.5 382,-87 382,-83.5 382,-83.5 382,-76.5 382,-76.5 382,-73 385.5,-69.5 389,-69.5"/>
<text text-anchor="middle" x="436" y="-76.9" font-family="Times,serif" font-size="12.00">parse_message</text>
</g>
<!-- delayed_parsing&#45;&gt;parse_message -->
<g id="edge4" class="edge">
<title>delayed_parsing&#45;&gt;parse_message</title>
<path fill="none" stroke="black" d="M333.49,-102.56C348.79,-99.16 365.89,-95.36 381.62,-91.86"/>
<polygon fill="black" stroke="black" points="381.83,-93.61 386.33,-90.82 381.07,-90.19 381.83,-93.61"/>
</g>
<!-- parse_stream -->
<g id="node10" class="node">
<title>parse_stream</title>
<path fill="#ffffff" stroke="black" stroke-width="1.5" d="M533,-69.5C533,-69.5 617,-69.5 617,-69.5 620.5,-69.5 624,-73 624,-76.5 624,-76.5 624,-83.5 624,-83.5 624,-87 620.5,-90.5 617,-90.5 617,-90.5 533,-90.5 533,-90.5 529.5,-90.5 526,-87 526,-83.5 526,-83.5 526,-76.5 526,-76.5 526,-73 529.5,-69.5 533,-69.5"/>
<text text-anchor="middle" x="575" y="-76.9" font-family="Times,serif" font-size="12.00">parse_stream</text>
</g>
<!-- parse_message&#45;&gt;parse_stream -->
<g id="edge8" class="edge">
<title>parse_message&#45;&gt;parse_stream</title>
<path fill="none" stroke="black" d="M489.97,-80C499.73,-80 509.93,-80 519.73,-80"/>
<polygon fill="black" stroke="black" points="519.58,-81.75 524.58,-80 519.58,-78.25 519.58,-81.75"/>
</g>
<!-- mbox_open -->
<g id="node6" class="node">
<title>mbox_open</title>
<path fill="#ffffff" stroke="black" stroke-width="1.5" d="M7,-36.5C7,-36.5 78,-36.5 78,-36.5 81.5,-36.5 85,-40 85,-43.5 85,-43.5 85,-50.5 85,-50.5 85,-54 81.5,-57.5 78,-57.5 78,-57.5 7,-57.5 7,-57.5 3.5,-57.5 0,-54 0,-50.5 0,-50.5 0,-43.5 0,-43.5 0,-40 3.5,-36.5 7,-36.5"/>
<text text-anchor="middle" x="42.5" y="-43.9" font-family="Times,serif" font-size="12.00">mbox_open</text>
</g>
<!-- read_dir -->
<g id="node7" class="node">
<title>read_dir</title>
<path fill="#ffffff" stroke="black" stroke-width="1.5" d="M128,-36.5C128,-36.5 182,-36.5 182,-36.5 185.5,-36.5 189,-40 189,-43.5 189,-43.5 189,-50.5 189,-50.5 189,-54 185.5,-57.5 182,-57.5 182,-57.5 128,-57.5 128,-57.5 124.5,-57.5 121,-54 121,-50.5 121,-50.5 121,-43.5 121,-43.5 121,-40 124.5,-36.5 128,-36.5"/>
<text text-anchor="middle" x="155" y="-43.9" font-family="Times,serif" font-size="12.00">read_dir</text>
</g>
<!-- mbox_open&#45;&gt;read_dir -->
<g id="edge5" class="edge">
<title>mbox_open&#45;&gt;read_dir</title>
<path fill="none" stroke="black" d="M84.96,-47C94.81,-47 105.28,-47 115.01,-47"/>
<polygon fill="black" stroke="black" points="114.77,-48.75 119.77,-47 114.77,-45.25 114.77,-48.75"/>
</g>
<!-- read_dir&#45;&gt;delayed_parsing -->
<g id="edge10" class="edge">
<title>read_dir&#45;&gt;delayed_parsing</title>
<path fill="none" stroke="black" d="M176.36,-57.46C198.64,-68.9 234.39,-87.26 258.64,-99.72"/>
<polygon fill="black" stroke="black" points="257.64,-101.17 262.89,-101.9 259.24,-98.06 257.64,-101.17"/>
</g>
<!-- parse_dir -->
<g id="node8" class="node">
<title>parse_dir</title>
<path fill="#ffffff" stroke="black" stroke-width="1.5" d="M255.5,-36.5C255.5,-36.5 315.5,-36.5 315.5,-36.5 319,-36.5 322.5,-40 322.5,-43.5 322.5,-43.5 322.5,-50.5 322.5,-50.5 322.5,-54 319,-57.5 315.5,-57.5 315.5,-57.5 255.5,-57.5 255.5,-57.5 252,-57.5 248.5,-54 248.5,-50.5 248.5,-50.5 248.5,-43.5 248.5,-43.5 248.5,-40 252,-36.5 255.5,-36.5"/>
<text text-anchor="middle" x="285.5" y="-43.9" font-family="Times,serif" font-size="12.00">parse_dir</text>
</g>
<!-- read_dir&#45;&gt;parse_dir -->
<g id="edge12" class="edge">
<title>read_dir&#45;&gt;parse_dir</title>
<path fill="none" stroke="black" d="M188.76,-47C205.05,-47 224.93,-47 242.34,-47"/>
<polygon fill="black" stroke="black" points="242.12,-48.75 247.12,-47 242.12,-45.25 242.12,-48.75"/>
</g>
<!-- move_to_mailbox -->
<g id="node11" class="node">
<title>move_to_mailbox</title>
<path fill="#ffffff" stroke="black" stroke-width="1.5" d="M232,-0.5C232,-0.5 339,-0.5 339,-0.5 342.5,-0.5 346,-4 346,-7.5 346,-7.5 346,-14.5 346,-14.5 346,-18 342.5,-21.5 339,-21.5 339,-21.5 232,-21.5 232,-21.5 228.5,-21.5 225,-18 225,-14.5 225,-14.5 225,-7.5 225,-7.5 225,-4 228.5,-0.5 232,-0.5"/>
<text text-anchor="middle" x="285.5" y="-7.9" font-family="Times,serif" font-size="12.00">move_to_mailbox</text>
</g>
<!-- read_dir&#45;&gt;move_to_mailbox -->
<g id="edge11" class="edge">
<title>read_dir&#45;&gt;move_to_mailbox</title>
<path fill="none" stroke="black" d="M188.76,-37.82C204.65,-33.37 223.96,-27.96 241.07,-23.17"/>
<polygon fill="black" stroke="black" points="241.46,-24.88 245.8,-21.84 240.51,-21.51 241.46,-24.88"/>
</g>
<!-- parse_dir&#45;&gt;parse_flags -->
<g id="edge6" class="edge">
<title>parse_dir&#45;&gt;parse_flags</title>
<path fill="none" stroke="black" d="M322.16,-46.46C383.94,-45.99 514.75,-47.09 624,-62 634.71,-63.46 646.1,-65.69 656.78,-68.1"/>
<polygon fill="black" stroke="black" points="656.24,-69.77 661.5,-69.19 657.02,-66.36 656.24,-69.77"/>
</g>
<!-- sort_inode -->
<g id="node9" class="node">
<title>sort_inode</title>
<path fill="#ffffff" stroke="black" stroke-width="1.5" d="M403,-3.5C403,-3.5 469,-3.5 469,-3.5 472.5,-3.5 476,-7 476,-10.5 476,-10.5 476,-17.5 476,-17.5 476,-21 472.5,-24.5 469,-24.5 469,-24.5 403,-24.5 403,-24.5 399.5,-24.5 396,-21 396,-17.5 396,-17.5 396,-10.5 396,-10.5 396,-7 399.5,-3.5 403,-3.5"/>
<text text-anchor="middle" x="436" y="-10.9" font-family="Times,serif" font-size="12.00">sort_inode</text>
</g>
<!-- parse_dir&#45;&gt;sort_inode -->
<g id="edge7" class="edge">
<title>parse_dir&#45;&gt;sort_inode</title>
<path fill="none" stroke="black" d="M322.45,-39.01C342.76,-34.5 368.34,-28.81 389.98,-24"/>
<polygon fill="black" stroke="black" points="390.28,-25.73 394.78,-22.94 389.52,-22.31 390.28,-25.73"/>
</g>
<!-- parse_stream&#45;&gt;parse_flags -->
<g id="edge9" class="edge">
<title>parse_stream&#45;&gt;parse_flags</title>
<path fill="none" stroke="black" d="M623.99,-80C633.81,-80 644.14,-80 653.95,-80"/>
<polygon fill="black" stroke="black" points="653.8,-81.75 658.8,-80 653.8,-78.25 653.8,-81.75"/>
</g>
</g>
</svg>
