<?xml version="1.0" encoding="UTF-8" standalone="no"?>
<!DOCTYPE svg PUBLIC "-//W3C//DTD SVG 1.1//EN"
 "http://www.w3.org/Graphics/SVG/1.1/DTD/svg11.dtd">
<!-- Generated by graphviz version 7.1.0 (0)
 -->
<!-- Title: callgraph Pages: 1 -->
<svg width="535pt" height="210pt"
 viewBox="0.00 0.00 535.00 210.00" xmlns="http://www.w3.org/2000/svg" xmlns:xlink="http://www.w3.org/1999/xlink">
<g id="graph0" class="graph" transform="scale(1 1) rotate(0) translate(4 206)">
<title>callgraph</title>
<polygon fill="white" stroke="none" points="-4,4 -4,-206 531,-206 531,4 -4,4"/>
<!-- maildir_files_read -->
<g id="node1" class="node">
<title>maildir_files_read</title>
<path fill="#ffffc0" stroke="black" stroke-width="1.5" d="M147,-108.5C147,-108.5 223,-108.5 223,-108.5 226.5,-108.5 230,-112 230,-115.5 230,-115.5 230,-122.5 230,-122.5 230,-126 226.5,-129.5 223,-129.5 223,-129.5 147,-129.5 147,-129.5 143.5,-129.5 140,-126 140,-122.5 140,-122.5 140,-115.5 140,-115.5 140,-112 143.5,-108.5 147,-108.5"/>
<text text-anchor="start" x="148" y="-116.9" font-family="Times,serif" font-size="12.00">files_read </text>
<text text-anchor="start" x="211" y="-116.9" font-family="Times,serif" font-size="12.00" fill="red">●</text>
</g>
<!-- maildir_parse_flags -->
<g id="node3" class="node">
<title>maildir_parse_flags</title>
<path fill="#ffffc0" stroke="black" stroke-width="1.5" d="M149,-72.5C149,-72.5 221,-72.5 221,-72.5 224.5,-72.5 228,-76 228,-79.5 228,-79.5 228,-86.5 228,-86.5 228,-90 224.5,-93.5 221,-93.5 221,-93.5 149,-93.5 149,-93.5 145.5,-93.5 142,-90 142,-86.5 142,-86.5 142,-79.5 142,-79.5 142,-76 145.5,-72.5 149,-72.5"/>
<text text-anchor="start" x="150" y="-79.9" font-family="Times,serif" font-size="12.00">parse_flags</text>
</g>
<!-- maildir_parse_message -->
<g id="node4" class="node">
<title>maildir_parse_message</title>
<path fill="#ffffc0" stroke="black" stroke-width="1.5" d="M292,-108.5C292,-108.5 386,-108.5 386,-108.5 389.5,-108.5 393,-112 393,-115.5 393,-115.5 393,-122.5 393,-122.5 393,-126 389.5,-129.5 386,-129.5 386,-129.5 292,-129.5 292,-129.5 288.5,-129.5 285,-126 285,-122.5 285,-122.5 285,-115.5 285,-115.5 285,-112 288.5,-108.5 292,-108.5"/>
<text text-anchor="start" x="293" y="-115.9" font-family="Times,serif" font-size="12.00">parse_message</text>
</g>
<!-- maildir_files_read&#45;&gt;maildir_parse_message -->
<g id="edge1" class="edge">
<title>maildir_files_read&#45;&gt;maildir_parse_message</title>
<path fill="none" stroke="black" d="M229.96,-119C245.21,-119 262.57,-119 278.84,-119"/>
<polygon fill="black" stroke="black" points="278.74,-120.75 283.74,-119 278.74,-117.25 278.74,-120.75"/>
</g>
<!-- maildir_files_scan -->
<g id="node2" class="node">
<title>maildir_files_scan</title>
<path fill="#ffffc0" stroke="black" stroke-width="1.5" d="M147,-180.5C147,-180.5 223,-180.5 223,-180.5 226.5,-180.5 230,-184 230,-187.5 230,-187.5 230,-194.5 230,-194.5 230,-198 226.5,-201.5 223,-201.5 223,-201.5 147,-201.5 147,-201.5 143.5,-201.5 140,-198 140,-194.5 140,-194.5 140,-187.5 140,-187.5 140,-184 143.5,-180.5 147,-180.5"/>
<text text-anchor="start" x="148" y="-188.9" font-family="Times,serif" font-size="12.00">files_scan </text>
<text text-anchor="start" x="211" y="-188.9" font-family="Times,serif" font-size="12.00" fill="red">●</text>
</g>
<!-- maildir_hcache_read -->
<g id="node6" class="node">
<title>maildir_hcache_read</title>
<path fill="#c0ffff" stroke="black" stroke-width="1.5" d="M138,-144.5C138,-144.5 232,-144.5 232,-144.5 235.5,-144.5 239,-148 239,-151.5 239,-151.5 239,-158.5 239,-158.5 239,-162 235.5,-165.5 232,-165.5 232,-165.5 138,-165.5 138,-165.5 134.5,-165.5 131,-162 131,-158.5 131,-158.5 131,-151.5 131,-151.5 131,-148 134.5,-144.5 138,-144.5"/>
<text text-anchor="start" x="139" y="-152.9" font-family="Times,serif" font-size="12.00">hcache_read </text>
<text text-anchor="start" x="220" y="-152.9" font-family="Times,serif" font-size="12.00" fill="red">●</text>
</g>
<!-- maildir_hcache_store -->
<g id="node7" class="node">
<title>maildir_hcache_store</title>
<path fill="#c0ffff" stroke="black" stroke-width="1.5" d="M136.5,-36.5C136.5,-36.5 233.5,-36.5 233.5,-36.5 237,-36.5 240.5,-40 240.5,-43.5 240.5,-43.5 240.5,-50.5 240.5,-50.5 240.5,-54 237,-57.5 233.5,-57.5 233.5,-57.5 136.5,-57.5 136.5,-57.5 133,-57.5 129.5,-54 129.5,-50.5 129.5,-50.5 129.5,-43.5 129.5,-43.5 129.5,-40 133,-36.5 136.5,-36.5"/>
<text text-anchor="start" x="137.5" y="-44.9" font-family="Times,serif" font-size="12.00">hcache_store </text>
<text text-anchor="start" x="221.5" y="-44.9" font-family="Times,serif" font-size="12.00" fill="red">●</text>
</g>
<!-- maildir_parse_stream -->
<g id="node5" class="node">
<title>maildir_parse_stream</title>
<path fill="#ffffc0" stroke="black" stroke-width="1.5" d="M436,-108.5C436,-108.5 520,-108.5 520,-108.5 523.5,-108.5 527,-112 527,-115.5 527,-115.5 527,-122.5 527,-122.5 527,-126 523.5,-129.5 520,-129.5 520,-129.5 436,-129.5 436,-129.5 432.5,-129.5 429,-126 429,-122.5 429,-122.5 429,-115.5 429,-115.5 429,-112 432.5,-108.5 436,-108.5"/>
<text text-anchor="start" x="437" y="-115.9" font-family="Times,serif" font-size="12.00">parse_stream</text>
</g>
<!-- maildir_parse_message&#45;&gt;maildir_parse_stream -->
<g id="edge4" class="edge">
<title>maildir_parse_message&#45;&gt;maildir_parse_stream</title>
<path fill="none" stroke="black" d="M392.97,-119C402.73,-119 412.93,-119 422.73,-119"/>
<polygon fill="black" stroke="black" points="422.58,-120.75 427.58,-119 422.58,-117.25 422.58,-120.75"/>
</g>
<!-- maildir_parse_key -->
<g id="node8" class="node">
<title>maildir_parse_key</title>
<path fill="#c0ffff" stroke="black" stroke-width="1.5" d="M307.5,-54.5C307.5,-54.5 370.5,-54.5 370.5,-54.5 374,-54.5 377.5,-58 377.5,-61.5 377.5,-61.5 377.5,-68.5 377.5,-68.5 377.5,-72 374,-75.5 370.5,-75.5 370.5,-75.5 307.5,-75.5 307.5,-75.5 304,-75.5 300.5,-72 300.5,-68.5 300.5,-68.5 300.5,-61.5 300.5,-61.5 300.5,-58 304,-54.5 307.5,-54.5"/>
<text text-anchor="start" x="308.5" y="-61.9" font-family="Times,serif" font-size="12.00">parse_key</text>
</g>
<!-- maildir_hcache_read&#45;&gt;maildir_parse_key -->
<g id="edge2" class="edge">
<title>maildir_hcache_read&#45;&gt;maildir_parse_key</title>
<path fill="none" stroke="black" d="M232.88,-144.52C238.49,-142.43 244,-139.94 249,-137 268.5,-125.53 267.56,-115.42 285,-101 294.69,-92.98 306.16,-85.03 315.95,-78.64"/>
<polygon fill="black" stroke="black" points="316.66,-80.26 319.92,-76.08 314.76,-77.32 316.66,-80.26"/>
</g>
<!-- maildir_hcache_store&#45;&gt;maildir_parse_key -->
<g id="edge3" class="edge">
<title>maildir_hcache_store&#45;&gt;maildir_parse_key</title>
<path fill="none" stroke="black" d="M240.45,-53.45C258.2,-55.55 277.66,-57.85 294.5,-59.85"/>
<polygon fill="black" stroke="black" points="293.91,-61.54 299.08,-60.39 294.32,-58.06 293.91,-61.54"/>
</g>
<!-- move_to_mailbox2 -->
<g id="node10" class="node">
<title>move_to_mailbox2</title>
<path fill="#ffffff" stroke="black" stroke-width="1.5" d="M128,-0.5C128,-0.5 242,-0.5 242,-0.5 245.5,-0.5 249,-4 249,-7.5 249,-7.5 249,-14.5 249,-14.5 249,-18 245.5,-21.5 242,-21.5 242,-21.5 128,-21.5 128,-21.5 124.5,-21.5 121,-18 121,-14.5 121,-14.5 121,-7.5 121,-7.5 121,-4 124.5,-0.5 128,-0.5"/>
<text text-anchor="middle" x="185" y="-7.9" font-family="Times,serif" font-size="12.00">move_to_mailbox2</text>
</g>
<!-- mbox_open -->
<g id="node9" class="node">
<title>mbox_open</title>
<path fill="#ffffff" stroke="black" stroke-width="1.5" d="M7,-90.5C7,-90.5 78,-90.5 78,-90.5 81.5,-90.5 85,-94 85,-97.5 85,-97.5 85,-104.5 85,-104.5 85,-108 81.5,-111.5 78,-111.5 78,-111.5 7,-111.5 7,-111.5 3.5,-111.5 0,-108 0,-104.5 0,-104.5 0,-97.5 0,-97.5 0,-94 3.5,-90.5 7,-90.5"/>
<text text-anchor="middle" x="42.5" y="-97.9" font-family="Times,serif" font-size="12.00">mbox_open</text>
</g>
<!-- mbox_open&#45;&gt;maildir_files_read -->
<g id="edge5" class="edge">
<title>mbox_open&#45;&gt;maildir_files_read</title>
<path fill="none" stroke="black" d="M84.89,-106.3C100.33,-108.28 118.01,-110.55 134.13,-112.61"/>
<polygon fill="black" stroke="black" points="133.78,-114.33 138.96,-113.23 134.22,-110.86 133.78,-114.33"/>
</g>
<!-- mbox_open&#45;&gt;maildir_files_scan -->
<g id="edge6" class="edge">
<title>mbox_open&#45;&gt;maildir_files_scan</title>
<path fill="none" stroke="black" d="M51.89,-111.45C65,-127.12 91.89,-156.58 121,-173 125.18,-175.36 129.69,-177.43 134.32,-179.24"/>
<polygon fill="black" stroke="black" points="133.5,-180.8 138.79,-180.88 134.7,-177.52 133.5,-180.8"/>
</g>
<!-- mbox_open&#45;&gt;maildir_parse_flags -->
<g id="edge9" class="edge">
<title>mbox_open&#45;&gt;maildir_parse_flags</title>
<path fill="none" stroke="black" d="M84.89,-95.7C101.04,-93.63 119.65,-91.24 136.36,-89.1"/>
<polygon fill="black" stroke="black" points="136.18,-90.89 140.91,-88.52 135.73,-87.42 136.18,-90.89"/>
</g>
<!-- mbox_open&#45;&gt;maildir_hcache_read -->
<g id="edge7" class="edge">
<title>mbox_open&#45;&gt;maildir_hcache_read</title>
<path fill="none" stroke="black" d="M63.53,-111.36C78.96,-119.08 100.98,-129.54 121,-137 126.32,-138.98 131.97,-140.88 137.6,-142.64"/>
<polygon fill="black" stroke="black" points="136.96,-144.28 142.25,-144.06 137.98,-140.93 136.96,-144.28"/>
</g>
<!-- mbox_open&#45;&gt;maildir_hcache_store -->
<g id="edge8" class="edge">
<title>mbox_open&#45;&gt;maildir_hcache_store</title>
<path fill="none" stroke="black" d="M63.53,-90.64C78.96,-82.92 100.98,-72.46 121,-65 126.32,-63.02 131.97,-61.12 137.6,-59.36"/>
<polygon fill="black" stroke="black" points="137.98,-61.07 142.25,-57.94 136.96,-57.72 137.98,-61.07"/>
</g>
<!-- mbox_open&#45;&gt;move_to_mailbox2 -->
<g id="edge10" class="edge">
<title>mbox_open&#45;&gt;move_to_mailbox2</title>
<path fill="none" stroke="black" d="M51.89,-90.55C65,-74.88 91.89,-45.42 121,-29 124.45,-27.06 128.12,-25.31 131.89,-23.74"/>
<polygon fill="black" stroke="black" points="132.45,-25.4 136.48,-21.97 131.18,-22.14 132.45,-25.4"/>
</g>
</g>
</svg>
