<?xml version="1.0" encoding="UTF-8" standalone="no"?>
<!DOCTYPE svg PUBLIC "-//W3C//DTD SVG 1.1//EN"
 "http://www.w3.org/Graphics/SVG/1.1/DTD/svg11.dtd">
<!-- Generated by graphviz version 8.1.0 (20230707.0739)
 -->
<!-- Title: callgraph Pages: 1 -->
<svg width="880pt" height="267pt"
 viewBox="0.00 0.00 879.75 267.20" xmlns="http://www.w3.org/2000/svg" xmlns:xlink="http://www.w3.org/1999/xlink">
<g id="graph0" class="graph" transform="scale(1 1) rotate(0) translate(4 263.2)">
<title>callgraph</title>
<polygon fill="white" stroke="none" points="-4,4 -4,-263.2 875.75,-263.2 875.75,4 -4,4"/>
<g id="clust1" class="cluster">
<title>cluster_render</title>
<polygon fill="none" stroke="#0000e0" stroke-dasharray="5,2" points="8,-22.2 8,-251.2 863.75,-251.2 863.75,-22.2 8,-22.2"/>
<text text-anchor="middle" x="435.88" y="-233.9" font-family="Times,serif" font-size="14.00">Render Functions</text>
</g>
<!-- expando_render -->
<g id="node1" class="node">
<title>expando_render</title>
<path fill="#e0e0ff" stroke="black" stroke-width="1.5" d="M23.42,-94.08C23.42,-94.08 136.33,-94.08 136.33,-94.08 140.04,-94.08 143.75,-97.78 143.75,-101.49 143.75,-101.49 143.75,-108.91 143.75,-108.91 143.75,-112.62 140.04,-116.33 136.33,-116.33 136.33,-116.33 23.42,-116.33 23.42,-116.33 19.71,-116.33 16,-112.62 16,-108.91 16,-108.91 16,-101.49 16,-101.49 16,-97.78 19.71,-94.08 23.42,-94.08"/>
<text text-anchor="start" x="24" y="-101.93" font-family="Times,serif" font-size="12.00">expando_render </text>
<text text-anchor="start" x="125.25" y="-101.93" font-family="Times,serif" font-size="12.00" fill="red">●</text>
</g>
<!-- format_tree -->
<g id="node3" class="node">
<title>format_tree</title>
<path fill="#e0e0ff" stroke="black" stroke-width="1.5" d="M187.17,-94.08C187.17,-94.08 259.58,-94.08 259.58,-94.08 263.29,-94.08 267,-97.78 267,-101.49 267,-101.49 267,-108.91 267,-108.91 267,-112.62 263.29,-116.33 259.58,-116.33 259.58,-116.33 187.17,-116.33 187.17,-116.33 183.46,-116.33 179.75,-112.62 179.75,-108.91 179.75,-108.91 179.75,-101.49 179.75,-101.49 179.75,-97.78 183.46,-94.08 187.17,-94.08"/>
<text text-anchor="middle" x="223.38" y="-100.93" font-family="Times,serif" font-size="12.00">format_tree</text>
</g>
<!-- expando_render&#45;&gt;format_tree -->
<g id="edge4" class="edge">
<title>expando_render&#45;&gt;format_tree</title>
<path fill="none" stroke="black" d="M143.35,-105.2C153.75,-105.2 164.39,-105.2 174.35,-105.2"/>
<polygon fill="black" stroke="black" points="174.14,-106.95 179.14,-105.2 174.14,-103.45 174.14,-106.95"/>
</g>
<!-- conditional_format_callback -->
<g id="node2" class="node">
<title>conditional_format_callback</title>
<path fill="#e0e0ff" stroke="black" stroke-width="1.5" d="M310.42,-57.08C310.42,-57.08 483.33,-57.08 483.33,-57.08 487.04,-57.08 490.75,-60.78 490.75,-64.49 490.75,-64.49 490.75,-71.91 490.75,-71.91 490.75,-75.62 487.04,-79.33 483.33,-79.33 483.33,-79.33 310.42,-79.33 310.42,-79.33 306.71,-79.33 303,-75.62 303,-71.91 303,-71.91 303,-64.49 303,-64.49 303,-60.78 306.71,-57.08 310.42,-57.08"/>
<text text-anchor="middle" x="396.88" y="-63.93" font-family="Times,serif" font-size="12.00">conditional_format_callback</text>
</g>
<!-- conditional_format_callback&#45;&gt;format_tree -->
<g id="edge1" class="edge">
<title>conditional_format_callback&#45;&gt;format_tree</title>
<path fill="none" stroke="black" d="M367.76,-79.28C349.31,-83.74 324.67,-88.49 303,-93.2 293.14,-95.35 282.61,-97.79 272.57,-100.03"/>
<polygon fill="black" stroke="black" points="272.23,-98.54 267.73,-101.33 272.99,-101.95 272.23,-98.54"/>
</g>
<!-- is_first_char -->
<g id="node4" class="node">
<title>is_first_char</title>
<path fill="#e0e0ff" stroke="black" stroke-width="1.5" d="M560.04,-47.08C560.04,-47.08 635.46,-47.08 635.46,-47.08 639.17,-47.08 642.88,-50.78 642.88,-54.49 642.88,-54.49 642.88,-61.91 642.88,-61.91 642.88,-65.62 639.17,-69.33 635.46,-69.33 635.46,-69.33 560.04,-69.33 560.04,-69.33 556.33,-69.33 552.62,-65.62 552.62,-61.91 552.62,-61.91 552.62,-54.49 552.62,-54.49 552.62,-50.78 556.33,-47.08 560.04,-47.08"/>
<text text-anchor="middle" x="597.75" y="-53.93" font-family="Times,serif" font-size="12.00">is_first_char</text>
</g>
<!-- conditional_format_callback&#45;&gt;is_first_char -->
<g id="edge2" class="edge">
<title>conditional_format_callback&#45;&gt;is_first_char</title>
<path fill="none" stroke="black" d="M490.62,-63.54C510.09,-62.56 529.9,-61.56 547.05,-60.7"/>
<polygon fill="black" stroke="black" points="546.86,-62.41 551.76,-60.41 546.68,-58.92 546.86,-62.41"/>
</g>
<!-- memcpy_safe -->
<g id="node5" class="node">
<title>memcpy_safe</title>
<path fill="#e0e0ff" stroke="black" stroke-width="1.5" d="M556.67,-84.08C556.67,-84.08 638.83,-84.08 638.83,-84.08 642.54,-84.08 646.25,-87.78 646.25,-91.49 646.25,-91.49 646.25,-98.91 646.25,-98.91 646.25,-102.62 642.54,-106.33 638.83,-106.33 638.83,-106.33 556.67,-106.33 556.67,-106.33 552.96,-106.33 549.25,-102.62 549.25,-98.91 549.25,-98.91 549.25,-91.49 549.25,-91.49 549.25,-87.78 552.96,-84.08 556.67,-84.08"/>
<text text-anchor="middle" x="597.75" y="-90.93" font-family="Times,serif" font-size="12.00">memcpy_safe</text>
</g>
<!-- conditional_format_callback&#45;&gt;memcpy_safe -->
<g id="edge3" class="edge">
<title>conditional_format_callback&#45;&gt;memcpy_safe</title>
<path fill="none" stroke="black" d="M479.63,-79.3C501.27,-82.24 524.08,-85.33 543.75,-88.01"/>
<polygon fill="black" stroke="black" points="543.29,-89.85 548.48,-88.78 543.76,-86.38 543.29,-89.85"/>
</g>
<!-- format_tree&#45;&gt;conditional_format_callback -->
<g id="edge5" class="edge">
<title>format_tree&#45;&gt;conditional_format_callback</title>
<path fill="none" stroke="black" d="M245.34,-94.08C259.55,-89.42 278.96,-84.56 296.99,-80.53"/>
<polygon fill="black" stroke="black" points="297.03,-82.09 301.54,-79.3 296.28,-78.67 297.03,-82.09"/>
</g>
<!-- mutt_strwidth_nonnull -->
<g id="node6" class="node">
<title>mutt_strwidth_nonnull</title>
<path fill="#e0e0ff" stroke="black" stroke-width="1.5" d="M712.17,-139.08C712.17,-139.08 848.33,-139.08 848.33,-139.08 852.04,-139.08 855.75,-142.78 855.75,-146.49 855.75,-146.49 855.75,-153.91 855.75,-153.91 855.75,-157.62 852.04,-161.33 848.33,-161.33 848.33,-161.33 712.17,-161.33 712.17,-161.33 708.46,-161.33 704.75,-157.62 704.75,-153.91 704.75,-153.91 704.75,-146.49 704.75,-146.49 704.75,-142.78 708.46,-139.08 712.17,-139.08"/>
<text text-anchor="middle" x="780.25" y="-145.93" font-family="Times,serif" font-size="12.00">mutt_strwidth_nonnull</text>
</g>
<!-- format_tree&#45;&gt;mutt_strwidth_nonnull -->
<g id="edge6" class="edge">
<title>format_tree&#45;&gt;mutt_strwidth_nonnull</title>
<path fill="none" stroke="black" d="M235.41,-94.1C249.62,-80.64 275.75,-58.59 303,-49.2 456.75,3.77 518.58,23.2 668.75,-39.2 715.6,-58.67 752.85,-108.71 769.61,-134.43"/>
<polygon fill="black" stroke="black" points="768.52,-134.96 772.69,-138.23 771.46,-133.08 768.52,-134.96"/>
</g>
<!-- pad_format_callback -->
<g id="node7" class="node">
<title>pad_format_callback</title>
<path fill="#e0e0ff" stroke="black" stroke-width="1.5" d="M332.92,-153.08C332.92,-153.08 460.83,-153.08 460.83,-153.08 464.54,-153.08 468.25,-156.78 468.25,-160.49 468.25,-160.49 468.25,-167.91 468.25,-167.91 468.25,-171.62 464.54,-175.33 460.83,-175.33 460.83,-175.33 332.92,-175.33 332.92,-175.33 329.21,-175.33 325.5,-171.62 325.5,-167.91 325.5,-167.91 325.5,-160.49 325.5,-160.49 325.5,-156.78 329.21,-153.08 332.92,-153.08"/>
<text text-anchor="middle" x="396.88" y="-159.93" font-family="Times,serif" font-size="12.00">pad_format_callback</text>
</g>
<!-- format_tree&#45;&gt;pad_format_callback -->
<g id="edge7" class="edge">
<title>format_tree&#45;&gt;pad_format_callback</title>
<path fill="none" stroke="black" d="M250.74,-116.23C265.91,-122.41 285.4,-130.09 303,-136.2 318.59,-141.61 335.84,-146.98 351.21,-151.55"/>
<polygon fill="black" stroke="black" points="350.49,-153.46 355.78,-153.2 351.48,-150.1 350.49,-153.46"/>
</g>
<!-- text_format_callback -->
<g id="node8" class="node">
<title>text_format_callback</title>
<path fill="#e0e0ff" stroke="black" stroke-width="1.5" d="M332.92,-94.08C332.92,-94.08 460.83,-94.08 460.83,-94.08 464.54,-94.08 468.25,-97.78 468.25,-101.49 468.25,-101.49 468.25,-108.91 468.25,-108.91 468.25,-112.62 464.54,-116.33 460.83,-116.33 460.83,-116.33 332.92,-116.33 332.92,-116.33 329.21,-116.33 325.5,-112.62 325.5,-108.91 325.5,-108.91 325.5,-101.49 325.5,-101.49 325.5,-97.78 329.21,-94.08 332.92,-94.08"/>
<text text-anchor="middle" x="396.88" y="-100.93" font-family="Times,serif" font-size="12.00">text_format_callback</text>
</g>
<!-- format_tree&#45;&gt;text_format_callback -->
<g id="edge8" class="edge">
<title>format_tree&#45;&gt;text_format_callback</title>
<path fill="none" stroke="black" d="M266.77,-105.2C282.86,-105.2 301.71,-105.2 319.97,-105.2"/>
<polygon fill="black" stroke="black" points="319.61,-106.95 324.61,-105.2 319.61,-103.45 319.61,-106.95"/>
</g>
<!-- pad_format_fill_eol -->
<g id="node9" class="node">
<title>pad_format_fill_eol</title>
<path fill="#e0e0ff" stroke="black" stroke-width="1.5" d="M539.42,-158.08C539.42,-158.08 656.08,-158.08 656.08,-158.08 659.79,-158.08 663.5,-161.78 663.5,-165.49 663.5,-165.49 663.5,-172.91 663.5,-172.91 663.5,-176.62 659.79,-180.33 656.08,-180.33 656.08,-180.33 539.42,-180.33 539.42,-180.33 535.71,-180.33 532,-176.62 532,-172.91 532,-172.91 532,-165.49 532,-165.49 532,-161.78 535.71,-158.08 539.42,-158.08"/>
<text text-anchor="middle" x="597.75" y="-164.93" font-family="Times,serif" font-size="12.00">pad_format_fill_eol</text>
</g>
<!-- pad_format_callback&#45;&gt;pad_format_fill_eol -->
<g id="edge9" class="edge">
<title>pad_format_callback&#45;&gt;pad_format_fill_eol</title>
<path fill="none" stroke="black" d="M467.99,-165.96C486.94,-166.44 507.46,-166.96 526.42,-167.43"/>
<polygon fill="black" stroke="black" points="526.21,-169.2 531.25,-167.58 526.3,-165.7 526.21,-169.2"/>
</g>
<!-- pad_format_hard_fill -->
<g id="node10" class="node">
<title>pad_format_hard_fill</title>
<path fill="#e0e0ff" stroke="black" stroke-width="1.5" d="M534.17,-121.08C534.17,-121.08 661.33,-121.08 661.33,-121.08 665.04,-121.08 668.75,-124.78 668.75,-128.49 668.75,-128.49 668.75,-135.91 668.75,-135.91 668.75,-139.62 665.04,-143.33 661.33,-143.33 661.33,-143.33 534.17,-143.33 534.17,-143.33 530.46,-143.33 526.75,-139.62 526.75,-135.91 526.75,-135.91 526.75,-128.49 526.75,-128.49 526.75,-124.78 530.46,-121.08 534.17,-121.08"/>
<text text-anchor="middle" x="597.75" y="-127.93" font-family="Times,serif" font-size="12.00">pad_format_hard_fill</text>
</g>
<!-- pad_format_callback&#45;&gt;pad_format_hard_fill -->
<g id="edge10" class="edge">
<title>pad_format_callback&#45;&gt;pad_format_hard_fill</title>
<path fill="none" stroke="black" d="M466.87,-153.1C484.77,-150.22 504.12,-147.11 522.28,-144.18"/>
<polygon fill="black" stroke="black" points="522.21,-145.81 526.87,-143.28 521.66,-142.35 522.21,-145.81"/>
</g>
<!-- pad_format_soft_fill -->
<g id="node11" class="node">
<title>pad_format_soft_fill</title>
<path fill="#e0e0ff" stroke="black" stroke-width="1.5" d="M537.17,-195.08C537.17,-195.08 658.33,-195.08 658.33,-195.08 662.04,-195.08 665.75,-198.78 665.75,-202.49 665.75,-202.49 665.75,-209.91 665.75,-209.91 665.75,-213.62 662.04,-217.33 658.33,-217.33 658.33,-217.33 537.17,-217.33 537.17,-217.33 533.46,-217.33 529.75,-213.62 529.75,-209.91 529.75,-209.91 529.75,-202.49 529.75,-202.49 529.75,-198.78 533.46,-195.08 537.17,-195.08"/>
<text text-anchor="middle" x="597.75" y="-201.93" font-family="Times,serif" font-size="12.00">pad_format_soft_fill</text>
</g>
<!-- pad_format_callback&#45;&gt;pad_format_soft_fill -->
<g id="edge11" class="edge">
<title>pad_format_callback&#45;&gt;pad_format_soft_fill</title>
<path fill="none" stroke="black" d="M450.39,-175.29C477.46,-181.01 510.56,-188 538.43,-193.88"/>
<polygon fill="black" stroke="black" points="538.03,-195.8 543.29,-195.12 538.76,-192.38 538.03,-195.8"/>
</g>
<!-- text_format_callback&#45;&gt;memcpy_safe -->
<g id="edge18" class="edge">
<title>text_format_callback&#45;&gt;memcpy_safe</title>
<path fill="none" stroke="black" d="M467.99,-101.68C492.84,-100.43 520.36,-99.04 543.57,-97.88"/>
<polygon fill="black" stroke="black" points="543.46,-99.58 548.37,-97.58 543.29,-96.09 543.46,-99.58"/>
</g>
<!-- pad_format_fill_eol&#45;&gt;mutt_strwidth_nonnull -->
<g id="edge12" class="edge">
<title>pad_format_fill_eol&#45;&gt;mutt_strwidth_nonnull</title>
<path fill="none" stroke="black" d="M663.4,-162.4C674.97,-161.18 687.14,-159.9 699.07,-158.64"/>
<polygon fill="black" stroke="black" points="699.12,-160.29 703.91,-158.03 698.76,-156.81 699.12,-160.29"/>
</g>
<!-- pad_format_hard_fill&#45;&gt;format_tree -->
<g id="edge13" class="edge">
<title>pad_format_hard_fill&#45;&gt;format_tree</title>
<path fill="none" stroke="black" d="M526.98,-134.4C467.26,-135.31 379.11,-134.32 303,-124.2 291.86,-122.72 280,-120.31 268.95,-117.69"/>
<polygon fill="black" stroke="black" points="269.53,-115.79 264.26,-116.31 268.71,-119.19 269.53,-115.79"/>
</g>
<!-- pad_format_hard_fill&#45;&gt;mutt_strwidth_nonnull -->
<g id="edge14" class="edge">
<title>pad_format_hard_fill&#45;&gt;mutt_strwidth_nonnull</title>
<path fill="none" stroke="black" d="M668.54,-139.16C678.49,-140.15 688.79,-141.18 698.92,-142.19"/>
<polygon fill="black" stroke="black" points="698.72,-144.03 703.86,-142.78 699.06,-140.55 698.72,-144.03"/>
</g>
<!-- pad_format_soft_fill&#45;&gt;format_tree -->
<g id="edge16" class="edge">
<title>pad_format_soft_fill&#45;&gt;format_tree</title>
<path fill="none" stroke="black" d="M529.91,-213.67C468.16,-217.71 375.31,-216.34 303,-183.2 273.03,-169.46 247.93,-139.14 234.63,-120.61"/>
<polygon fill="black" stroke="black" points="235.81,-120.25 231.5,-117.17 232.95,-122.26 235.81,-120.25"/>
</g>
<!-- pad_format_soft_fill&#45;&gt;mutt_strwidth_nonnull -->
<g id="edge17" class="edge">
<title>pad_format_soft_fill&#45;&gt;mutt_strwidth_nonnull</title>
<path fill="none" stroke="black" d="M644.08,-195.11C652.32,-192.93 660.82,-190.58 668.75,-188.2 694.08,-180.6 722.26,-170.89 743.83,-163.19"/>
<polygon fill="black" stroke="black" points="744.33,-164.51 748.44,-161.17 743.15,-161.21 744.33,-164.51"/>
</g>
<!-- count_spec -->
<g id="node12" class="node">
<title>count_spec</title>
<path fill="#e0e0ff" stroke="black" stroke-width="1.5" d="M746.29,-195.08C746.29,-195.08 814.21,-195.08 814.21,-195.08 817.92,-195.08 821.62,-198.78 821.62,-202.49 821.62,-202.49 821.62,-209.91 821.62,-209.91 821.62,-213.62 817.92,-217.33 814.21,-217.33 814.21,-217.33 746.29,-217.33 746.29,-217.33 742.58,-217.33 738.88,-213.62 738.88,-209.91 738.88,-209.91 738.88,-202.49 738.88,-202.49 738.88,-198.78 742.58,-195.08 746.29,-195.08"/>
<text text-anchor="middle" x="780.25" y="-201.93" font-family="Times,serif" font-size="12.00">count_spec</text>
</g>
<!-- pad_format_soft_fill&#45;&gt;count_spec -->
<g id="edge15" class="edge">
<title>pad_format_soft_fill&#45;&gt;count_spec</title>
<path fill="none" stroke="black" d="M665.71,-206.2C688.17,-206.2 712.7,-206.2 733.19,-206.2"/>
<polygon fill="black" stroke="black" points="733.14,-207.95 738.14,-206.2 733.14,-204.45 733.14,-207.95"/>
</g>
</g>
</svg>
