<?xml version="1.0" encoding="UTF-8" standalone="no"?>
<!DOCTYPE svg PUBLIC "-//W3C//DTD SVG 1.1//EN"
 "http://www.w3.org/Graphics/SVG/1.1/DTD/svg11.dtd">
<!-- Generated by graphviz version 8.1.0 (20230707.0739)
 -->
<!-- Title: callgraph Pages: 1 -->
<svg width="1385pt" height="494pt"
 viewBox="0.00 0.00 1385.25 494.25" xmlns="http://www.w3.org/2000/svg" xmlns:xlink="http://www.w3.org/1999/xlink">
<g id="graph0" class="graph" transform="scale(1 1) rotate(0) translate(4 490.25)">
<title>callgraph</title>
<polygon fill="white" stroke="none" points="-4,4 -4,-490.25 1381.25,-490.25 1381.25,4 -4,4"/>
<!-- expando_parse -->
<g id="node1" class="node">
<title>expando_parse</title>
<path fill="#ffffff" stroke="black" stroke-width="1.5" d="M7.42,-101.5C7.42,-101.5 113.58,-101.5 113.58,-101.5 117.29,-101.5 121,-105.21 121,-108.92 121,-108.92 121,-116.33 121,-116.33 121,-120.04 117.29,-123.75 113.58,-123.75 113.58,-123.75 7.42,-123.75 7.42,-123.75 3.71,-123.75 0,-120.04 0,-116.33 0,-116.33 0,-108.92 0,-108.92 0,-105.21 3.71,-101.5 7.42,-101.5"/>
<text text-anchor="start" x="8" y="-109.35" font-family="Times,serif" font-size="12.00">expando_parse </text>
<text text-anchor="start" x="102.5" y="-109.35" font-family="Times,serif" font-size="12.00" fill="red">●</text>
</g>
<!-- expando_free -->
<g id="node3" class="node">
<title>expando_free</title>
<path fill="#ffe0ff" stroke="black" stroke-width="1.5" d="M177.17,-101.5C177.17,-101.5 273.58,-101.5 273.58,-101.5 277.29,-101.5 281,-105.21 281,-108.92 281,-108.92 281,-116.33 281,-116.33 281,-120.04 277.29,-123.75 273.58,-123.75 273.58,-123.75 177.17,-123.75 177.17,-123.75 173.46,-123.75 169.75,-120.04 169.75,-116.33 169.75,-116.33 169.75,-108.92 169.75,-108.92 169.75,-105.21 173.46,-101.5 177.17,-101.5"/>
<text text-anchor="start" x="177.75" y="-109.35" font-family="Times,serif" font-size="12.00">expando_free </text>
<text text-anchor="start" x="262.5" y="-109.35" font-family="Times,serif" font-size="12.00" fill="red">●</text>
</g>
<!-- expando_parse&#45;&gt;expando_free -->
<g id="edge2" class="edge">
<title>expando_parse&#45;&gt;expando_free</title>
<path fill="none" stroke="black" d="M120.76,-112.62C134.77,-112.62 149.72,-112.62 163.79,-112.62"/>
<polygon fill="black" stroke="black" points="163.76,-114.38 168.76,-112.62 163.76,-110.88 163.76,-114.38"/>
</g>
<!-- expando_new -->
<g id="node9" class="node">
<title>expando_new</title>
<path fill="#ffffe0" stroke="black" stroke-width="1.5" d="M183.92,-64.5C183.92,-64.5 266.83,-64.5 266.83,-64.5 270.54,-64.5 274.25,-68.21 274.25,-71.92 274.25,-71.92 274.25,-79.33 274.25,-79.33 274.25,-83.04 270.54,-86.75 266.83,-86.75 266.83,-86.75 183.92,-86.75 183.92,-86.75 180.21,-86.75 176.5,-83.04 176.5,-79.33 176.5,-79.33 176.5,-71.92 176.5,-71.92 176.5,-68.21 180.21,-64.5 183.92,-64.5"/>
<text text-anchor="middle" x="225.38" y="-71.35" font-family="Times,serif" font-size="12.00">expando_new</text>
</g>
<!-- expando_parse&#45;&gt;expando_new -->
<g id="edge3" class="edge">
<title>expando_parse&#45;&gt;expando_new</title>
<path fill="none" stroke="black" d="M110.37,-101.52C129.47,-97.18 151.44,-92.19 170.96,-87.76"/>
<polygon fill="black" stroke="black" points="171.17,-89.28 175.66,-86.46 170.4,-85.86 171.17,-89.28"/>
</g>
<!-- expando_tree_parse -->
<g id="node15" class="node">
<title>expando_tree_parse</title>
<path fill="#ffffff" stroke="black" stroke-width="1.5" d="M164.42,-300.5C164.42,-300.5 286.33,-300.5 286.33,-300.5 290.04,-300.5 293.75,-304.21 293.75,-307.92 293.75,-307.92 293.75,-315.33 293.75,-315.33 293.75,-319.04 290.04,-322.75 286.33,-322.75 286.33,-322.75 164.42,-322.75 164.42,-322.75 160.71,-322.75 157,-319.04 157,-315.33 157,-315.33 157,-307.92 157,-307.92 157,-304.21 160.71,-300.5 164.42,-300.5"/>
<text text-anchor="middle" x="225.38" y="-307.35" font-family="Times,serif" font-size="12.00">expando_tree_parse</text>
</g>
<!-- expando_parse&#45;&gt;expando_tree_parse -->
<g id="edge4" class="edge">
<title>expando_parse&#45;&gt;expando_tree_parse</title>
<path fill="none" stroke="black" d="M70.49,-123.61C97.92,-157.12 180.58,-258.11 212.04,-296.55"/>
<polygon fill="black" stroke="black" points="211.09,-297.16 215.61,-299.92 213.8,-294.94 211.09,-297.16"/>
</g>
<!-- expando_parse_enclosed_text -->
<g id="node2" class="node">
<title>expando_parse_enclosed_text</title>
<path fill="#ffffff" stroke="black" stroke-width="1.5" d="M337.17,-54.5C337.17,-54.5 530.33,-54.5 530.33,-54.5 534.04,-54.5 537.75,-58.21 537.75,-61.92 537.75,-61.92 537.75,-69.33 537.75,-69.33 537.75,-73.04 534.04,-76.75 530.33,-76.75 530.33,-76.75 337.17,-76.75 337.17,-76.75 333.46,-76.75 329.75,-73.04 329.75,-69.33 329.75,-69.33 329.75,-61.92 329.75,-61.92 329.75,-58.21 333.46,-54.5 337.17,-54.5"/>
<text text-anchor="start" x="337.75" y="-62.35" font-family="Times,serif" font-size="12.00">expando_parse_enclosed_text </text>
<text text-anchor="start" x="519.25" y="-62.35" font-family="Times,serif" font-size="12.00" fill="red">●</text>
</g>
<!-- new_text_node -->
<g id="node14" class="node">
<title>new_text_node</title>
<path fill="#ffffe0" stroke="black" stroke-width="1.5" d="M635.17,-62.5C635.17,-62.5 724.83,-62.5 724.83,-62.5 728.54,-62.5 732.25,-66.21 732.25,-69.92 732.25,-69.92 732.25,-77.33 732.25,-77.33 732.25,-81.04 728.54,-84.75 724.83,-84.75 724.83,-84.75 635.17,-84.75 635.17,-84.75 631.46,-84.75 627.75,-81.04 627.75,-77.33 627.75,-77.33 627.75,-69.92 627.75,-69.92 627.75,-66.21 631.46,-62.5 635.17,-62.5"/>
<text text-anchor="middle" x="680" y="-69.35" font-family="Times,serif" font-size="12.00">new_text_node</text>
</g>
<!-- expando_parse_enclosed_text&#45;&gt;new_text_node -->
<g id="edge6" class="edge">
<title>expando_parse_enclosed_text&#45;&gt;new_text_node</title>
<path fill="none" stroke="black" d="M537.63,-68.99C566.47,-69.94 596.79,-70.93 621.92,-71.76"/>
<polygon fill="black" stroke="black" points="621.8,-73.54 626.86,-71.95 621.92,-70.04 621.8,-73.54"/>
</g>
<!-- skip_until_ch -->
<g id="node18" class="node">
<title>skip_until_ch</title>
<path fill="#ffffff" stroke="black" stroke-width="1.5" d="M640.42,-25.5C640.42,-25.5 719.58,-25.5 719.58,-25.5 723.29,-25.5 727,-29.21 727,-32.92 727,-32.92 727,-40.33 727,-40.33 727,-44.04 723.29,-47.75 719.58,-47.75 719.58,-47.75 640.42,-47.75 640.42,-47.75 636.71,-47.75 633,-44.04 633,-40.33 633,-40.33 633,-32.92 633,-32.92 633,-29.21 636.71,-25.5 640.42,-25.5"/>
<text text-anchor="middle" x="680" y="-32.35" font-family="Times,serif" font-size="12.00">skip_until_ch</text>
</g>
<!-- expando_parse_enclosed_text&#45;&gt;skip_until_ch -->
<g id="edge7" class="edge">
<title>expando_parse_enclosed_text&#45;&gt;skip_until_ch</title>
<path fill="none" stroke="black" d="M528.14,-54.54C561.85,-50.53 598.65,-46.16 627.47,-42.74"/>
<polygon fill="black" stroke="black" points="627.37,-44.4 632.13,-42.07 626.96,-40.92 627.37,-44.4"/>
</g>
<!-- expando_tree_free -->
<g id="node4" class="node">
<title>expando_tree_free</title>
<path fill="#ffe0ff" stroke="black" stroke-width="1.5" d="M377.67,-0.5C377.67,-0.5 489.83,-0.5 489.83,-0.5 493.54,-0.5 497.25,-4.21 497.25,-7.92 497.25,-7.92 497.25,-15.33 497.25,-15.33 497.25,-19.04 493.54,-22.75 489.83,-22.75 489.83,-22.75 377.67,-22.75 377.67,-22.75 373.96,-22.75 370.25,-19.04 370.25,-15.33 370.25,-15.33 370.25,-7.92 370.25,-7.92 370.25,-4.21 373.96,-0.5 377.67,-0.5"/>
<text text-anchor="middle" x="433.75" y="-7.35" font-family="Times,serif" font-size="12.00">expando_tree_free</text>
</g>
<!-- expando_free&#45;&gt;expando_tree_free -->
<g id="edge1" class="edge">
<title>expando_free&#45;&gt;expando_tree_free</title>
<path fill="none" stroke="black" d="M280.76,-101.6C285.33,-99.64 289.74,-97.34 293.75,-94.62 315.85,-79.7 308.16,-62.28 329.75,-46.62 343.09,-36.95 359.31,-29.8 374.89,-24.58"/>
<polygon fill="black" stroke="black" points="375.37,-25.95 379.6,-22.75 374.3,-22.61 375.37,-25.95"/>
</g>
<!-- free_tree -->
<g id="node8" class="node">
<title>free_tree</title>
<path fill="#ffe0ff" stroke="black" stroke-width="1.5" d="M1156.17,-47.5C1156.17,-47.5 1211.33,-47.5 1211.33,-47.5 1215.04,-47.5 1218.75,-51.21 1218.75,-54.92 1218.75,-54.92 1218.75,-62.33 1218.75,-62.33 1218.75,-66.04 1215.04,-69.75 1211.33,-69.75 1211.33,-69.75 1156.17,-69.75 1156.17,-69.75 1152.46,-69.75 1148.75,-66.04 1148.75,-62.33 1148.75,-62.33 1148.75,-54.92 1148.75,-54.92 1148.75,-51.21 1152.46,-47.5 1156.17,-47.5"/>
<text text-anchor="middle" x="1183.75" y="-54.35" font-family="Times,serif" font-size="12.00">free_tree</text>
</g>
<!-- expando_tree_free&#45;&gt;free_tree -->
<g id="edge8" class="edge">
<title>expando_tree_free&#45;&gt;free_tree</title>
<path fill="none" stroke="black" d="M497.04,-11.07C567.35,-10.83 685.12,-11.54 786.25,-17.62 917.27,-25.5 1071.79,-44.21 1143.07,-53.38"/>
<polygon fill="black" stroke="black" points="1142.7,-55.23 1147.89,-54.13 1143.15,-51.75 1142.7,-55.23"/>
</g>
<!-- free_expando_private -->
<g id="node5" class="node">
<title>free_expando_private</title>
<path fill="#ffe0ff" stroke="black" stroke-width="1.5" d="M1118.29,-356.5C1118.29,-356.5 1249.21,-356.5 1249.21,-356.5 1252.92,-356.5 1256.62,-360.21 1256.62,-363.92 1256.62,-363.92 1256.62,-371.33 1256.62,-371.33 1256.62,-375.04 1252.92,-378.75 1249.21,-378.75 1249.21,-378.75 1118.29,-378.75 1118.29,-378.75 1114.58,-378.75 1110.88,-375.04 1110.88,-371.33 1110.88,-371.33 1110.88,-363.92 1110.88,-363.92 1110.88,-360.21 1114.58,-356.5 1118.29,-356.5"/>
<text text-anchor="middle" x="1183.75" y="-363.35" font-family="Times,serif" font-size="12.00">free_expando_private</text>
</g>
<!-- free_expando_private_condition_node -->
<g id="node6" class="node">
<title>free_expando_private_condition_node</title>
<path fill="#ffe0ff" stroke="black" stroke-width="1.5" d="M829.67,-81.5C829.67,-81.5 1058.08,-81.5 1058.08,-81.5 1061.79,-81.5 1065.5,-85.21 1065.5,-88.92 1065.5,-88.92 1065.5,-96.33 1065.5,-96.33 1065.5,-100.04 1061.79,-103.75 1058.08,-103.75 1058.08,-103.75 829.67,-103.75 829.67,-103.75 825.96,-103.75 822.25,-100.04 822.25,-96.33 822.25,-96.33 822.25,-88.92 822.25,-88.92 822.25,-85.21 825.96,-81.5 829.67,-81.5"/>
<text text-anchor="middle" x="943.88" y="-88.35" font-family="Times,serif" font-size="12.00">free_expando_private_condition_node</text>
</g>
<!-- free_node -->
<g id="node7" class="node">
<title>free_node</title>
<path fill="#ffe0ff" stroke="black" stroke-width="1.5" d="M1309.42,-64.5C1309.42,-64.5 1369.83,-64.5 1369.83,-64.5 1373.54,-64.5 1377.25,-68.21 1377.25,-71.92 1377.25,-71.92 1377.25,-79.33 1377.25,-79.33 1377.25,-83.04 1373.54,-86.75 1369.83,-86.75 1369.83,-86.75 1309.42,-86.75 1309.42,-86.75 1305.71,-86.75 1302,-83.04 1302,-79.33 1302,-79.33 1302,-71.92 1302,-71.92 1302,-68.21 1305.71,-64.5 1309.42,-64.5"/>
<text text-anchor="middle" x="1339.62" y="-71.35" font-family="Times,serif" font-size="12.00">free_node</text>
</g>
<!-- free_expando_private_condition_node&#45;&gt;free_node -->
<g id="edge12" class="edge">
<title>free_expando_private_condition_node&#45;&gt;free_node</title>
<path fill="none" stroke="black" d="M1065.42,-87.42C1143.96,-84.03 1241.67,-79.81 1296.4,-77.45"/>
<polygon fill="black" stroke="black" points="1296.29,-79.16 1301.21,-77.2 1296.14,-75.66 1296.29,-79.16"/>
</g>
<!-- free_expando_private_condition_node&#45;&gt;free_tree -->
<g id="edge13" class="edge">
<title>free_expando_private_condition_node&#45;&gt;free_tree</title>
<path fill="none" stroke="black" d="M1022.44,-81.54C1062.81,-75.77 1110.44,-68.96 1143.24,-64.27"/>
<polygon fill="black" stroke="black" points="1143.08,-65.92 1147.78,-63.48 1142.58,-62.46 1143.08,-65.92"/>
</g>
<!-- free_tree&#45;&gt;free_node -->
<g id="edge14" class="edge">
<title>free_tree&#45;&gt;free_node</title>
<path fill="none" stroke="black" d="M1218.52,-62.36C1241.45,-64.89 1271.95,-68.26 1296.47,-70.97"/>
<polygon fill="black" stroke="black" points="1296.09,-72.8 1301.25,-71.61 1296.47,-69.32 1296.09,-72.8"/>
</g>
<!-- new_condition_node -->
<g id="node10" class="node">
<title>new_condition_node</title>
<path fill="#ffffe0" stroke="black" stroke-width="1.5" d="M618.29,-136.5C618.29,-136.5 741.71,-136.5 741.71,-136.5 745.42,-136.5 749.12,-140.21 749.12,-143.92 749.12,-143.92 749.12,-151.33 749.12,-151.33 749.12,-155.04 745.42,-158.75 741.71,-158.75 741.71,-158.75 618.29,-158.75 618.29,-158.75 614.58,-158.75 610.88,-155.04 610.88,-151.33 610.88,-151.33 610.88,-143.92 610.88,-143.92 610.88,-140.21 614.58,-136.5 618.29,-136.5"/>
<text text-anchor="middle" x="680" y="-143.35" font-family="Times,serif" font-size="12.00">new_condition_node</text>
</g>
<!-- new_condition_node&#45;&gt;free_expando_private_condition_node -->
<g id="edge16" class="edge">
<title>new_condition_node&#45;&gt;free_expando_private_condition_node</title>
<path fill="none" stroke="black" d="M749.06,-136.63C761.46,-134.44 774.26,-132.06 786.25,-129.62 822.34,-122.28 862.78,-112.7 893.53,-105.12"/>
<polygon fill="black" stroke="black" points="893.72,-106.63 898.15,-103.73 892.88,-103.23 893.72,-106.63"/>
</g>
<!-- new_empty_node -->
<g id="node11" class="node">
<title>new_empty_node</title>
<path fill="#ffffe0" stroke="black" stroke-width="1.5" d="M628.04,-463.5C628.04,-463.5 731.96,-463.5 731.96,-463.5 735.67,-463.5 739.38,-467.21 739.38,-470.92 739.38,-470.92 739.38,-478.33 739.38,-478.33 739.38,-482.04 735.67,-485.75 731.96,-485.75 731.96,-485.75 628.04,-485.75 628.04,-485.75 624.33,-485.75 620.62,-482.04 620.62,-478.33 620.62,-478.33 620.62,-470.92 620.62,-470.92 620.62,-467.21 624.33,-463.5 628.04,-463.5"/>
<text text-anchor="middle" x="680" y="-470.35" font-family="Times,serif" font-size="12.00">new_empty_node</text>
</g>
<!-- new_expando_node -->
<g id="node12" class="node">
<title>new_expando_node</title>
<path fill="#ffffe0" stroke="black" stroke-width="1.5" d="M884.79,-319.5C884.79,-319.5 1002.96,-319.5 1002.96,-319.5 1006.67,-319.5 1010.38,-323.21 1010.38,-326.92 1010.38,-326.92 1010.38,-334.33 1010.38,-334.33 1010.38,-338.04 1006.67,-341.75 1002.96,-341.75 1002.96,-341.75 884.79,-341.75 884.79,-341.75 881.08,-341.75 877.38,-338.04 877.38,-334.33 877.38,-334.33 877.38,-326.92 877.38,-326.92 877.38,-323.21 881.08,-319.5 884.79,-319.5"/>
<text text-anchor="middle" x="943.88" y="-326.35" font-family="Times,serif" font-size="12.00">new_expando_node</text>
</g>
<!-- new_expando_node&#45;&gt;free_expando_private -->
<g id="edge17" class="edge">
<title>new_expando_node&#45;&gt;free_expando_private</title>
<path fill="none" stroke="black" d="M1010.32,-340.24C1028.22,-342.91 1047.61,-345.84 1065.5,-348.62 1079.71,-350.84 1094.88,-353.25 1109.43,-355.6"/>
<polygon fill="black" stroke="black" points="1108.98,-357.46 1114.19,-356.53 1109.53,-354 1108.98,-357.46"/>
</g>
<!-- new_pad_node -->
<g id="node13" class="node">
<title>new_pad_node</title>
<path fill="#ffffe0" stroke="black" stroke-width="1.5" d="M899.04,-393.5C899.04,-393.5 988.71,-393.5 988.71,-393.5 992.42,-393.5 996.12,-397.21 996.12,-400.92 996.12,-400.92 996.12,-408.33 996.12,-408.33 996.12,-412.04 992.42,-415.75 988.71,-415.75 988.71,-415.75 899.04,-415.75 899.04,-415.75 895.33,-415.75 891.62,-412.04 891.62,-408.33 891.62,-408.33 891.62,-400.92 891.62,-400.92 891.62,-397.21 895.33,-393.5 899.04,-393.5"/>
<text text-anchor="middle" x="943.88" y="-400.35" font-family="Times,serif" font-size="12.00">new_pad_node</text>
</g>
<!-- new_pad_node&#45;&gt;free_expando_private -->
<g id="edge18" class="edge">
<title>new_pad_node&#45;&gt;free_expando_private</title>
<path fill="none" stroke="black" d="M995.96,-397.15C1017.44,-393.96 1042.7,-390.17 1065.5,-386.62 1079.71,-384.41 1094.88,-382 1109.43,-379.65"/>
<polygon fill="black" stroke="black" points="1109.53,-381.25 1114.19,-378.72 1108.98,-377.79 1109.53,-381.25"/>
</g>
<!-- expando_tree_parse&#45;&gt;new_empty_node -->
<g id="edge10" class="edge">
<title>expando_tree_parse&#45;&gt;new_empty_node</title>
<path fill="none" stroke="black" d="M238.85,-322.73C257.43,-338.73 294.02,-368.27 329.75,-385.62 423.55,-431.19 543.24,-455.15 615.35,-466.32"/>
<polygon fill="black" stroke="black" points="614.68,-468.14 619.89,-467.17 615.21,-464.68 614.68,-468.14"/>
</g>
<!-- append_node -->
<g id="node19" class="node">
<title>append_node</title>
<path fill="#ffffff" stroke="black" stroke-width="1.5" d="M639.67,-426.5C639.67,-426.5 720.33,-426.5 720.33,-426.5 724.04,-426.5 727.75,-430.21 727.75,-433.92 727.75,-433.92 727.75,-441.33 727.75,-441.33 727.75,-445.04 724.04,-448.75 720.33,-448.75 720.33,-448.75 639.67,-448.75 639.67,-448.75 635.96,-448.75 632.25,-445.04 632.25,-441.33 632.25,-441.33 632.25,-433.92 632.25,-433.92 632.25,-430.21 635.96,-426.5 639.67,-426.5"/>
<text text-anchor="middle" x="680" y="-433.35" font-family="Times,serif" font-size="12.00">append_node</text>
</g>
<!-- expando_tree_parse&#45;&gt;append_node -->
<g id="edge9" class="edge">
<title>expando_tree_parse&#45;&gt;append_node</title>
<path fill="none" stroke="black" d="M260.66,-322.7C322.72,-342.54 458,-384.86 573.75,-414.62 590.92,-419.04 609.8,-423.34 626.78,-427"/>
<polygon fill="black" stroke="black" points="626.2,-428.88 631.46,-428.22 626.93,-425.46 626.2,-428.88"/>
</g>
<!-- parse_node -->
<g id="node20" class="node">
<title>parse_node</title>
<path fill="#ffffff" stroke="black" stroke-width="1.5" d="M398.67,-247.5C398.67,-247.5 468.83,-247.5 468.83,-247.5 472.54,-247.5 476.25,-251.21 476.25,-254.92 476.25,-254.92 476.25,-262.33 476.25,-262.33 476.25,-266.04 472.54,-269.75 468.83,-269.75 468.83,-269.75 398.67,-269.75 398.67,-269.75 394.96,-269.75 391.25,-266.04 391.25,-262.33 391.25,-262.33 391.25,-254.92 391.25,-254.92 391.25,-251.21 394.96,-247.5 398.67,-247.5"/>
<text text-anchor="middle" x="433.75" y="-254.35" font-family="Times,serif" font-size="12.00">parse_node</text>
</g>
<!-- expando_tree_parse&#45;&gt;parse_node -->
<g id="edge11" class="edge">
<title>expando_tree_parse&#45;&gt;parse_node</title>
<path fill="none" stroke="black" d="M269.64,-300.51C303.63,-291.78 350.91,-279.64 385.81,-270.68"/>
<polygon fill="black" stroke="black" points="385.9,-272.21 390.3,-269.27 385.03,-268.82 385.9,-272.21"/>
</g>
<!-- expando_parse_conditional_date -->
<g id="node16" class="node">
<title>expando_parse_conditional_date</title>
<path fill="#ffffff" stroke="black" stroke-width="1.5" d="M581.17,-321.5C581.17,-321.5 778.83,-321.5 778.83,-321.5 782.54,-321.5 786.25,-325.21 786.25,-328.92 786.25,-328.92 786.25,-336.33 786.25,-336.33 786.25,-340.04 782.54,-343.75 778.83,-343.75 778.83,-343.75 581.17,-343.75 581.17,-343.75 577.46,-343.75 573.75,-340.04 573.75,-336.33 573.75,-336.33 573.75,-328.92 573.75,-328.92 573.75,-325.21 577.46,-321.5 581.17,-321.5"/>
<text text-anchor="middle" x="680" y="-328.35" font-family="Times,serif" font-size="12.00">expando_parse_conditional_date</text>
</g>
<!-- new_conditional_date -->
<g id="node17" class="node">
<title>new_conditional_date</title>
<path fill="#ffffff" stroke="black" stroke-width="1.5" d="M878.04,-356.5C878.04,-356.5 1009.71,-356.5 1009.71,-356.5 1013.42,-356.5 1017.12,-360.21 1017.12,-363.92 1017.12,-363.92 1017.12,-371.33 1017.12,-371.33 1017.12,-375.04 1013.42,-378.75 1009.71,-378.75 1009.71,-378.75 878.04,-378.75 878.04,-378.75 874.33,-378.75 870.62,-375.04 870.62,-371.33 870.62,-371.33 870.62,-363.92 870.62,-363.92 870.62,-360.21 874.33,-356.5 878.04,-356.5"/>
<text text-anchor="middle" x="943.88" y="-363.35" font-family="Times,serif" font-size="12.00">new_conditional_date</text>
</g>
<!-- expando_parse_conditional_date&#45;&gt;new_conditional_date -->
<g id="edge5" class="edge">
<title>expando_parse_conditional_date&#45;&gt;new_conditional_date</title>
<path fill="none" stroke="black" d="M764.22,-343.75C796.51,-348.06 833.28,-352.98 865.03,-357.22"/>
<polygon fill="black" stroke="black" points="864.71,-359.08 869.9,-358.01 865.18,-355.61 864.71,-359.08"/>
</g>
<!-- new_conditional_date&#45;&gt;free_expando_private -->
<g id="edge15" class="edge">
<title>new_conditional_date&#45;&gt;free_expando_private</title>
<path fill="none" stroke="black" d="M1016.89,-367.62C1044.72,-367.62 1076.63,-367.62 1104.99,-367.62"/>
<polygon fill="black" stroke="black" points="1104.98,-369.38 1109.98,-367.62 1104.98,-365.88 1104.98,-369.38"/>
</g>
<!-- parse_node&#45;&gt;new_condition_node -->
<g id="edge24" class="edge">
<title>parse_node&#45;&gt;new_condition_node</title>
<path fill="none" stroke="black" d="M447.12,-247.66C470.22,-227.83 522.24,-186.17 573.75,-165.62 583.72,-161.65 594.57,-158.55 605.38,-156.13"/>
<polygon fill="black" stroke="black" points="605.5,-157.69 610.03,-154.93 604.77,-154.26 605.5,-157.69"/>
</g>
<!-- parse_node&#45;&gt;new_empty_node -->
<g id="edge25" class="edge">
<title>parse_node&#45;&gt;new_empty_node</title>
<path fill="none" stroke="black" d="M440.91,-269.58C462.48,-307.51 535.33,-432.32 573.75,-456.62 586.06,-464.41 600.73,-469.11 615.15,-471.89"/>
<polygon fill="black" stroke="black" points="614.64,-473.76 619.87,-472.9 615.25,-470.31 614.64,-473.76"/>
</g>
<!-- parse_node&#45;&gt;new_pad_node -->
<g id="edge26" class="edge">
<title>parse_node&#45;&gt;new_pad_node</title>
<path fill="none" stroke="black" d="M450.73,-269.66C471.86,-284.64 509.68,-312.86 537.75,-341.62 556.13,-360.46 550.41,-376.47 573.75,-388.62 626.42,-416.06 796.04,-412.18 885.86,-407.93"/>
<polygon fill="black" stroke="black" points="885.74,-409.64 890.65,-407.65 885.58,-406.14 885.74,-409.64"/>
</g>
<!-- parse_node&#45;&gt;new_text_node -->
<g id="edge27" class="edge">
<title>parse_node&#45;&gt;new_text_node</title>
<path fill="none" stroke="black" d="M440.18,-247.79C456.03,-217.39 505.45,-131 573.75,-91.62 588.32,-83.22 605.79,-78.52 622.27,-75.94"/>
<polygon fill="black" stroke="black" points="622.11,-77.59 626.81,-75.15 621.61,-74.12 622.11,-77.59"/>
</g>
<!-- parse_node&#45;&gt;skip_until_ch -->
<g id="edge29" class="edge">
<title>parse_node&#45;&gt;skip_until_ch</title>
<path fill="none" stroke="black" d="M440.72,-247.61C461.96,-208.86 534.63,-79.76 573.75,-54.62 589.58,-44.45 609.4,-39.52 627.56,-37.27"/>
<polygon fill="black" stroke="black" points="627.36,-38.94 632.14,-36.65 626.98,-35.46 627.36,-38.94"/>
</g>
<!-- parse_node&#45;&gt;append_node -->
<g id="edge23" class="edge">
<title>parse_node&#45;&gt;append_node</title>
<path fill="none" stroke="black" d="M448.97,-269.49C470.05,-286.07 510.08,-319.37 537.75,-353.62 557.53,-378.11 548.25,-396.17 573.75,-414.62 589.06,-425.7 608.68,-431.62 626.83,-434.72"/>
<polygon fill="black" stroke="black" points="626.19,-436.55 631.4,-435.6 626.74,-433.1 626.19,-436.55"/>
</g>
<!-- parse_expando_node -->
<g id="node21" class="node">
<title>parse_expando_node</title>
<path fill="#ffffff" stroke="black" stroke-width="1.5" d="M616.42,-284.5C616.42,-284.5 743.58,-284.5 743.58,-284.5 747.29,-284.5 751,-288.21 751,-291.92 751,-291.92 751,-299.33 751,-299.33 751,-303.04 747.29,-306.75 743.58,-306.75 743.58,-306.75 616.42,-306.75 616.42,-306.75 612.71,-306.75 609,-303.04 609,-299.33 609,-299.33 609,-291.92 609,-291.92 609,-288.21 612.71,-284.5 616.42,-284.5"/>
<text text-anchor="middle" x="680" y="-291.35" font-family="Times,serif" font-size="12.00">parse_expando_node</text>
</g>
<!-- parse_node&#45;&gt;parse_expando_node -->
<g id="edge28" class="edge">
<title>parse_node&#45;&gt;parse_expando_node</title>
<path fill="none" stroke="black" d="M476.18,-264.9C510.89,-270.16 561.34,-277.8 603.23,-284.15"/>
<polygon fill="black" stroke="black" points="602.88,-286.02 608.09,-285.03 603.41,-282.56 602.88,-286.02"/>
</g>
<!-- skip_until_ch2_counted -->
<g id="node25" class="node">
<title>skip_until_ch2_counted</title>
<path fill="#ffffff" stroke="black" stroke-width="1.5" d="M609.67,-247.5C609.67,-247.5 750.33,-247.5 750.33,-247.5 754.04,-247.5 757.75,-251.21 757.75,-254.92 757.75,-254.92 757.75,-262.33 757.75,-262.33 757.75,-266.04 754.04,-269.75 750.33,-269.75 750.33,-269.75 609.67,-269.75 609.67,-269.75 605.96,-269.75 602.25,-266.04 602.25,-262.33 602.25,-262.33 602.25,-254.92 602.25,-254.92 602.25,-251.21 605.96,-247.5 609.67,-247.5"/>
<text text-anchor="middle" x="680" y="-254.35" font-family="Times,serif" font-size="12.00">skip_until_ch2_counted</text>
</g>
<!-- parse_node&#45;&gt;skip_until_ch2_counted -->
<g id="edge30" class="edge">
<title>parse_node&#45;&gt;skip_until_ch2_counted</title>
<path fill="none" stroke="black" d="M476.18,-258.62C509.13,-258.62 556.27,-258.62 596.81,-258.62"/>
<polygon fill="black" stroke="black" points="596.74,-260.38 601.74,-258.62 596.74,-256.88 596.74,-260.38"/>
</g>
<!-- skip_until_ch_counted -->
<g id="node26" class="node">
<title>skip_until_ch_counted</title>
<path fill="#ffffff" stroke="black" stroke-width="1.5" d="M613.42,-210.5C613.42,-210.5 746.58,-210.5 746.58,-210.5 750.29,-210.5 754,-214.21 754,-217.92 754,-217.92 754,-225.33 754,-225.33 754,-229.04 750.29,-232.75 746.58,-232.75 746.58,-232.75 613.42,-232.75 613.42,-232.75 609.71,-232.75 606,-229.04 606,-225.33 606,-225.33 606,-217.92 606,-217.92 606,-214.21 609.71,-210.5 613.42,-210.5"/>
<text text-anchor="middle" x="680" y="-217.35" font-family="Times,serif" font-size="12.00">skip_until_ch_counted</text>
</g>
<!-- parse_node&#45;&gt;skip_until_ch_counted -->
<g id="edge31" class="edge">
<title>parse_node&#45;&gt;skip_until_ch_counted</title>
<path fill="none" stroke="black" d="M476.18,-252.35C510.11,-247.21 559.08,-239.79 600.4,-233.53"/>
<polygon fill="black" stroke="black" points="600.49,-235.14 605.17,-232.66 599.97,-231.68 600.49,-235.14"/>
</g>
<!-- skip_until_ch_or_end -->
<g id="node27" class="node">
<title>skip_until_ch_or_end</title>
<path fill="#ffffff" stroke="black" stroke-width="1.5" d="M616.79,-173.5C616.79,-173.5 743.21,-173.5 743.21,-173.5 746.92,-173.5 750.62,-177.21 750.62,-180.92 750.62,-180.92 750.62,-188.33 750.62,-188.33 750.62,-192.04 746.92,-195.75 743.21,-195.75 743.21,-195.75 616.79,-195.75 616.79,-195.75 613.08,-195.75 609.38,-192.04 609.38,-188.33 609.38,-188.33 609.38,-180.92 609.38,-180.92 609.38,-177.21 613.08,-173.5 616.79,-173.5"/>
<text text-anchor="middle" x="680" y="-180.35" font-family="Times,serif" font-size="12.00">skip_until_ch_or_end</text>
</g>
<!-- parse_node&#45;&gt;skip_until_ch_or_end -->
<g id="edge32" class="edge">
<title>parse_node&#45;&gt;skip_until_ch_or_end</title>
<path fill="none" stroke="black" d="M457.83,-247.55C484.98,-234.94 531.7,-214.54 573.75,-202.62 583.38,-199.9 593.63,-197.52 603.81,-195.46"/>
<polygon fill="black" stroke="black" points="603.89,-197.03 608.46,-194.35 603.21,-193.6 603.89,-197.03"/>
</g>
<!-- skip_until_if_false_end -->
<g id="node28" class="node">
<title>skip_until_if_false_end</title>
<path fill="#ffffff" stroke="black" stroke-width="1.5" d="M612.29,-99.5C612.29,-99.5 747.71,-99.5 747.71,-99.5 751.42,-99.5 755.12,-103.21 755.12,-106.92 755.12,-106.92 755.12,-114.33 755.12,-114.33 755.12,-118.04 751.42,-121.75 747.71,-121.75 747.71,-121.75 612.29,-121.75 612.29,-121.75 608.58,-121.75 604.88,-118.04 604.88,-114.33 604.88,-114.33 604.88,-106.92 604.88,-106.92 604.88,-103.21 608.58,-99.5 612.29,-99.5"/>
<text text-anchor="middle" x="680" y="-106.35" font-family="Times,serif" font-size="12.00">skip_until_if_false_end</text>
</g>
<!-- parse_node&#45;&gt;skip_until_if_false_end -->
<g id="edge33" class="edge">
<title>parse_node&#45;&gt;skip_until_if_false_end</title>
<path fill="none" stroke="black" d="M442.71,-247.67C461.98,-222.08 513.96,-158.3 573.75,-128.62 581.79,-124.63 590.56,-121.51 599.49,-119.06"/>
<polygon fill="black" stroke="black" points="599.67,-120.57 604.07,-117.63 598.79,-117.18 599.67,-120.57"/>
</g>
<!-- skip_until_if_true_end -->
<g id="node29" class="node">
<title>skip_until_if_true_end</title>
<path fill="#ffffff" stroke="black" stroke-width="1.5" d="M614.17,-358.5C614.17,-358.5 745.83,-358.5 745.83,-358.5 749.54,-358.5 753.25,-362.21 753.25,-365.92 753.25,-365.92 753.25,-373.33 753.25,-373.33 753.25,-377.04 749.54,-380.75 745.83,-380.75 745.83,-380.75 614.17,-380.75 614.17,-380.75 610.46,-380.75 606.75,-377.04 606.75,-373.33 606.75,-373.33 606.75,-365.92 606.75,-365.92 606.75,-362.21 610.46,-358.5 614.17,-358.5"/>
<text text-anchor="middle" x="680" y="-365.35" font-family="Times,serif" font-size="12.00">skip_until_if_true_end</text>
</g>
<!-- parse_node&#45;&gt;skip_until_if_true_end -->
<g id="edge34" class="edge">
<title>parse_node&#45;&gt;skip_until_if_true_end</title>
<path fill="none" stroke="black" d="M447.12,-269.59C470.22,-289.42 522.24,-331.08 573.75,-351.62 582.38,-355.07 591.66,-357.85 601.01,-360.1"/>
<polygon fill="black" stroke="black" points="600.57,-362.02 605.83,-361.44 601.35,-358.61 600.57,-362.02"/>
</g>
<!-- parse_expando_node&#45;&gt;new_expando_node -->
<g id="edge19" class="edge">
<title>parse_expando_node&#45;&gt;new_expando_node</title>
<path fill="none" stroke="black" d="M750.83,-304.96C788.38,-309.98 834.57,-316.15 872.24,-321.18"/>
<polygon fill="black" stroke="black" points="871.55,-322.99 876.73,-321.92 872.01,-319.52 871.55,-322.99"/>
</g>
<!-- parse_format -->
<g id="node22" class="node">
<title>parse_format</title>
<path fill="#ffffff" stroke="black" stroke-width="1.5" d="M902.79,-245.5C902.79,-245.5 984.96,-245.5 984.96,-245.5 988.67,-245.5 992.38,-249.21 992.38,-252.92 992.38,-252.92 992.38,-260.33 992.38,-260.33 992.38,-264.04 988.67,-267.75 984.96,-267.75 984.96,-267.75 902.79,-267.75 902.79,-267.75 899.08,-267.75 895.38,-264.04 895.38,-260.33 895.38,-260.33 895.38,-252.92 895.38,-252.92 895.38,-249.21 899.08,-245.5 902.79,-245.5"/>
<text text-anchor="middle" x="943.88" y="-252.35" font-family="Times,serif" font-size="12.00">parse_format</text>
</g>
<!-- parse_expando_node&#45;&gt;parse_format -->
<g id="edge20" class="edge">
<title>parse_expando_node&#45;&gt;parse_format</title>
<path fill="none" stroke="black" d="M750.83,-285.22C794.45,-278.73 849.72,-270.5 889.76,-264.54"/>
<polygon fill="black" stroke="black" points="889.86,-266.14 894.55,-263.67 889.35,-262.68 889.86,-266.14"/>
</g>
<!-- skip_classic_expando -->
<g id="node23" class="node">
<title>skip_classic_expando</title>
<path fill="#ffffff" stroke="black" stroke-width="1.5" d="M879.17,-282.5C879.17,-282.5 1008.58,-282.5 1008.58,-282.5 1012.29,-282.5 1016,-286.21 1016,-289.92 1016,-289.92 1016,-297.33 1016,-297.33 1016,-301.04 1012.29,-304.75 1008.58,-304.75 1008.58,-304.75 879.17,-304.75 879.17,-304.75 875.46,-304.75 871.75,-301.04 871.75,-297.33 871.75,-297.33 871.75,-289.92 871.75,-289.92 871.75,-286.21 875.46,-282.5 879.17,-282.5"/>
<text text-anchor="middle" x="943.88" y="-289.35" font-family="Times,serif" font-size="12.00">skip_classic_expando</text>
</g>
<!-- parse_expando_node&#45;&gt;skip_classic_expando -->
<g id="edge21" class="edge">
<title>parse_expando_node&#45;&gt;skip_classic_expando</title>
<path fill="none" stroke="black" d="M750.83,-295.09C786.36,-294.82 829.62,-294.49 866.08,-294.21"/>
<polygon fill="black" stroke="black" points="865.88,-295.96 870.87,-294.17 865.86,-292.46 865.88,-295.96"/>
</g>
<!-- skip_until_classic_expando -->
<g id="node24" class="node">
<title>skip_until_classic_expando</title>
<path fill="#ffffff" stroke="black" stroke-width="1.5" d="M862.67,-208.5C862.67,-208.5 1025.08,-208.5 1025.08,-208.5 1028.79,-208.5 1032.5,-212.21 1032.5,-215.92 1032.5,-215.92 1032.5,-223.33 1032.5,-223.33 1032.5,-227.04 1028.79,-230.75 1025.08,-230.75 1025.08,-230.75 862.67,-230.75 862.67,-230.75 858.96,-230.75 855.25,-227.04 855.25,-223.33 855.25,-223.33 855.25,-215.92 855.25,-215.92 855.25,-212.21 858.96,-208.5 862.67,-208.5"/>
<text text-anchor="middle" x="943.88" y="-215.35" font-family="Times,serif" font-size="12.00">skip_until_classic_expando</text>
</g>
<!-- parse_expando_node&#45;&gt;skip_until_classic_expando -->
<g id="edge22" class="edge">
<title>parse_expando_node&#45;&gt;skip_until_classic_expando</title>
<path fill="none" stroke="black" d="M750.89,-290.42C763.16,-287.65 775.45,-283.57 786.25,-277.62 807.2,-266.08 801.18,-248.95 822.25,-237.62 830.83,-233.02 840.21,-229.48 849.84,-226.79"/>
<polygon fill="black" stroke="black" points="850.14,-228.26 854.53,-225.3 849.25,-224.87 850.14,-228.26"/>
</g>
<!-- is_valid_classic_expando -->
<g id="node30" class="node">
<title>is_valid_classic_expando</title>
<path fill="#ffffff" stroke="black" stroke-width="1.5" d="M1108.92,-208.5C1108.92,-208.5 1258.58,-208.5 1258.58,-208.5 1262.29,-208.5 1266,-212.21 1266,-215.92 1266,-215.92 1266,-223.33 1266,-223.33 1266,-227.04 1262.29,-230.75 1258.58,-230.75 1258.58,-230.75 1108.92,-230.75 1108.92,-230.75 1105.21,-230.75 1101.5,-227.04 1101.5,-223.33 1101.5,-223.33 1101.5,-215.92 1101.5,-215.92 1101.5,-212.21 1105.21,-208.5 1108.92,-208.5"/>
<text text-anchor="middle" x="1183.75" y="-215.35" font-family="Times,serif" font-size="12.00">is_valid_classic_expando</text>
</g>
<!-- skip_until_classic_expando&#45;&gt;is_valid_classic_expando -->
<g id="edge35" class="edge">
<title>skip_until_classic_expando&#45;&gt;is_valid_classic_expando</title>
<path fill="none" stroke="black" d="M1032.44,-219.62C1053.14,-219.62 1075.22,-219.62 1095.89,-219.62"/>
<polygon fill="black" stroke="black" points="1095.68,-221.38 1100.68,-219.62 1095.68,-217.88 1095.68,-221.38"/>
</g>
</g>
</svg>
