<?xml version="1.0" encoding="UTF-8" standalone="no"?>
<!DOCTYPE svg PUBLIC "-//W3C//DTD SVG 1.1//EN"
 "http://www.w3.org/Graphics/SVG/1.1/DTD/svg11.dtd">
<!-- Generated by graphviz version 8.1.0 (20230707.0739)
 -->
<!-- Title: callgraph Pages: 1 -->
<svg width="675pt" height="200pt"
 viewBox="0.00 0.00 674.75 200.00" xmlns="http://www.w3.org/2000/svg" xmlns:xlink="http://www.w3.org/1999/xlink">
<g id="graph0" class="graph" transform="scale(1 1) rotate(0) translate(4 196)">
<title>callgraph</title>
<polygon fill="white" stroke="none" points="-4,4 -4,-196 670.75,-196 670.75,4 -4,4"/>
<g id="clust1" class="cluster">
<title>cluster_helpers</title>
<polygon fill="none" stroke="#00e000" stroke-dasharray="5,2" points="8,-8 8,-184 658.75,-184 658.75,-8 8,-8"/>
<text text-anchor="middle" x="333.38" y="-166.7" font-family="Times,serif" font-size="14.00">Helper Functions</text>
</g>
<!-- format_int -->
<g id="node1" class="node">
<title>format_int</title>
<path fill="#e0ffe0" stroke="black" stroke-width="1.5" d="M233.67,-108.88C233.67,-108.88 312.08,-108.88 312.08,-108.88 315.79,-108.88 319.5,-112.58 319.5,-116.29 319.5,-116.29 319.5,-123.71 319.5,-123.71 319.5,-127.42 315.79,-131.12 312.08,-131.12 312.08,-131.12 233.67,-131.12 233.67,-131.12 229.96,-131.12 226.25,-127.42 226.25,-123.71 226.25,-123.71 226.25,-116.29 226.25,-116.29 226.25,-112.58 229.96,-108.88 233.67,-108.88"/>
<text text-anchor="start" x="234.25" y="-116.72" font-family="Times,serif" font-size="12.00">format_int </text>
<text text-anchor="start" x="301" y="-116.72" font-family="Times,serif" font-size="12.00" fill="red">●</text>
</g>
<!-- format_string -->
<g id="node4" class="node">
<title>format_string</title>
<path fill="#e0ffe0" stroke="black" stroke-width="1.5" d="M395.17,-71.88C395.17,-71.88 493.08,-71.88 493.08,-71.88 496.79,-71.88 500.5,-75.58 500.5,-79.29 500.5,-79.29 500.5,-86.71 500.5,-86.71 500.5,-90.42 496.79,-94.12 493.08,-94.12 493.08,-94.12 395.17,-94.12 395.17,-94.12 391.46,-94.12 387.75,-90.42 387.75,-86.71 387.75,-86.71 387.75,-79.29 387.75,-79.29 387.75,-75.58 391.46,-71.88 395.17,-71.88"/>
<text text-anchor="start" x="395.75" y="-79.72" font-family="Times,serif" font-size="12.00">format_string </text>
<text text-anchor="start" x="482" y="-79.72" font-family="Times,serif" font-size="12.00" fill="red">●</text>
</g>
<!-- format_int&#45;&gt;format_string -->
<g id="edge1" class="edge">
<title>format_int&#45;&gt;format_string</title>
<path fill="none" stroke="black" d="M319.23,-110.08C339.9,-105.57 364.6,-100.17 386.48,-95.38"/>
<polygon fill="black" stroke="black" points="386.76,-96.9 391.27,-94.12 386.01,-93.48 386.76,-96.9"/>
</g>
<!-- format_int_flags -->
<g id="node2" class="node">
<title>format_int_flags</title>
<path fill="#e0ffe0" stroke="black" stroke-width="1.5" d="M30.17,-127.88C30.17,-127.88 143.83,-127.88 143.83,-127.88 147.54,-127.88 151.25,-131.58 151.25,-135.29 151.25,-135.29 151.25,-142.71 151.25,-142.71 151.25,-146.42 147.54,-150.12 143.83,-150.12 143.83,-150.12 30.17,-150.12 30.17,-150.12 26.46,-150.12 22.75,-146.42 22.75,-142.71 22.75,-142.71 22.75,-135.29 22.75,-135.29 22.75,-131.58 26.46,-127.88 30.17,-127.88"/>
<text text-anchor="start" x="30.75" y="-135.72" font-family="Times,serif" font-size="12.00">format_int_flags </text>
<text text-anchor="start" x="132.75" y="-135.72" font-family="Times,serif" font-size="12.00" fill="red">●</text>
</g>
<!-- format_int_flags&#45;&gt;format_int -->
<g id="edge2" class="edge">
<title>format_int_flags&#45;&gt;format_int</title>
<path fill="none" stroke="black" d="M151.02,-132.49C173.64,-130.15 198.85,-127.55 220.38,-125.32"/>
<polygon fill="black" stroke="black" points="220.55,-126.96 225.34,-124.7 220.19,-123.48 220.55,-126.96"/>
</g>
<!-- format_int_simple -->
<g id="node3" class="node">
<title>format_int_simple</title>
<path fill="#e0ffe0" stroke="black" stroke-width="1.5" d="M25.29,-90.88C25.29,-90.88 148.71,-90.88 148.71,-90.88 152.42,-90.88 156.12,-94.58 156.12,-98.29 156.12,-98.29 156.12,-105.71 156.12,-105.71 156.12,-109.42 152.42,-113.12 148.71,-113.12 148.71,-113.12 25.29,-113.12 25.29,-113.12 21.58,-113.12 17.88,-109.42 17.88,-105.71 17.88,-105.71 17.88,-98.29 17.88,-98.29 17.88,-94.58 21.58,-90.88 25.29,-90.88"/>
<text text-anchor="start" x="25.88" y="-98.72" font-family="Times,serif" font-size="12.00">format_int_simple </text>
<text text-anchor="start" x="137.62" y="-98.72" font-family="Times,serif" font-size="12.00" fill="red">●</text>
</g>
<!-- format_int_simple&#45;&gt;format_int -->
<g id="edge3" class="edge">
<title>format_int_simple&#45;&gt;format_int</title>
<path fill="none" stroke="black" d="M155.95,-108.65C177.36,-110.75 200.64,-113.03 220.69,-114.99"/>
<polygon fill="black" stroke="black" points="220.38,-116.81 225.52,-115.56 220.72,-113.33 220.38,-116.81"/>
</g>
<!-- add_index_color -->
<g id="node7" class="node">
<title>add_index_color</title>
<path fill="#e0ffe0" stroke="black" stroke-width="1.5" d="M543.92,-71.88C543.92,-71.88 643.33,-71.88 643.33,-71.88 647.04,-71.88 650.75,-75.58 650.75,-79.29 650.75,-79.29 650.75,-86.71 650.75,-86.71 650.75,-90.42 647.04,-94.12 643.33,-94.12 643.33,-94.12 543.92,-94.12 543.92,-94.12 540.21,-94.12 536.5,-90.42 536.5,-86.71 536.5,-86.71 536.5,-79.29 536.5,-79.29 536.5,-75.58 540.21,-71.88 543.92,-71.88"/>
<text text-anchor="middle" x="593.62" y="-78.72" font-family="Times,serif" font-size="12.00">add_index_color</text>
</g>
<!-- format_string&#45;&gt;add_index_color -->
<g id="edge4" class="edge">
<title>format_string&#45;&gt;add_index_color</title>
<path fill="none" stroke="black" d="M500.47,-83C510.44,-83 520.9,-83 531.04,-83"/>
<polygon fill="black" stroke="black" points="530.97,-84.75 535.97,-83 530.97,-81.25 530.97,-84.75"/>
</g>
<!-- format_string_flags -->
<g id="node5" class="node">
<title>format_string_flags</title>
<path fill="#e0ffe0" stroke="black" stroke-width="1.5" d="M206.29,-71.88C206.29,-71.88 339.46,-71.88 339.46,-71.88 343.17,-71.88 346.88,-75.58 346.88,-79.29 346.88,-79.29 346.88,-86.71 346.88,-86.71 346.88,-90.42 343.17,-94.12 339.46,-94.12 339.46,-94.12 206.29,-94.12 206.29,-94.12 202.58,-94.12 198.88,-90.42 198.88,-86.71 198.88,-86.71 198.88,-79.29 198.88,-79.29 198.88,-75.58 202.58,-71.88 206.29,-71.88"/>
<text text-anchor="start" x="206.88" y="-79.72" font-family="Times,serif" font-size="12.00">format_string_flags </text>
<text text-anchor="start" x="328.38" y="-79.72" font-family="Times,serif" font-size="12.00" fill="red">●</text>
</g>
<!-- format_string_flags&#45;&gt;format_string -->
<g id="edge5" class="edge">
<title>format_string_flags&#45;&gt;format_string</title>
<path fill="none" stroke="black" d="M346.63,-83C358.38,-83 370.44,-83 381.89,-83"/>
<polygon fill="black" stroke="black" points="381.81,-84.75 386.81,-83 381.81,-81.25 381.81,-84.75"/>
</g>
<!-- format_string_simple -->
<g id="node6" class="node">
<title>format_string_simple</title>
<path fill="#e0ffe0" stroke="black" stroke-width="1.5" d="M201.42,-34.88C201.42,-34.88 344.33,-34.88 344.33,-34.88 348.04,-34.88 351.75,-38.58 351.75,-42.29 351.75,-42.29 351.75,-49.71 351.75,-49.71 351.75,-53.42 348.04,-57.12 344.33,-57.12 344.33,-57.12 201.42,-57.12 201.42,-57.12 197.71,-57.12 194,-53.42 194,-49.71 194,-49.71 194,-42.29 194,-42.29 194,-38.58 197.71,-34.88 201.42,-34.88"/>
<text text-anchor="start" x="202" y="-42.73" font-family="Times,serif" font-size="12.00">format_string_simple </text>
<text text-anchor="start" x="333.25" y="-42.73" font-family="Times,serif" font-size="12.00" fill="red">●</text>
</g>
<!-- format_string_simple&#45;&gt;format_string -->
<g id="edge6" class="edge">
<title>format_string_simple&#45;&gt;format_string</title>
<path fill="none" stroke="black" d="M324.66,-57.1C344.15,-61.36 366.52,-66.25 386.53,-70.63"/>
<polygon fill="black" stroke="black" points="386.12,-72.55 391.38,-71.91 386.87,-69.13 386.12,-72.55"/>
</g>
<!-- mb_strlen_nonnull -->
<g id="node8" class="node">
<title>mb_strlen_nonnull</title>
<path fill="#e0ffe0" stroke="black" stroke-width="1.5" d="M31.29,-53.88C31.29,-53.88 142.71,-53.88 142.71,-53.88 146.42,-53.88 150.12,-57.58 150.12,-61.29 150.12,-61.29 150.12,-68.71 150.12,-68.71 150.12,-72.42 146.42,-76.12 142.71,-76.12 142.71,-76.12 31.29,-76.12 31.29,-76.12 27.58,-76.12 23.88,-72.42 23.88,-68.71 23.88,-68.71 23.88,-61.29 23.88,-61.29 23.88,-57.58 27.58,-53.88 31.29,-53.88"/>
<text text-anchor="middle" x="87" y="-60.73" font-family="Times,serif" font-size="12.00">mb_strlen_nonnull</text>
</g>
<!-- mb_strwidth_nonnull -->
<g id="node9" class="node">
<title>mb_strwidth_nonnull</title>
<path fill="#e0ffe0" stroke="black" stroke-width="1.5" d="M23.42,-16.88C23.42,-16.88 150.58,-16.88 150.58,-16.88 154.29,-16.88 158,-20.58 158,-24.29 158,-24.29 158,-31.71 158,-31.71 158,-35.42 154.29,-39.12 150.58,-39.12 150.58,-39.12 23.42,-39.12 23.42,-39.12 19.71,-39.12 16,-35.42 16,-31.71 16,-31.71 16,-24.29 16,-24.29 16,-20.58 19.71,-16.88 23.42,-16.88"/>
<text text-anchor="middle" x="87" y="-23.73" font-family="Times,serif" font-size="12.00">mb_strwidth_nonnull</text>
</g>
</g>
</svg>
