<?xml version="1.0" encoding="UTF-8" standalone="no"?>
<!DOCTYPE svg PUBLIC "-//W3C//DTD SVG 1.1//EN"
 "http://www.w3.org/Graphics/SVG/1.1/DTD/svg11.dtd">
<!-- Generated by graphviz version 8.1.0 (20230707.0739)
 -->
<!-- Title: callgraph Pages: 1 -->
<svg width="418pt" height="237pt"
 viewBox="0.00 0.00 417.75 237.00" xmlns="http://www.w3.org/2000/svg" xmlns:xlink="http://www.w3.org/1999/xlink">
<g id="graph0" class="graph" transform="scale(1 1) rotate(0) translate(4 233)">
<title>callgraph</title>
<polygon fill="white" stroke="none" points="-4,4 -4,-233 413.75,-233 413.75,4 -4,4"/>
<g id="clust1" class="cluster">
<title>cluster_helpers</title>
<polygon fill="none" stroke="#00e000" stroke-dasharray="5,2" points="8,-8 8,-221 401.75,-221 401.75,-8 8,-8"/>
<text text-anchor="middle" x="204.88" y="-203.7" font-family="Times,serif" font-size="14.00">Helper Functions</text>
</g>
<!-- find_get_number -->
<g id="node1" class="node">
<title>find_get_number</title>
<path fill="#e0ffe0" stroke="black" stroke-width="1.5" d="M53.79,-164.88C53.79,-164.88 155.46,-164.88 155.46,-164.88 159.17,-164.88 162.88,-168.58 162.88,-172.29 162.88,-172.29 162.88,-179.71 162.88,-179.71 162.88,-183.42 159.17,-187.12 155.46,-187.12 155.46,-187.12 53.79,-187.12 53.79,-187.12 50.08,-187.12 46.38,-183.42 46.38,-179.71 46.38,-179.71 46.38,-172.29 46.38,-172.29 46.38,-168.58 50.08,-164.88 53.79,-164.88"/>
<text text-anchor="middle" x="104.62" y="-171.72" font-family="Times,serif" font-size="12.00">find_get_number</text>
</g>
<!-- find_get_string -->
<g id="node2" class="node">
<title>find_get_string</title>
<path fill="#e0ffe0" stroke="black" stroke-width="1.5" d="M59.42,-127.88C59.42,-127.88 149.83,-127.88 149.83,-127.88 153.54,-127.88 157.25,-131.58 157.25,-135.29 157.25,-135.29 157.25,-142.71 157.25,-142.71 157.25,-146.42 153.54,-150.12 149.83,-150.12 149.83,-150.12 59.42,-150.12 59.42,-150.12 55.71,-150.12 52,-146.42 52,-142.71 52,-142.71 52,-135.29 52,-135.29 52,-131.58 55.71,-127.88 59.42,-127.88"/>
<text text-anchor="middle" x="104.62" y="-134.72" font-family="Times,serif" font-size="12.00">find_get_string</text>
</g>
<!-- skip_classic_expando -->
<g id="node3" class="node">
<title>skip_classic_expando</title>
<path fill="#e0ffe0" stroke="black" stroke-width="1.5" d="M39.92,-90.88C39.92,-90.88 169.33,-90.88 169.33,-90.88 173.04,-90.88 176.75,-94.58 176.75,-98.29 176.75,-98.29 176.75,-105.71 176.75,-105.71 176.75,-109.42 173.04,-113.12 169.33,-113.12 169.33,-113.12 39.92,-113.12 39.92,-113.12 36.21,-113.12 32.5,-109.42 32.5,-105.71 32.5,-105.71 32.5,-98.29 32.5,-98.29 32.5,-94.58 36.21,-90.88 39.92,-90.88"/>
<text text-anchor="middle" x="104.62" y="-97.72" font-family="Times,serif" font-size="12.00">skip_classic_expando</text>
</g>
<!-- skip_until_ch -->
<g id="node4" class="node">
<title>skip_until_ch</title>
<path fill="#e0ffe0" stroke="black" stroke-width="1.5" d="M65.04,-53.88C65.04,-53.88 144.21,-53.88 144.21,-53.88 147.92,-53.88 151.62,-57.58 151.62,-61.29 151.62,-61.29 151.62,-68.71 151.62,-68.71 151.62,-72.42 147.92,-76.12 144.21,-76.12 144.21,-76.12 65.04,-76.12 65.04,-76.12 61.33,-76.12 57.62,-72.42 57.62,-68.71 57.62,-68.71 57.62,-61.29 57.62,-61.29 57.62,-57.58 61.33,-53.88 65.04,-53.88"/>
<text text-anchor="middle" x="104.62" y="-60.73" font-family="Times,serif" font-size="12.00">skip_until_ch</text>
</g>
<!-- skip_until_classic_expando -->
<g id="node5" class="node">
<title>skip_until_classic_expando</title>
<path fill="#e0ffe0" stroke="black" stroke-width="1.5" d="M23.42,-16.88C23.42,-16.88 185.83,-16.88 185.83,-16.88 189.54,-16.88 193.25,-20.58 193.25,-24.29 193.25,-24.29 193.25,-31.71 193.25,-31.71 193.25,-35.42 189.54,-39.12 185.83,-39.12 185.83,-39.12 23.42,-39.12 23.42,-39.12 19.71,-39.12 16,-35.42 16,-31.71 16,-31.71 16,-24.29 16,-24.29 16,-20.58 19.71,-16.88 23.42,-16.88"/>
<text text-anchor="middle" x="104.62" y="-23.73" font-family="Times,serif" font-size="12.00">skip_until_classic_expando</text>
</g>
<!-- is_valid_classic_expando -->
<g id="node6" class="node">
<title>is_valid_classic_expando</title>
<path fill="#e0ffe0" stroke="black" stroke-width="1.5" d="M236.67,-16.88C236.67,-16.88 386.33,-16.88 386.33,-16.88 390.04,-16.88 393.75,-20.58 393.75,-24.29 393.75,-24.29 393.75,-31.71 393.75,-31.71 393.75,-35.42 390.04,-39.12 386.33,-39.12 386.33,-39.12 236.67,-39.12 236.67,-39.12 232.96,-39.12 229.25,-35.42 229.25,-31.71 229.25,-31.71 229.25,-24.29 229.25,-24.29 229.25,-20.58 232.96,-16.88 236.67,-16.88"/>
<text text-anchor="middle" x="311.5" y="-23.73" font-family="Times,serif" font-size="12.00">is_valid_classic_expando</text>
</g>
<!-- skip_until_classic_expando&#45;&gt;is_valid_classic_expando -->
<g id="edge1" class="edge">
<title>skip_until_classic_expando&#45;&gt;is_valid_classic_expando</title>
<path fill="none" stroke="black" d="M193.1,-28C203.2,-28 213.49,-28 223.57,-28"/>
<polygon fill="black" stroke="black" points="223.48,-29.75 228.48,-28 223.48,-26.25 223.48,-29.75"/>
</g>
</g>
</svg>
