<?xml version="1.0" encoding="UTF-8" standalone="no"?>
<!DOCTYPE svg PUBLIC "-//W3C//DTD SVG 1.1//EN"
 "http://www.w3.org/Graphics/SVG/1.1/DTD/svg11.dtd">
<!-- Generated by graphviz version 8.1.0 (20230707.0739)
 -->
<!-- Title: callgraph Pages: 1 -->
<svg width="693pt" height="196pt"
 viewBox="0.00 0.00 692.75 196.00" xmlns="http://www.w3.org/2000/svg" xmlns:xlink="http://www.w3.org/1999/xlink">
<g id="graph0" class="graph" transform="scale(1 1) rotate(0) translate(4 192)">
<title>callgraph</title>
<polygon fill="white" stroke="none" points="-4,4 -4,-192 688.75,-192 688.75,4 -4,4"/>
<g id="clust1" class="cluster">
<title>cluster_render</title>
<polygon fill="none" stroke="#0000e0" stroke-dasharray="5,2" points="8,-8 8,-180 676.75,-180 676.75,-8 8,-8"/>
<text text-anchor="middle" x="342.38" y="-162.7" font-family="Times,serif" font-size="14.00">Render Functions</text>
</g>
<!-- expando_render -->
<g id="node1" class="node">
<title>expando_render</title>
<path fill="#e0e0ff" stroke="black" stroke-width="1.5" d="M23.42,-56.88C23.42,-56.88 136.33,-56.88 136.33,-56.88 140.04,-56.88 143.75,-60.58 143.75,-64.29 143.75,-64.29 143.75,-71.71 143.75,-71.71 143.75,-75.42 140.04,-79.12 136.33,-79.12 136.33,-79.12 23.42,-79.12 23.42,-79.12 19.71,-79.12 16,-75.42 16,-71.71 16,-71.71 16,-64.29 16,-64.29 16,-60.58 19.71,-56.88 23.42,-56.88"/>
<text text-anchor="start" x="24" y="-64.72" font-family="Times,serif" font-size="12.00">expando_render </text>
<text text-anchor="start" x="125.25" y="-64.72" font-family="Times,serif" font-size="12.00" fill="red">●</text>
</g>
<!-- format_tree -->
<g id="node3" class="node">
<title>format_tree</title>
<path fill="#e0e0ff" stroke="black" stroke-width="1.5" d="M187.17,-56.88C187.17,-56.88 259.58,-56.88 259.58,-56.88 263.29,-56.88 267,-60.58 267,-64.29 267,-64.29 267,-71.71 267,-71.71 267,-75.42 263.29,-79.12 259.58,-79.12 259.58,-79.12 187.17,-79.12 187.17,-79.12 183.46,-79.12 179.75,-75.42 179.75,-71.71 179.75,-71.71 179.75,-64.29 179.75,-64.29 179.75,-60.58 183.46,-56.88 187.17,-56.88"/>
<text text-anchor="middle" x="223.38" y="-63.73" font-family="Times,serif" font-size="12.00">format_tree</text>
</g>
<!-- expando_render&#45;&gt;format_tree -->
<g id="edge2" class="edge">
<title>expando_render&#45;&gt;format_tree</title>
<path fill="none" stroke="black" d="M143.35,-68C153.75,-68 164.39,-68 174.35,-68"/>
<polygon fill="black" stroke="black" points="174.14,-69.75 179.14,-68 174.14,-66.25 174.14,-69.75"/>
</g>
<!-- conditional_format_callback -->
<g id="node2" class="node">
<title>conditional_format_callback</title>
<path fill="#e0e0ff" stroke="black" stroke-width="1.5" d="M310.42,-16.88C310.42,-16.88 483.33,-16.88 483.33,-16.88 487.04,-16.88 490.75,-20.58 490.75,-24.29 490.75,-24.29 490.75,-31.71 490.75,-31.71 490.75,-35.42 487.04,-39.12 483.33,-39.12 483.33,-39.12 310.42,-39.12 310.42,-39.12 306.71,-39.12 303,-35.42 303,-31.71 303,-31.71 303,-24.29 303,-24.29 303,-20.58 306.71,-16.88 310.42,-16.88"/>
<text text-anchor="middle" x="396.88" y="-23.73" font-family="Times,serif" font-size="12.00">conditional_format_callback</text>
</g>
<!-- conditional_format_callback&#45;&gt;format_tree -->
<g id="edge1" class="edge">
<title>conditional_format_callback&#45;&gt;format_tree</title>
<path fill="none" stroke="black" d="M365.8,-39.12C340.08,-46.37 302.57,-55.34 272.65,-61.52"/>
<polygon fill="black" stroke="black" points="272.32,-60 267.77,-62.71 273.02,-63.43 272.32,-60"/>
</g>
<!-- format_tree&#45;&gt;conditional_format_callback -->
<g id="edge3" class="edge">
<title>format_tree&#45;&gt;conditional_format_callback</title>
<path fill="none" stroke="black" d="M254.25,-56.94C272.64,-51.74 297.1,-45.67 320.52,-40.36"/>
<polygon fill="black" stroke="black" points="320.63,-41.9 325.13,-39.1 319.87,-38.49 320.63,-41.9"/>
</g>
<!-- pad_format_callback -->
<g id="node4" class="node">
<title>pad_format_callback</title>
<path fill="#e0e0ff" stroke="black" stroke-width="1.5" d="M332.92,-107.88C332.92,-107.88 460.83,-107.88 460.83,-107.88 464.54,-107.88 468.25,-111.58 468.25,-115.29 468.25,-115.29 468.25,-122.71 468.25,-122.71 468.25,-126.42 464.54,-130.12 460.83,-130.12 460.83,-130.12 332.92,-130.12 332.92,-130.12 329.21,-130.12 325.5,-126.42 325.5,-122.71 325.5,-122.71 325.5,-115.29 325.5,-115.29 325.5,-111.58 329.21,-107.88 332.92,-107.88"/>
<text text-anchor="middle" x="396.88" y="-114.72" font-family="Times,serif" font-size="12.00">pad_format_callback</text>
</g>
<!-- format_tree&#45;&gt;pad_format_callback -->
<g id="edge4" class="edge">
<title>format_tree&#45;&gt;pad_format_callback</title>
<path fill="none" stroke="black" d="M247.31,-79.1C262.75,-86.21 283.73,-95.16 303,-101 309.89,-103.09 317.14,-104.99 324.43,-106.71"/>
<polygon fill="black" stroke="black" points="323.74,-108.57 329.01,-107.98 324.52,-105.16 323.74,-108.57"/>
</g>
<!-- text_format_callback -->
<g id="node5" class="node">
<title>text_format_callback</title>
<path fill="#e0e0ff" stroke="black" stroke-width="1.5" d="M332.92,-70.88C332.92,-70.88 460.83,-70.88 460.83,-70.88 464.54,-70.88 468.25,-74.58 468.25,-78.29 468.25,-78.29 468.25,-85.71 468.25,-85.71 468.25,-89.42 464.54,-93.12 460.83,-93.12 460.83,-93.12 332.92,-93.12 332.92,-93.12 329.21,-93.12 325.5,-89.42 325.5,-85.71 325.5,-85.71 325.5,-78.29 325.5,-78.29 325.5,-74.58 329.21,-70.88 332.92,-70.88"/>
<text text-anchor="middle" x="396.88" y="-77.72" font-family="Times,serif" font-size="12.00">text_format_callback</text>
</g>
<!-- format_tree&#45;&gt;text_format_callback -->
<g id="edge5" class="edge">
<title>format_tree&#45;&gt;text_format_callback</title>
<path fill="none" stroke="black" d="M266.77,-71.46C282.86,-72.77 301.71,-74.31 319.97,-75.8"/>
<polygon fill="black" stroke="black" points="319.48,-77.6 324.61,-76.26 319.77,-74.11 319.48,-77.6"/>
</g>
<!-- pad_format_fill_eol -->
<g id="node6" class="node">
<title>pad_format_fill_eol</title>
<path fill="#e0e0ff" stroke="black" stroke-width="1.5" d="M539.42,-86.88C539.42,-86.88 656.08,-86.88 656.08,-86.88 659.79,-86.88 663.5,-90.58 663.5,-94.29 663.5,-94.29 663.5,-101.71 663.5,-101.71 663.5,-105.42 659.79,-109.12 656.08,-109.12 656.08,-109.12 539.42,-109.12 539.42,-109.12 535.71,-109.12 532,-105.42 532,-101.71 532,-101.71 532,-94.29 532,-94.29 532,-90.58 535.71,-86.88 539.42,-86.88"/>
<text text-anchor="middle" x="597.75" y="-93.72" font-family="Times,serif" font-size="12.00">pad_format_fill_eol</text>
</g>
<!-- pad_format_callback&#45;&gt;pad_format_fill_eol -->
<g id="edge6" class="edge">
<title>pad_format_callback&#45;&gt;pad_format_fill_eol</title>
<path fill="none" stroke="black" d="M467.99,-111.6C486.94,-109.59 507.46,-107.43 526.42,-105.43"/>
<polygon fill="black" stroke="black" points="526.46,-107.08 531.25,-104.81 526.09,-103.6 526.46,-107.08"/>
</g>
<!-- pad_format_hard_fill -->
<g id="node7" class="node">
<title>pad_format_hard_fill</title>
<path fill="#e0e0ff" stroke="black" stroke-width="1.5" d="M534.17,-46.88C534.17,-46.88 661.33,-46.88 661.33,-46.88 665.04,-46.88 668.75,-50.58 668.75,-54.29 668.75,-54.29 668.75,-61.71 668.75,-61.71 668.75,-65.42 665.04,-69.12 661.33,-69.12 661.33,-69.12 534.17,-69.12 534.17,-69.12 530.46,-69.12 526.75,-65.42 526.75,-61.71 526.75,-61.71 526.75,-54.29 526.75,-54.29 526.75,-50.58 530.46,-46.88 534.17,-46.88"/>
<text text-anchor="middle" x="597.75" y="-53.73" font-family="Times,serif" font-size="12.00">pad_format_hard_fill</text>
</g>
<!-- pad_format_callback&#45;&gt;pad_format_hard_fill -->
<g id="edge7" class="edge">
<title>pad_format_callback&#45;&gt;pad_format_hard_fill</title>
<path fill="none" stroke="black" d="M468.12,-108.18C475.87,-106.16 483.55,-103.79 490.75,-101 508.23,-94.22 509.63,-86.65 526.75,-79 533.49,-75.99 540.78,-73.26 548.02,-70.85"/>
<polygon fill="black" stroke="black" points="548.33,-72.27 552.54,-69.06 547.25,-68.94 548.33,-72.27"/>
</g>
<!-- pad_format_soft_fill -->
<g id="node8" class="node">
<title>pad_format_soft_fill</title>
<path fill="#e0e0ff" stroke="black" stroke-width="1.5" d="M537.17,-123.88C537.17,-123.88 658.33,-123.88 658.33,-123.88 662.04,-123.88 665.75,-127.58 665.75,-131.29 665.75,-131.29 665.75,-138.71 665.75,-138.71 665.75,-142.42 662.04,-146.12 658.33,-146.12 658.33,-146.12 537.17,-146.12 537.17,-146.12 533.46,-146.12 529.75,-142.42 529.75,-138.71 529.75,-138.71 529.75,-131.29 529.75,-131.29 529.75,-127.58 533.46,-123.88 537.17,-123.88"/>
<text text-anchor="middle" x="597.75" y="-130.72" font-family="Times,serif" font-size="12.00">pad_format_soft_fill</text>
</g>
<!-- pad_format_callback&#45;&gt;pad_format_soft_fill -->
<g id="edge8" class="edge">
<title>pad_format_callback&#45;&gt;pad_format_soft_fill</title>
<path fill="none" stroke="black" d="M467.99,-124.64C486.23,-126.11 505.92,-127.69 524.28,-129.17"/>
<polygon fill="black" stroke="black" points="523.81,-130.97 528.94,-129.62 524.09,-127.48 523.81,-130.97"/>
</g>
<!-- pad_format_hard_fill&#45;&gt;format_tree -->
<g id="edge9" class="edge">
<title>pad_format_hard_fill&#45;&gt;format_tree</title>
<path fill="none" stroke="black" d="M526.99,-58.28C467.45,-58.73 379.57,-59.92 303,-63 293.17,-63.4 282.67,-63.96 272.64,-64.58"/>
<polygon fill="black" stroke="black" points="272.67,-62.88 267.79,-64.94 272.89,-66.38 272.67,-62.88"/>
</g>
<!-- pad_format_soft_fill&#45;&gt;format_tree -->
<g id="edge10" class="edge">
<title>pad_format_soft_fill&#45;&gt;format_tree</title>
<path fill="none" stroke="black" d="M547.8,-146.08C487.89,-157.3 384.39,-168.98 303,-138 274.43,-127.12 249.63,-100.57 235.87,-83.48"/>
<polygon fill="black" stroke="black" points="236.75,-82.77 232.28,-79.93 234,-84.94 236.75,-82.77"/>
</g>
</g>
</svg>
