<?xml version="1.0" encoding="UTF-8" standalone="no"?>
<!DOCTYPE svg PUBLIC "-//W3C//DTD SVG 1.1//EN"
 "http://www.w3.org/Graphics/SVG/1.1/DTD/svg11.dtd">
<!-- Generated by graphviz version 8.1.0 (20230707.0739)
 -->
<!-- Title: callgraph Pages: 1 -->
<svg width="774pt" height="327pt"
 viewBox="0.00 0.00 774.25 327.25" xmlns="http://www.w3.org/2000/svg" xmlns:xlink="http://www.w3.org/1999/xlink">
<g id="graph0" class="graph" transform="scale(1 1) rotate(0) translate(4 323.25)">
<title>callgraph</title>
<polygon fill="white" stroke="none" points="-4,4 -4,-323.25 770.25,-323.25 770.25,4 -4,4"/>
<!-- render_api -->
<g id="node1" class="node">
<title>render_api</title>
<path fill="#ffffc0" stroke="black" stroke-width="1.5" d="M325.17,-148.5C325.17,-148.5 411.83,-148.5 411.83,-148.5 415.54,-148.5 419.25,-152.21 419.25,-155.92 419.25,-155.92 419.25,-163.33 419.25,-163.33 419.25,-167.04 415.54,-170.75 411.83,-170.75 411.83,-170.75 325.17,-170.75 325.17,-170.75 321.46,-170.75 317.75,-167.04 317.75,-163.33 317.75,-163.33 317.75,-155.92 317.75,-155.92 317.75,-152.21 321.46,-148.5 325.17,-148.5"/>
<text text-anchor="middle" x="368.5" y="-155.35" font-family="Times,serif" font-size="12.00">Node.render()</text>
</g>
<!-- node_condition_render -->
<g id="node3" class="node">
<title>node_condition_render</title>
<path fill="#ffffff" stroke="black" stroke-width="1.5" d="M476.17,-296.5C476.17,-296.5 629.58,-296.5 629.58,-296.5 633.29,-296.5 637,-300.21 637,-303.92 637,-303.92 637,-311.33 637,-311.33 637,-315.04 633.29,-318.75 629.58,-318.75 629.58,-318.75 476.17,-318.75 476.17,-318.75 472.46,-318.75 468.75,-315.04 468.75,-311.33 468.75,-311.33 468.75,-303.92 468.75,-303.92 468.75,-300.21 472.46,-296.5 476.17,-296.5"/>
<text text-anchor="start" x="476.75" y="-304.35" font-family="Times,serif" font-size="12.00">node_condition_render </text>
<text text-anchor="start" x="618.5" y="-304.35" font-family="Times,serif" font-size="12.00" fill="red">●</text>
</g>
<!-- render_api&#45;&gt;node_condition_render -->
<g id="edge5" class="edge">
<title>render_api&#45;&gt;node_condition_render</title>
<path fill="none" stroke="black" d="M373.26,-170.51C382.66,-195.94 409.74,-259.42 455.25,-289.62 457.92,-291.39 460.71,-293 463.6,-294.46"/>
<polygon fill="black" stroke="black" points="462.62,-296.4 467.89,-296.93 464.1,-293.23 462.62,-296.4"/>
</g>
<!-- node_container_render -->
<g id="node4" class="node">
<title>node_container_render</title>
<path fill="#ffffff" stroke="black" stroke-width="1.5" d="M475.42,-259.5C475.42,-259.5 630.33,-259.5 630.33,-259.5 634.04,-259.5 637.75,-263.21 637.75,-266.92 637.75,-266.92 637.75,-274.33 637.75,-274.33 637.75,-278.04 634.04,-281.75 630.33,-281.75 630.33,-281.75 475.42,-281.75 475.42,-281.75 471.71,-281.75 468,-278.04 468,-274.33 468,-274.33 468,-266.92 468,-266.92 468,-263.21 471.71,-259.5 475.42,-259.5"/>
<text text-anchor="start" x="476" y="-267.35" font-family="Times,serif" font-size="12.00">node_container_render </text>
<text text-anchor="start" x="619.25" y="-267.35" font-family="Times,serif" font-size="12.00" fill="red">●</text>
</g>
<!-- render_api&#45;&gt;node_container_render -->
<g id="edge6" class="edge">
<title>render_api&#45;&gt;node_container_render</title>
<path fill="none" stroke="black" d="M376.18,-170.64C388.88,-190.55 418.54,-232.33 455.25,-252.62 458.48,-254.41 461.86,-256.03 465.34,-257.48"/>
<polygon fill="black" stroke="black" points="464.58,-259.46 469.87,-259.65 465.85,-256.2 464.58,-259.46"/>
</g>
<!-- node_padding_render_eol -->
<g id="node5" class="node">
<title>node_padding_render_eol</title>
<path fill="#ffffff" stroke="black" stroke-width="1.5" d="M467.92,-222.5C467.92,-222.5 637.83,-222.5 637.83,-222.5 641.54,-222.5 645.25,-226.21 645.25,-229.92 645.25,-229.92 645.25,-237.33 645.25,-237.33 645.25,-241.04 641.54,-244.75 637.83,-244.75 637.83,-244.75 467.92,-244.75 467.92,-244.75 464.21,-244.75 460.5,-241.04 460.5,-237.33 460.5,-237.33 460.5,-229.92 460.5,-229.92 460.5,-226.21 464.21,-222.5 467.92,-222.5"/>
<text text-anchor="start" x="468.5" y="-230.35" font-family="Times,serif" font-size="12.00">node_padding_render_eol </text>
<text text-anchor="start" x="626.75" y="-230.35" font-family="Times,serif" font-size="12.00" fill="red">●</text>
</g>
<!-- render_api&#45;&gt;node_padding_render_eol -->
<g id="edge8" class="edge">
<title>render_api&#45;&gt;node_padding_render_eol</title>
<path fill="none" stroke="black" d="M382.53,-170.53C398.59,-183.37 427.19,-204.38 455.25,-215.62 460.14,-217.58 465.25,-219.33 470.46,-220.89"/>
<polygon fill="black" stroke="black" points="469.86,-222.82 475.14,-222.51 470.81,-219.46 469.86,-222.82"/>
</g>
<!-- node_padding_render_hard -->
<g id="node6" class="node">
<title>node_padding_render_hard</title>
<path fill="#ffffff" stroke="black" stroke-width="1.5" d="M462.67,-185.5C462.67,-185.5 643.08,-185.5 643.08,-185.5 646.79,-185.5 650.5,-189.21 650.5,-192.92 650.5,-192.92 650.5,-200.33 650.5,-200.33 650.5,-204.04 646.79,-207.75 643.08,-207.75 643.08,-207.75 462.67,-207.75 462.67,-207.75 458.96,-207.75 455.25,-204.04 455.25,-200.33 455.25,-200.33 455.25,-192.92 455.25,-192.92 455.25,-189.21 458.96,-185.5 462.67,-185.5"/>
<text text-anchor="start" x="463.25" y="-193.35" font-family="Times,serif" font-size="12.00">node_padding_render_hard </text>
<text text-anchor="start" x="632" y="-193.35" font-family="Times,serif" font-size="12.00" fill="red">●</text>
</g>
<!-- render_api&#45;&gt;node_padding_render_hard -->
<g id="edge9" class="edge">
<title>render_api&#45;&gt;node_padding_render_hard</title>
<path fill="none" stroke="black" d="M417.96,-170.66C430.12,-173.35 443.15,-176.16 455.25,-178.62 464.75,-180.56 474.8,-182.53 484.68,-184.41"/>
<polygon fill="black" stroke="black" points="484.24,-186.3 489.48,-185.51 484.89,-182.86 484.24,-186.3"/>
</g>
<!-- node_padding_render_soft -->
<g id="node7" class="node">
<title>node_padding_render_soft</title>
<path fill="#ffffff" stroke="black" stroke-width="1.5" d="M465.67,-148.5C465.67,-148.5 640.08,-148.5 640.08,-148.5 643.79,-148.5 647.5,-152.21 647.5,-155.92 647.5,-155.92 647.5,-163.33 647.5,-163.33 647.5,-167.04 643.79,-170.75 640.08,-170.75 640.08,-170.75 465.67,-170.75 465.67,-170.75 461.96,-170.75 458.25,-167.04 458.25,-163.33 458.25,-163.33 458.25,-155.92 458.25,-155.92 458.25,-152.21 461.96,-148.5 465.67,-148.5"/>
<text text-anchor="start" x="466.25" y="-156.35" font-family="Times,serif" font-size="12.00">node_padding_render_soft </text>
<text text-anchor="start" x="629" y="-156.35" font-family="Times,serif" font-size="12.00" fill="red">●</text>
</g>
<!-- render_api&#45;&gt;node_padding_render_soft -->
<g id="edge10" class="edge">
<title>render_api&#45;&gt;node_padding_render_soft</title>
<path fill="none" stroke="black" d="M418.85,-159.62C429.46,-159.62 441.03,-159.62 452.78,-159.62"/>
<polygon fill="black" stroke="black" points="452.56,-161.38 457.56,-159.62 452.56,-157.88 452.56,-161.38"/>
</g>
<!-- node_condbool_render -->
<g id="node9" class="node">
<title>node_condbool_render</title>
<path fill="#ffffff" stroke="black" stroke-width="1.5" d="M483.67,-111.5C483.67,-111.5 622.08,-111.5 622.08,-111.5 625.79,-111.5 629.5,-115.21 629.5,-118.92 629.5,-118.92 629.5,-126.33 629.5,-126.33 629.5,-130.04 625.79,-133.75 622.08,-133.75 622.08,-133.75 483.67,-133.75 483.67,-133.75 479.96,-133.75 476.25,-130.04 476.25,-126.33 476.25,-126.33 476.25,-118.92 476.25,-118.92 476.25,-115.21 479.96,-111.5 483.67,-111.5"/>
<text text-anchor="middle" x="552.88" y="-118.35" font-family="Times,serif" font-size="12.00">node_condbool_render</text>
</g>
<!-- render_api&#45;&gt;node_condbool_render -->
<g id="edge3" class="edge">
<title>render_api&#45;&gt;node_condbool_render</title>
<path fill="none" stroke="black" d="M417.96,-148.59C430.12,-145.9 443.15,-143.09 455.25,-140.62 464.75,-138.69 474.8,-136.72 484.68,-134.84"/>
<polygon fill="black" stroke="black" points="484.89,-136.39 489.48,-133.74 484.24,-132.95 484.89,-136.39"/>
</g>
<!-- node_conddate_render -->
<g id="node10" class="node">
<title>node_conddate_render</title>
<path fill="#ffffff" stroke="black" stroke-width="1.5" d="M483.67,-74.5C483.67,-74.5 622.08,-74.5 622.08,-74.5 625.79,-74.5 629.5,-78.21 629.5,-81.92 629.5,-81.92 629.5,-89.33 629.5,-89.33 629.5,-93.04 625.79,-96.75 622.08,-96.75 622.08,-96.75 483.67,-96.75 483.67,-96.75 479.96,-96.75 476.25,-93.04 476.25,-89.33 476.25,-89.33 476.25,-81.92 476.25,-81.92 476.25,-78.21 479.96,-74.5 483.67,-74.5"/>
<text text-anchor="middle" x="552.88" y="-81.35" font-family="Times,serif" font-size="12.00">node_conddate_render</text>
</g>
<!-- render_api&#45;&gt;node_conddate_render -->
<g id="edge4" class="edge">
<title>render_api&#45;&gt;node_conddate_render</title>
<path fill="none" stroke="black" d="M382.53,-148.72C398.59,-135.88 427.19,-114.87 455.25,-103.62 460.19,-101.64 465.37,-99.88 470.64,-98.3"/>
<polygon fill="black" stroke="black" points="471.07,-99.72 475.4,-96.67 470.11,-96.35 471.07,-99.72"/>
</g>
<!-- node_expando_render -->
<g id="node11" class="node">
<title>node_expando_render</title>
<path fill="#ffffff" stroke="black" stroke-width="1.5" d="M485.92,-37.5C485.92,-37.5 619.83,-37.5 619.83,-37.5 623.54,-37.5 627.25,-41.21 627.25,-44.92 627.25,-44.92 627.25,-52.33 627.25,-52.33 627.25,-56.04 623.54,-59.75 619.83,-59.75 619.83,-59.75 485.92,-59.75 485.92,-59.75 482.21,-59.75 478.5,-56.04 478.5,-52.33 478.5,-52.33 478.5,-44.92 478.5,-44.92 478.5,-41.21 482.21,-37.5 485.92,-37.5"/>
<text text-anchor="middle" x="552.88" y="-44.35" font-family="Times,serif" font-size="12.00">node_expando_render</text>
</g>
<!-- render_api&#45;&gt;node_expando_render -->
<g id="edge7" class="edge">
<title>render_api&#45;&gt;node_expando_render</title>
<path fill="none" stroke="black" d="M376.18,-148.61C388.88,-128.7 418.54,-86.92 455.25,-66.62 460.8,-63.56 466.76,-61 472.92,-58.88"/>
<polygon fill="black" stroke="black" points="473.39,-60.24 477.62,-57.04 472.32,-56.91 473.39,-60.24"/>
</g>
<!-- node_text_render -->
<g id="node12" class="node">
<title>node_text_render</title>
<path fill="#ffffff" stroke="black" stroke-width="1.5" d="M500.17,-0.5C500.17,-0.5 605.58,-0.5 605.58,-0.5 609.29,-0.5 613,-4.21 613,-7.92 613,-7.92 613,-15.33 613,-15.33 613,-19.04 609.29,-22.75 605.58,-22.75 605.58,-22.75 500.17,-22.75 500.17,-22.75 496.46,-22.75 492.75,-19.04 492.75,-15.33 492.75,-15.33 492.75,-7.92 492.75,-7.92 492.75,-4.21 496.46,-0.5 500.17,-0.5"/>
<text text-anchor="middle" x="552.88" y="-7.35" font-family="Times,serif" font-size="12.00">node_text_render</text>
</g>
<!-- render_api&#45;&gt;node_text_render -->
<g id="edge11" class="edge">
<title>render_api&#45;&gt;node_text_render</title>
<path fill="none" stroke="black" d="M373.26,-148.74C382.66,-123.31 409.74,-59.83 455.25,-29.62 464.78,-23.3 475.94,-19.05 487.23,-16.23"/>
<polygon fill="black" stroke="black" points="487.3,-17.78 491.78,-14.96 486.51,-14.37 487.3,-17.78"/>
</g>
<!-- node_tree_render -->
<g id="node2" class="node">
<title>node_tree_render</title>
<path fill="#ffffff" stroke="black" stroke-width="1.5" d="M156.92,-148.5C156.92,-148.5 274.33,-148.5 274.33,-148.5 278.04,-148.5 281.75,-152.21 281.75,-155.92 281.75,-155.92 281.75,-163.33 281.75,-163.33 281.75,-167.04 278.04,-170.75 274.33,-170.75 274.33,-170.75 156.92,-170.75 156.92,-170.75 153.21,-170.75 149.5,-167.04 149.5,-163.33 149.5,-163.33 149.5,-155.92 149.5,-155.92 149.5,-152.21 153.21,-148.5 156.92,-148.5"/>
<text text-anchor="start" x="157.5" y="-156.35" font-family="Times,serif" font-size="12.00" fill="red">●</text>
<text text-anchor="start" x="168" y="-156.35" font-family="Times,serif" font-size="12.00">node_tree_render</text>
</g>
<!-- node_tree_render&#45;&gt;render_api -->
<g id="edge2" class="edge">
<title>node_tree_render&#45;&gt;render_api</title>
<path fill="none" stroke="black" d="M281.49,-159.62C291.77,-159.62 302.32,-159.62 312.35,-159.62"/>
<polygon fill="black" stroke="black" points="312.19,-161.38 317.19,-159.62 312.19,-157.88 312.19,-161.38"/>
</g>
<!-- pad_string -->
<g id="node14" class="node">
<title>pad_string</title>
<path fill="#ffffff" stroke="black" stroke-width="1.5" d="M693.92,-185.5C693.92,-185.5 758.83,-185.5 758.83,-185.5 762.54,-185.5 766.25,-189.21 766.25,-192.92 766.25,-192.92 766.25,-200.33 766.25,-200.33 766.25,-204.04 762.54,-207.75 758.83,-207.75 758.83,-207.75 693.92,-207.75 693.92,-207.75 690.21,-207.75 686.5,-204.04 686.5,-200.33 686.5,-200.33 686.5,-192.92 686.5,-192.92 686.5,-189.21 690.21,-185.5 693.92,-185.5"/>
<text text-anchor="middle" x="726.38" y="-192.35" font-family="Times,serif" font-size="12.00">pad_string</text>
</g>
<!-- node_padding_render_eol&#45;&gt;pad_string -->
<g id="edge13" class="edge">
<title>node_padding_render_eol&#45;&gt;pad_string</title>
<path fill="none" stroke="black" d="M616.63,-222.54C627.93,-220.37 639.58,-218.02 650.5,-215.62 660.35,-213.46 670.88,-210.93 680.84,-208.43"/>
<polygon fill="black" stroke="black" points="681.21,-209.89 685.63,-206.96 680.35,-206.49 681.21,-209.89"/>
</g>
<!-- node_padding_render_hard&#45;&gt;pad_string -->
<g id="edge14" class="edge">
<title>node_padding_render_hard&#45;&gt;pad_string</title>
<path fill="none" stroke="black" d="M650.15,-196.62C660.78,-196.62 671.18,-196.62 680.7,-196.62"/>
<polygon fill="black" stroke="black" points="680.51,-198.38 685.51,-196.62 680.51,-194.88 680.51,-198.38"/>
</g>
<!-- node_padding_render_soft&#45;&gt;pad_string -->
<g id="edge15" class="edge">
<title>node_padding_render_soft&#45;&gt;pad_string</title>
<path fill="none" stroke="black" d="M616.63,-170.71C627.93,-172.88 639.58,-175.23 650.5,-177.62 660.35,-179.79 670.88,-182.32 680.84,-184.82"/>
<polygon fill="black" stroke="black" points="680.35,-186.76 685.63,-186.29 681.21,-183.36 680.35,-186.76"/>
</g>
<!-- expando_render -->
<g id="node8" class="node">
<title>expando_render</title>
<path fill="#ffffff" stroke="black" stroke-width="1.5" d="M7.42,-148.5C7.42,-148.5 106.08,-148.5 106.08,-148.5 109.79,-148.5 113.5,-152.21 113.5,-155.92 113.5,-155.92 113.5,-163.33 113.5,-163.33 113.5,-167.04 109.79,-170.75 106.08,-170.75 106.08,-170.75 7.42,-170.75 7.42,-170.75 3.71,-170.75 0,-167.04 0,-163.33 0,-163.33 0,-155.92 0,-155.92 0,-152.21 3.71,-148.5 7.42,-148.5"/>
<text text-anchor="middle" x="56.75" y="-155.35" font-family="Times,serif" font-size="12.00">expando_render</text>
</g>
<!-- expando_render&#45;&gt;node_tree_render -->
<g id="edge1" class="edge">
<title>expando_render&#45;&gt;node_tree_render</title>
<path fill="none" stroke="black" d="M113.5,-159.62C123.29,-159.62 133.6,-159.62 143.74,-159.62"/>
<polygon fill="black" stroke="black" points="143.68,-161.38 148.68,-159.62 143.68,-157.88 143.68,-161.38"/>
</g>
<!-- add_color -->
<g id="node13" class="node">
<title>add_color</title>
<path fill="#ffffff" stroke="black" stroke-width="1.5" d="M695.79,-37.5C695.79,-37.5 756.96,-37.5 756.96,-37.5 760.67,-37.5 764.38,-41.21 764.38,-44.92 764.38,-44.92 764.38,-52.33 764.38,-52.33 764.38,-56.04 760.67,-59.75 756.96,-59.75 756.96,-59.75 695.79,-59.75 695.79,-59.75 692.08,-59.75 688.38,-56.04 688.38,-52.33 688.38,-52.33 688.38,-44.92 688.38,-44.92 688.38,-41.21 692.08,-37.5 695.79,-37.5"/>
<text text-anchor="middle" x="726.38" y="-44.35" font-family="Times,serif" font-size="12.00">add_color</text>
</g>
<!-- node_expando_render&#45;&gt;add_color -->
<g id="edge12" class="edge">
<title>node_expando_render&#45;&gt;add_color</title>
<path fill="none" stroke="black" d="M627.1,-48.62C646.24,-48.62 666.23,-48.62 683.15,-48.62"/>
<polygon fill="black" stroke="black" points="682.76,-50.38 687.76,-48.62 682.76,-46.88 682.76,-50.38"/>
</g>
</g>
</svg>
