<?xml version="1.0" encoding="UTF-8" standalone="no"?>
<!DOCTYPE svg PUBLIC "-//W3C//DTD SVG 1.1//EN"
 "http://www.w3.org/Graphics/SVG/1.1/DTD/svg11.dtd">
<!-- Generated by graphviz version 8.1.0 (20230707.0739)
 -->
<!-- Title: callgraph Pages: 1 -->
<svg width="370pt" height="382pt"
 viewBox="0.00 0.00 370.00 382.25" xmlns="http://www.w3.org/2000/svg" xmlns:xlink="http://www.w3.org/1999/xlink">
<g id="graph0" class="graph" transform="scale(1 1) rotate(0) translate(4 378.25)">
<title>callgraph</title>
<polygon fill="white" stroke="none" points="-4,4 -4,-378.25 366,-378.25 366,4 -4,4"/>
<!-- node_condbool_new -->
<g id="node1" class="node">
<title>node_condbool_new</title>
<path fill="#ffffff" stroke="black" stroke-width="1.5" d="M8.54,-185.5C8.54,-185.5 131.21,-185.5 131.21,-185.5 134.92,-185.5 138.62,-189.21 138.62,-192.92 138.62,-192.92 138.62,-200.33 138.62,-200.33 138.62,-204.04 134.92,-207.75 131.21,-207.75 131.21,-207.75 8.54,-207.75 8.54,-207.75 4.83,-207.75 1.12,-204.04 1.12,-200.33 1.12,-200.33 1.12,-192.92 1.12,-192.92 1.12,-189.21 4.83,-185.5 8.54,-185.5"/>
<text text-anchor="middle" x="69.88" y="-192.35" font-family="Times,serif" font-size="12.00">node_condbool_new</text>
</g>
<!-- node_new -->
<g id="node2" class="node">
<title>node_new</title>
<path fill="#ffffff" stroke="black" stroke-width="1.5" d="M238.29,-148.5C238.29,-148.5 299.46,-148.5 299.46,-148.5 303.17,-148.5 306.88,-152.21 306.88,-155.92 306.88,-155.92 306.88,-163.33 306.88,-163.33 306.88,-167.04 303.17,-170.75 299.46,-170.75 299.46,-170.75 238.29,-170.75 238.29,-170.75 234.58,-170.75 230.88,-167.04 230.88,-163.33 230.88,-163.33 230.88,-155.92 230.88,-155.92 230.88,-152.21 234.58,-148.5 238.29,-148.5"/>
<text text-anchor="middle" x="268.88" y="-155.35" font-family="Times,serif" font-size="12.00">node_new</text>
</g>
<!-- node_condbool_new&#45;&gt;node_new -->
<g id="edge1" class="edge">
<title>node_condbool_new&#45;&gt;node_new</title>
<path fill="none" stroke="black" d="M129.98,-185.52C160.67,-179.76 197.46,-172.85 225.32,-167.62"/>
<polygon fill="black" stroke="black" points="225.53,-169.17 230.12,-166.53 224.88,-165.73 225.53,-169.17"/>
</g>
<!-- node_conddate_new -->
<g id="node3" class="node">
<title>node_conddate_new</title>
<path fill="#ffffff" stroke="black" stroke-width="1.5" d="M8.54,-259.5C8.54,-259.5 131.21,-259.5 131.21,-259.5 134.92,-259.5 138.62,-263.21 138.62,-266.92 138.62,-266.92 138.62,-274.33 138.62,-274.33 138.62,-278.04 134.92,-281.75 131.21,-281.75 131.21,-281.75 8.54,-281.75 8.54,-281.75 4.83,-281.75 1.12,-278.04 1.12,-274.33 1.12,-274.33 1.12,-266.92 1.12,-266.92 1.12,-263.21 4.83,-259.5 8.54,-259.5"/>
<text text-anchor="middle" x="69.88" y="-266.35" font-family="Times,serif" font-size="12.00">node_conddate_new</text>
</g>
<!-- node_conddate_new&#45;&gt;node_new -->
<g id="edge4" class="edge">
<title>node_conddate_new&#45;&gt;node_new</title>
<path fill="none" stroke="black" d="M122.04,-259.55C128.13,-257.56 134.16,-255.27 139.75,-252.62 184.01,-231.69 228.71,-194.87 251.81,-174.4"/>
<polygon fill="black" stroke="black" points="252.57,-176.17 255.13,-171.53 250.24,-173.56 252.57,-176.17"/>
</g>
<!-- node_conddate_private_free -->
<g id="node4" class="node">
<title>node_conddate_private_free</title>
<path fill="#ffffff" stroke="black" stroke-width="1.5" d="M183.54,-240.5C183.54,-240.5 354.21,-240.5 354.21,-240.5 357.92,-240.5 361.62,-244.21 361.62,-247.92 361.62,-247.92 361.62,-255.33 361.62,-255.33 361.62,-259.04 357.92,-262.75 354.21,-262.75 354.21,-262.75 183.54,-262.75 183.54,-262.75 179.83,-262.75 176.12,-259.04 176.12,-255.33 176.12,-255.33 176.12,-247.92 176.12,-247.92 176.12,-244.21 179.83,-240.5 183.54,-240.5"/>
<text text-anchor="middle" x="268.88" y="-247.35" font-family="Times,serif" font-size="12.00">node_conddate_private_free</text>
</g>
<!-- node_conddate_new&#45;&gt;node_conddate_private_free -->
<g id="edge2" class="edge">
<title>node_conddate_new&#45;&gt;node_conddate_private_free</title>
<path fill="none" stroke="black" d="M138.4,-264.11C148.83,-263.11 159.78,-262.05 170.71,-261"/>
<polygon fill="black" stroke="black" points="170.61,-262.67 175.42,-260.45 170.27,-259.18 170.61,-262.67"/>
</g>
<!-- node_conddate_private_new -->
<g id="node5" class="node">
<title>node_conddate_private_new</title>
<path fill="#ffffff" stroke="black" stroke-width="1.5" d="M183.17,-277.5C183.17,-277.5 354.58,-277.5 354.58,-277.5 358.29,-277.5 362,-281.21 362,-284.92 362,-284.92 362,-292.33 362,-292.33 362,-296.04 358.29,-299.75 354.58,-299.75 354.58,-299.75 183.17,-299.75 183.17,-299.75 179.46,-299.75 175.75,-296.04 175.75,-292.33 175.75,-292.33 175.75,-284.92 175.75,-284.92 175.75,-281.21 179.46,-277.5 183.17,-277.5"/>
<text text-anchor="middle" x="268.88" y="-284.35" font-family="Times,serif" font-size="12.00">node_conddate_private_new</text>
</g>
<!-- node_conddate_new&#45;&gt;node_conddate_private_new -->
<g id="edge3" class="edge">
<title>node_conddate_new&#45;&gt;node_conddate_private_new</title>
<path fill="none" stroke="black" d="M138.4,-276.79C148.64,-277.73 159.38,-278.71 170.11,-279.69"/>
<polygon fill="black" stroke="black" points="169.93,-281.52 175.07,-280.24 170.25,-278.04 169.93,-281.52"/>
</g>
<!-- node_condition_new -->
<g id="node6" class="node">
<title>node_condition_new</title>
<path fill="#ffffff" stroke="black" stroke-width="1.5" d="M8.17,-148.5C8.17,-148.5 131.58,-148.5 131.58,-148.5 135.29,-148.5 139,-152.21 139,-155.92 139,-155.92 139,-163.33 139,-163.33 139,-167.04 135.29,-170.75 131.58,-170.75 131.58,-170.75 8.17,-170.75 8.17,-170.75 4.46,-170.75 0.75,-167.04 0.75,-163.33 0.75,-163.33 0.75,-155.92 0.75,-155.92 0.75,-152.21 4.46,-148.5 8.17,-148.5"/>
<text text-anchor="middle" x="69.88" y="-155.35" font-family="Times,serif" font-size="12.00">node_condition_new</text>
</g>
<!-- node_condition_new&#45;&gt;node_new -->
<g id="edge5" class="edge">
<title>node_condition_new&#45;&gt;node_new</title>
<path fill="none" stroke="black" d="M138.95,-159.62C167.57,-159.62 199.99,-159.62 225.17,-159.62"/>
<polygon fill="black" stroke="black" points="225.07,-161.38 230.07,-159.62 225.07,-157.88 225.07,-161.38"/>
</g>
<!-- node_container_new -->
<g id="node7" class="node">
<title>node_container_new</title>
<path fill="#ffffff" stroke="black" stroke-width="1.5" d="M7.42,-111.5C7.42,-111.5 132.33,-111.5 132.33,-111.5 136.04,-111.5 139.75,-115.21 139.75,-118.92 139.75,-118.92 139.75,-126.33 139.75,-126.33 139.75,-130.04 136.04,-133.75 132.33,-133.75 132.33,-133.75 7.42,-133.75 7.42,-133.75 3.71,-133.75 0,-130.04 0,-126.33 0,-126.33 0,-118.92 0,-118.92 0,-115.21 3.71,-111.5 7.42,-111.5"/>
<text text-anchor="middle" x="69.88" y="-118.35" font-family="Times,serif" font-size="12.00">node_container_new</text>
</g>
<!-- node_container_new&#45;&gt;node_new -->
<g id="edge6" class="edge">
<title>node_container_new&#45;&gt;node_new</title>
<path fill="none" stroke="black" d="M129.98,-133.73C160.67,-139.49 197.46,-146.4 225.32,-151.63"/>
<polygon fill="black" stroke="black" points="224.88,-153.52 230.12,-152.72 225.53,-150.08 224.88,-153.52"/>
</g>
<!-- node_expando_new -->
<g id="node8" class="node">
<title>node_expando_new</title>
<path fill="#ffffff" stroke="black" stroke-width="1.5" d="M10.79,-74.5C10.79,-74.5 128.96,-74.5 128.96,-74.5 132.67,-74.5 136.38,-78.21 136.38,-81.92 136.38,-81.92 136.38,-89.33 136.38,-89.33 136.38,-93.04 132.67,-96.75 128.96,-96.75 128.96,-96.75 10.79,-96.75 10.79,-96.75 7.08,-96.75 3.38,-93.04 3.38,-89.33 3.38,-89.33 3.38,-81.92 3.38,-81.92 3.38,-78.21 7.08,-74.5 10.79,-74.5"/>
<text text-anchor="middle" x="69.88" y="-81.35" font-family="Times,serif" font-size="12.00">node_expando_new</text>
</g>
<!-- node_expando_new&#45;&gt;node_new -->
<g id="edge9" class="edge">
<title>node_expando_new&#45;&gt;node_new</title>
<path fill="none" stroke="black" d="M125.07,-96.65C130.19,-98.62 135.18,-100.92 139.75,-103.62 159.78,-115.47 155.36,-130.42 175.75,-141.62 190.76,-149.88 208.97,-154.39 225.22,-156.84"/>
<polygon fill="black" stroke="black" points="224.92,-158.7 230.12,-157.65 225.4,-155.23 224.92,-158.7"/>
</g>
<!-- node_expando_private_free -->
<g id="node9" class="node">
<title>node_expando_private_free</title>
<path fill="#ffffff" stroke="black" stroke-width="1.5" d="M185.79,-74.5C185.79,-74.5 351.96,-74.5 351.96,-74.5 355.67,-74.5 359.38,-78.21 359.38,-81.92 359.38,-81.92 359.38,-89.33 359.38,-89.33 359.38,-93.04 355.67,-96.75 351.96,-96.75 351.96,-96.75 185.79,-96.75 185.79,-96.75 182.08,-96.75 178.38,-93.04 178.38,-89.33 178.38,-89.33 178.38,-81.92 178.38,-81.92 178.38,-78.21 182.08,-74.5 185.79,-74.5"/>
<text text-anchor="middle" x="268.88" y="-81.35" font-family="Times,serif" font-size="12.00">node_expando_private_free</text>
</g>
<!-- node_expando_new&#45;&gt;node_expando_private_free -->
<g id="edge7" class="edge">
<title>node_expando_new&#45;&gt;node_expando_private_free</title>
<path fill="none" stroke="black" d="M136.2,-85.62C147.95,-85.62 160.42,-85.62 172.81,-85.62"/>
<polygon fill="black" stroke="black" points="172.5,-87.38 177.5,-85.62 172.5,-83.88 172.5,-87.38"/>
</g>
<!-- node_expando_private_new -->
<g id="node10" class="node">
<title>node_expando_private_new</title>
<path fill="#ffffff" stroke="black" stroke-width="1.5" d="M185.42,-111.5C185.42,-111.5 352.33,-111.5 352.33,-111.5 356.04,-111.5 359.75,-115.21 359.75,-118.92 359.75,-118.92 359.75,-126.33 359.75,-126.33 359.75,-130.04 356.04,-133.75 352.33,-133.75 352.33,-133.75 185.42,-133.75 185.42,-133.75 181.71,-133.75 178,-130.04 178,-126.33 178,-126.33 178,-118.92 178,-118.92 178,-115.21 181.71,-111.5 185.42,-111.5"/>
<text text-anchor="middle" x="268.88" y="-118.35" font-family="Times,serif" font-size="12.00">node_expando_private_new</text>
</g>
<!-- node_expando_new&#45;&gt;node_expando_private_new -->
<g id="edge8" class="edge">
<title>node_expando_new&#45;&gt;node_expando_private_new</title>
<path fill="none" stroke="black" d="M129.98,-96.73C153.06,-101.06 179.6,-106.05 203.2,-110.48"/>
<polygon fill="black" stroke="black" points="202.57,-112.33 207.81,-111.53 203.22,-108.89 202.57,-112.33"/>
</g>
<!-- node_free -->
<g id="node11" class="node">
<title>node_free</title>
<path fill="#ffffff" stroke="black" stroke-width="1.5" d="M39.67,-351.5C39.67,-351.5 100.08,-351.5 100.08,-351.5 103.79,-351.5 107.5,-355.21 107.5,-358.92 107.5,-358.92 107.5,-366.33 107.5,-366.33 107.5,-370.04 103.79,-373.75 100.08,-373.75 100.08,-373.75 39.67,-373.75 39.67,-373.75 35.96,-373.75 32.25,-370.04 32.25,-366.33 32.25,-366.33 32.25,-358.92 32.25,-358.92 32.25,-355.21 35.96,-351.5 39.67,-351.5"/>
<text text-anchor="middle" x="69.88" y="-358.35" font-family="Times,serif" font-size="12.00">node_free</text>
</g>
<!-- node_tree_free -->
<g id="node12" class="node">
<title>node_tree_free</title>
<path fill="#ffffff" stroke="black" stroke-width="1.5" d="M223.67,-351.5C223.67,-351.5 314.08,-351.5 314.08,-351.5 317.79,-351.5 321.5,-355.21 321.5,-358.92 321.5,-358.92 321.5,-366.33 321.5,-366.33 321.5,-370.04 317.79,-373.75 314.08,-373.75 314.08,-373.75 223.67,-373.75 223.67,-373.75 219.96,-373.75 216.25,-370.04 216.25,-366.33 216.25,-366.33 216.25,-358.92 216.25,-358.92 216.25,-355.21 219.96,-351.5 223.67,-351.5"/>
<text text-anchor="middle" x="268.88" y="-358.35" font-family="Times,serif" font-size="12.00">node_tree_free</text>
</g>
<!-- node_free&#45;&gt;node_tree_free -->
<g id="edge10" class="edge">
<title>node_free&#45;&gt;node_tree_free</title>
<path fill="none" stroke="black" d="M107.47,-358.43C136.39,-357.28 177.3,-357.07 210.56,-357.81"/>
<polygon fill="black" stroke="black" points="210.21,-359.57 215.25,-357.94 210.3,-356.07 210.21,-359.57"/>
</g>
<!-- node_tree_free&#45;&gt;node_free -->
<g id="edge17" class="edge">
<title>node_tree_free&#45;&gt;node_free</title>
<path fill="none" stroke="black" d="M216.25,-367.31C184.21,-368.15 143.53,-368.06 113.36,-367.03"/>
<polygon fill="black" stroke="black" points="113.53,-365.25 108.47,-366.82 113.4,-368.75 113.53,-365.25"/>
</g>
<!-- node_padding_new -->
<g id="node13" class="node">
<title>node_padding_new</title>
<path fill="#ffffff" stroke="black" stroke-width="1.5" d="M11.92,-37.5C11.92,-37.5 127.83,-37.5 127.83,-37.5 131.54,-37.5 135.25,-41.21 135.25,-44.92 135.25,-44.92 135.25,-52.33 135.25,-52.33 135.25,-56.04 131.54,-59.75 127.83,-59.75 127.83,-59.75 11.92,-59.75 11.92,-59.75 8.21,-59.75 4.5,-56.04 4.5,-52.33 4.5,-52.33 4.5,-44.92 4.5,-44.92 4.5,-41.21 8.21,-37.5 11.92,-37.5"/>
<text text-anchor="middle" x="69.88" y="-44.35" font-family="Times,serif" font-size="12.00">node_padding_new</text>
</g>
<!-- node_padding_new&#45;&gt;node_new -->
<g id="edge11" class="edge">
<title>node_padding_new&#45;&gt;node_new</title>
<path fill="none" stroke="black" d="M129.11,-59.73C132.91,-61.67 136.51,-63.95 139.75,-66.62 168.28,-90.14 146.5,-119.01 175.75,-141.62 189.77,-152.46 208.49,-157.34 225.4,-159.37"/>
<polygon fill="black" stroke="black" points="224.9,-161.18 230.05,-159.95 225.26,-157.7 224.9,-161.18"/>
</g>
<!-- node_padding_private_free -->
<g id="node14" class="node">
<title>node_padding_private_free</title>
<path fill="#ffffff" stroke="black" stroke-width="1.5" d="M186.92,-0.5C186.92,-0.5 350.83,-0.5 350.83,-0.5 354.54,-0.5 358.25,-4.21 358.25,-7.92 358.25,-7.92 358.25,-15.33 358.25,-15.33 358.25,-19.04 354.54,-22.75 350.83,-22.75 350.83,-22.75 186.92,-22.75 186.92,-22.75 183.21,-22.75 179.5,-19.04 179.5,-15.33 179.5,-15.33 179.5,-7.92 179.5,-7.92 179.5,-4.21 183.21,-0.5 186.92,-0.5"/>
<text text-anchor="middle" x="268.88" y="-7.35" font-family="Times,serif" font-size="12.00">node_padding_private_free</text>
</g>
<!-- node_padding_new&#45;&gt;node_padding_private_free -->
<g id="edge12" class="edge">
<title>node_padding_new&#45;&gt;node_padding_private_free</title>
<path fill="none" stroke="black" d="M129.98,-37.52C153.06,-33.19 179.6,-28.2 203.2,-23.77"/>
<polygon fill="black" stroke="black" points="203.22,-25.36 207.81,-22.72 202.57,-21.92 203.22,-25.36"/>
</g>
<!-- node_padding_private_new -->
<g id="node15" class="node">
<title>node_padding_private_new</title>
<path fill="#ffffff" stroke="black" stroke-width="1.5" d="M186.54,-37.5C186.54,-37.5 351.21,-37.5 351.21,-37.5 354.92,-37.5 358.62,-41.21 358.62,-44.92 358.62,-44.92 358.62,-52.33 358.62,-52.33 358.62,-56.04 354.92,-59.75 351.21,-59.75 351.21,-59.75 186.54,-59.75 186.54,-59.75 182.83,-59.75 179.12,-56.04 179.12,-52.33 179.12,-52.33 179.12,-44.92 179.12,-44.92 179.12,-41.21 182.83,-37.5 186.54,-37.5"/>
<text text-anchor="middle" x="268.88" y="-44.35" font-family="Times,serif" font-size="12.00">node_padding_private_new</text>
</g>
<!-- node_padding_new&#45;&gt;node_padding_private_new -->
<g id="edge13" class="edge">
<title>node_padding_new&#45;&gt;node_padding_private_new</title>
<path fill="none" stroke="black" d="M135.11,-48.62C147.38,-48.62 160.45,-48.62 173.44,-48.62"/>
<polygon fill="black" stroke="black" points="173.4,-50.38 178.4,-48.62 173.4,-46.88 173.4,-50.38"/>
</g>
<!-- node_set_child -->
<g id="node16" class="node">
<title>node_set_child</title>
<path fill="#ffffff" stroke="black" stroke-width="1.5" d="M25.42,-314.5C25.42,-314.5 114.33,-314.5 114.33,-314.5 118.04,-314.5 121.75,-318.21 121.75,-321.92 121.75,-321.92 121.75,-329.33 121.75,-329.33 121.75,-333.04 118.04,-336.75 114.33,-336.75 114.33,-336.75 25.42,-336.75 25.42,-336.75 21.71,-336.75 18,-333.04 18,-329.33 18,-329.33 18,-321.92 18,-321.92 18,-318.21 21.71,-314.5 25.42,-314.5"/>
<text text-anchor="middle" x="69.88" y="-321.35" font-family="Times,serif" font-size="12.00">node_set_child</text>
</g>
<!-- node_set_child&#45;&gt;node_tree_free -->
<g id="edge15" class="edge">
<title>node_set_child&#45;&gt;node_tree_free</title>
<path fill="none" stroke="black" d="M121.61,-335.15C148.86,-340.27 182.55,-346.6 210.73,-351.89"/>
<polygon fill="black" stroke="black" points="210.05,-353.73 215.29,-352.94 210.7,-350.29 210.05,-353.73"/>
</g>
<!-- node_get_child -->
<g id="node17" class="node">
<title>node_get_child</title>
<path fill="#ffffff" stroke="black" stroke-width="1.5" d="M223.67,-314.5C223.67,-314.5 314.08,-314.5 314.08,-314.5 317.79,-314.5 321.5,-318.21 321.5,-321.92 321.5,-321.92 321.5,-329.33 321.5,-329.33 321.5,-333.04 317.79,-336.75 314.08,-336.75 314.08,-336.75 223.67,-336.75 223.67,-336.75 219.96,-336.75 216.25,-333.04 216.25,-329.33 216.25,-329.33 216.25,-321.92 216.25,-321.92 216.25,-318.21 219.96,-314.5 223.67,-314.5"/>
<text text-anchor="middle" x="268.88" y="-321.35" font-family="Times,serif" font-size="12.00">node_get_child</text>
</g>
<!-- node_set_child&#45;&gt;node_get_child -->
<g id="edge14" class="edge">
<title>node_set_child&#45;&gt;node_get_child</title>
<path fill="none" stroke="black" d="M121.61,-325.62C148.75,-325.62 182.27,-325.62 210.38,-325.62"/>
<polygon fill="black" stroke="black" points="210.29,-327.38 215.29,-325.62 210.29,-323.88 210.29,-327.38"/>
</g>
<!-- node_text_new -->
<g id="node18" class="node">
<title>node_text_new</title>
<path fill="#ffffff" stroke="black" stroke-width="1.5" d="M25.04,-222.5C25.04,-222.5 114.71,-222.5 114.71,-222.5 118.42,-222.5 122.12,-226.21 122.12,-229.92 122.12,-229.92 122.12,-237.33 122.12,-237.33 122.12,-241.04 118.42,-244.75 114.71,-244.75 114.71,-244.75 25.04,-244.75 25.04,-244.75 21.33,-244.75 17.62,-241.04 17.62,-237.33 17.62,-237.33 17.62,-229.92 17.62,-229.92 17.62,-226.21 21.33,-222.5 25.04,-222.5"/>
<text text-anchor="middle" x="69.88" y="-229.35" font-family="Times,serif" font-size="12.00">node_text_new</text>
</g>
<!-- node_text_new&#45;&gt;node_new -->
<g id="edge16" class="edge">
<title>node_text_new&#45;&gt;node_new</title>
<path fill="none" stroke="black" d="M117.48,-222.5C124.99,-220.41 132.63,-218.1 139.75,-215.62 175.29,-203.3 214.76,-185.37 240.37,-173.15"/>
<polygon fill="black" stroke="black" points="240.87,-174.37 244.62,-170.63 239.35,-171.21 240.87,-174.37"/>
</g>
</g>
</svg>
