<?xml version="1.0" encoding="UTF-8" standalone="no"?>
<!DOCTYPE svg PUBLIC "-//W3C//DTD SVG 1.1//EN"
 "http://www.w3.org/Graphics/SVG/1.1/DTD/svg11.dtd">
<!-- Generated by graphviz version 8.1.0 (20230707.0739)
 -->
<!-- Title: callgraph Pages: 1 -->
<svg width="1328pt" height="393pt"
 viewBox="0.00 0.00 1328.25 393.25" xmlns="http://www.w3.org/2000/svg" xmlns:xlink="http://www.w3.org/1999/xlink">
<g id="graph0" class="graph" transform="scale(1 1) rotate(0) translate(4 389.25)">
<title>callgraph</title>
<polygon fill="white" stroke="none" points="-4,4 -4,-389.25 1324.25,-389.25 1324.25,4 -4,4"/>
<!-- expando_parse -->
<g id="node1" class="node">
<title>expando_parse</title>
<path fill="#ffffff" stroke="black" stroke-width="1.5" d="M7.42,-325.5C7.42,-325.5 113.58,-325.5 113.58,-325.5 117.29,-325.5 121,-329.21 121,-332.92 121,-332.92 121,-340.33 121,-340.33 121,-344.04 117.29,-347.75 113.58,-347.75 113.58,-347.75 7.42,-347.75 7.42,-347.75 3.71,-347.75 0,-344.04 0,-340.33 0,-340.33 0,-332.92 0,-332.92 0,-329.21 3.71,-325.5 7.42,-325.5"/>
<text text-anchor="start" x="8" y="-333.35" font-family="Times,serif" font-size="12.00">expando_parse </text>
<text text-anchor="start" x="102.5" y="-333.35" font-family="Times,serif" font-size="12.00" fill="red">●</text>
</g>
<!-- expando_free -->
<g id="node3" class="node">
<title>expando_free</title>
<path fill="#ffe0ff" stroke="black" stroke-width="1.5" d="M177.17,-362.5C177.17,-362.5 273.58,-362.5 273.58,-362.5 277.29,-362.5 281,-366.21 281,-369.92 281,-369.92 281,-377.33 281,-377.33 281,-381.04 277.29,-384.75 273.58,-384.75 273.58,-384.75 177.17,-384.75 177.17,-384.75 173.46,-384.75 169.75,-381.04 169.75,-377.33 169.75,-377.33 169.75,-369.92 169.75,-369.92 169.75,-366.21 173.46,-362.5 177.17,-362.5"/>
<text text-anchor="start" x="177.75" y="-370.35" font-family="Times,serif" font-size="12.00">expando_free </text>
<text text-anchor="start" x="262.5" y="-370.35" font-family="Times,serif" font-size="12.00" fill="red">●</text>
</g>
<!-- expando_parse&#45;&gt;expando_free -->
<g id="edge2" class="edge">
<title>expando_parse&#45;&gt;expando_free</title>
<path fill="none" stroke="black" d="M110.37,-347.73C129.21,-352.01 150.84,-356.92 170.16,-361.31"/>
<polygon fill="black" stroke="black" points="169.28,-363.13 174.54,-362.53 170.05,-359.72 169.28,-363.13"/>
</g>
<!-- expando_new -->
<g id="node9" class="node">
<title>expando_new</title>
<path fill="#ffffe0" stroke="black" stroke-width="1.5" d="M183.92,-325.5C183.92,-325.5 266.83,-325.5 266.83,-325.5 270.54,-325.5 274.25,-329.21 274.25,-332.92 274.25,-332.92 274.25,-340.33 274.25,-340.33 274.25,-344.04 270.54,-347.75 266.83,-347.75 266.83,-347.75 183.92,-347.75 183.92,-347.75 180.21,-347.75 176.5,-344.04 176.5,-340.33 176.5,-340.33 176.5,-332.92 176.5,-332.92 176.5,-329.21 180.21,-325.5 183.92,-325.5"/>
<text text-anchor="middle" x="225.38" y="-332.35" font-family="Times,serif" font-size="12.00">expando_new</text>
</g>
<!-- expando_parse&#45;&gt;expando_new -->
<g id="edge3" class="edge">
<title>expando_parse&#45;&gt;expando_new</title>
<path fill="none" stroke="black" d="M120.76,-336.62C137.13,-336.62 154.78,-336.62 170.8,-336.62"/>
<polygon fill="black" stroke="black" points="170.63,-338.38 175.63,-336.62 170.63,-334.88 170.63,-338.38"/>
</g>
<!-- expando_tree_parse -->
<g id="node15" class="node">
<title>expando_tree_parse</title>
<path fill="#ffffff" stroke="black" stroke-width="1.5" d="M164.42,-288.5C164.42,-288.5 286.33,-288.5 286.33,-288.5 290.04,-288.5 293.75,-292.21 293.75,-295.92 293.75,-295.92 293.75,-303.33 293.75,-303.33 293.75,-307.04 290.04,-310.75 286.33,-310.75 286.33,-310.75 164.42,-310.75 164.42,-310.75 160.71,-310.75 157,-307.04 157,-303.33 157,-303.33 157,-295.92 157,-295.92 157,-292.21 160.71,-288.5 164.42,-288.5"/>
<text text-anchor="middle" x="225.38" y="-295.35" font-family="Times,serif" font-size="12.00">expando_tree_parse</text>
</g>
<!-- expando_parse&#45;&gt;expando_tree_parse -->
<g id="edge4" class="edge">
<title>expando_parse&#45;&gt;expando_tree_parse</title>
<path fill="none" stroke="black" d="M110.37,-325.52C129.21,-321.24 150.84,-316.33 170.16,-311.94"/>
<polygon fill="black" stroke="black" points="170.05,-313.53 174.54,-310.72 169.28,-310.12 170.05,-313.53"/>
</g>
<!-- expando_parse_enclosed_text -->
<g id="node2" class="node">
<title>expando_parse_enclosed_text</title>
<path fill="#ffffff" stroke="black" stroke-width="1.5" d="M337.17,-19.5C337.17,-19.5 530.33,-19.5 530.33,-19.5 534.04,-19.5 537.75,-23.21 537.75,-26.92 537.75,-26.92 537.75,-34.33 537.75,-34.33 537.75,-38.04 534.04,-41.75 530.33,-41.75 530.33,-41.75 337.17,-41.75 337.17,-41.75 333.46,-41.75 329.75,-38.04 329.75,-34.33 329.75,-34.33 329.75,-26.92 329.75,-26.92 329.75,-23.21 333.46,-19.5 337.17,-19.5"/>
<text text-anchor="start" x="337.75" y="-27.35" font-family="Times,serif" font-size="12.00">expando_parse_enclosed_text </text>
<text text-anchor="start" x="519.25" y="-27.35" font-family="Times,serif" font-size="12.00" fill="red">●</text>
</g>
<!-- new_text_node -->
<g id="node14" class="node">
<title>new_text_node</title>
<path fill="#ffffe0" stroke="black" stroke-width="1.5" d="M606.67,-37.5C606.67,-37.5 696.33,-37.5 696.33,-37.5 700.04,-37.5 703.75,-41.21 703.75,-44.92 703.75,-44.92 703.75,-52.33 703.75,-52.33 703.75,-56.04 700.04,-59.75 696.33,-59.75 696.33,-59.75 606.67,-59.75 606.67,-59.75 602.96,-59.75 599.25,-56.04 599.25,-52.33 599.25,-52.33 599.25,-44.92 599.25,-44.92 599.25,-41.21 602.96,-37.5 606.67,-37.5"/>
<text text-anchor="middle" x="651.5" y="-44.35" font-family="Times,serif" font-size="12.00">new_text_node</text>
</g>
<!-- expando_parse_enclosed_text&#45;&gt;new_text_node -->
<g id="edge5" class="edge">
<title>expando_parse_enclosed_text&#45;&gt;new_text_node</title>
<path fill="none" stroke="black" d="M537.57,-39.2C556.88,-40.81 576.4,-42.44 593.66,-43.88"/>
<polygon fill="black" stroke="black" points="593.29,-45.69 598.42,-44.36 593.58,-42.2 593.29,-45.69"/>
</g>
<!-- skip_until_ch -->
<g id="node16" class="node">
<title>skip_until_ch</title>
<path fill="#ffffff" stroke="black" stroke-width="1.5" d="M611.92,-0.5C611.92,-0.5 691.08,-0.5 691.08,-0.5 694.79,-0.5 698.5,-4.21 698.5,-7.92 698.5,-7.92 698.5,-15.33 698.5,-15.33 698.5,-19.04 694.79,-22.75 691.08,-22.75 691.08,-22.75 611.92,-22.75 611.92,-22.75 608.21,-22.75 604.5,-19.04 604.5,-15.33 604.5,-15.33 604.5,-7.92 604.5,-7.92 604.5,-4.21 608.21,-0.5 611.92,-0.5"/>
<text text-anchor="middle" x="651.5" y="-7.35" font-family="Times,serif" font-size="12.00">skip_until_ch</text>
</g>
<!-- expando_parse_enclosed_text&#45;&gt;skip_until_ch -->
<g id="edge6" class="edge">
<title>expando_parse_enclosed_text&#45;&gt;skip_until_ch</title>
<path fill="none" stroke="black" d="M537.57,-21.57C558.91,-19.69 580.52,-17.79 599.04,-16.16"/>
<polygon fill="black" stroke="black" points="598.86,-17.84 603.69,-15.66 598.55,-14.35 598.86,-17.84"/>
</g>
<!-- expando_tree_free -->
<g id="node4" class="node">
<title>expando_tree_free</title>
<path fill="#ffe0ff" stroke="black" stroke-width="1.5" d="M377.67,-362.5C377.67,-362.5 489.83,-362.5 489.83,-362.5 493.54,-362.5 497.25,-366.21 497.25,-369.92 497.25,-369.92 497.25,-377.33 497.25,-377.33 497.25,-381.04 493.54,-384.75 489.83,-384.75 489.83,-384.75 377.67,-384.75 377.67,-384.75 373.96,-384.75 370.25,-381.04 370.25,-377.33 370.25,-377.33 370.25,-369.92 370.25,-369.92 370.25,-366.21 373.96,-362.5 377.67,-362.5"/>
<text text-anchor="middle" x="433.75" y="-369.35" font-family="Times,serif" font-size="12.00">expando_tree_free</text>
</g>
<!-- expando_free&#45;&gt;expando_tree_free -->
<g id="edge1" class="edge">
<title>expando_free&#45;&gt;expando_tree_free</title>
<path fill="none" stroke="black" d="M280.87,-373.62C306.51,-373.62 337.36,-373.62 364.54,-373.62"/>
<polygon fill="black" stroke="black" points="364.28,-375.38 369.28,-373.62 364.28,-371.88 364.28,-375.38"/>
</g>
<!-- free_tree -->
<g id="node8" class="node">
<title>free_tree</title>
<path fill="#ffe0ff" stroke="black" stroke-width="1.5" d="M1099.17,-346.5C1099.17,-346.5 1154.33,-346.5 1154.33,-346.5 1158.04,-346.5 1161.75,-350.21 1161.75,-353.92 1161.75,-353.92 1161.75,-361.33 1161.75,-361.33 1161.75,-365.04 1158.04,-368.75 1154.33,-368.75 1154.33,-368.75 1099.17,-368.75 1099.17,-368.75 1095.46,-368.75 1091.75,-365.04 1091.75,-361.33 1091.75,-361.33 1091.75,-353.92 1091.75,-353.92 1091.75,-350.21 1095.46,-346.5 1099.17,-346.5"/>
<text text-anchor="middle" x="1126.75" y="-353.35" font-family="Times,serif" font-size="12.00">free_tree</text>
</g>
<!-- expando_tree_free&#45;&gt;free_tree -->
<g id="edge7" class="edge">
<title>expando_tree_free&#45;&gt;free_tree</title>
<path fill="none" stroke="black" d="M496.98,-372.18C636.47,-368.95 970.92,-361.21 1086.03,-358.54"/>
<polygon fill="black" stroke="black" points="1086.04,-360.27 1091,-358.41 1085.96,-356.77 1086.04,-360.27"/>
</g>
<!-- free_expando_private -->
<g id="node5" class="node">
<title>free_expando_private</title>
<path fill="#ffe0ff" stroke="black" stroke-width="1.5" d="M1061.29,-240.5C1061.29,-240.5 1192.21,-240.5 1192.21,-240.5 1195.92,-240.5 1199.62,-244.21 1199.62,-247.92 1199.62,-247.92 1199.62,-255.33 1199.62,-255.33 1199.62,-259.04 1195.92,-262.75 1192.21,-262.75 1192.21,-262.75 1061.29,-262.75 1061.29,-262.75 1057.58,-262.75 1053.88,-259.04 1053.88,-255.33 1053.88,-255.33 1053.88,-247.92 1053.88,-247.92 1053.88,-244.21 1057.58,-240.5 1061.29,-240.5"/>
<text text-anchor="middle" x="1126.75" y="-247.35" font-family="Times,serif" font-size="12.00">free_expando_private</text>
</g>
<!-- free_expando_private_condition_node -->
<g id="node6" class="node">
<title>free_expando_private_condition_node</title>
<path fill="#ffe0ff" stroke="black" stroke-width="1.5" d="M772.67,-312.5C772.67,-312.5 1001.08,-312.5 1001.08,-312.5 1004.79,-312.5 1008.5,-316.21 1008.5,-319.92 1008.5,-319.92 1008.5,-327.33 1008.5,-327.33 1008.5,-331.04 1004.79,-334.75 1001.08,-334.75 1001.08,-334.75 772.67,-334.75 772.67,-334.75 768.96,-334.75 765.25,-331.04 765.25,-327.33 765.25,-327.33 765.25,-319.92 765.25,-319.92 765.25,-316.21 768.96,-312.5 772.67,-312.5"/>
<text text-anchor="middle" x="886.88" y="-319.35" font-family="Times,serif" font-size="12.00">free_expando_private_condition_node</text>
</g>
<!-- free_node -->
<g id="node7" class="node">
<title>free_node</title>
<path fill="#ffe0ff" stroke="black" stroke-width="1.5" d="M1252.42,-329.5C1252.42,-329.5 1312.83,-329.5 1312.83,-329.5 1316.54,-329.5 1320.25,-333.21 1320.25,-336.92 1320.25,-336.92 1320.25,-344.33 1320.25,-344.33 1320.25,-348.04 1316.54,-351.75 1312.83,-351.75 1312.83,-351.75 1252.42,-351.75 1252.42,-351.75 1248.71,-351.75 1245,-348.04 1245,-344.33 1245,-344.33 1245,-336.92 1245,-336.92 1245,-333.21 1248.71,-329.5 1252.42,-329.5"/>
<text text-anchor="middle" x="1282.62" y="-336.35" font-family="Times,serif" font-size="12.00">free_node</text>
</g>
<!-- free_expando_private_condition_node&#45;&gt;free_node -->
<g id="edge11" class="edge">
<title>free_expando_private_condition_node&#45;&gt;free_node</title>
<path fill="none" stroke="black" d="M1008.42,-328.83C1086.96,-332.22 1184.67,-336.44 1239.4,-338.8"/>
<polygon fill="black" stroke="black" points="1239.14,-340.59 1244.21,-339.05 1239.29,-337.09 1239.14,-340.59"/>
</g>
<!-- free_expando_private_condition_node&#45;&gt;free_tree -->
<g id="edge12" class="edge">
<title>free_expando_private_condition_node&#45;&gt;free_tree</title>
<path fill="none" stroke="black" d="M965.44,-334.71C1005.81,-340.48 1053.44,-347.29 1086.24,-351.98"/>
<polygon fill="black" stroke="black" points="1085.58,-353.79 1090.78,-352.77 1086.08,-350.33 1085.58,-353.79"/>
</g>
<!-- free_tree&#45;&gt;free_node -->
<g id="edge13" class="edge">
<title>free_tree&#45;&gt;free_node</title>
<path fill="none" stroke="black" d="M1161.52,-353.89C1184.45,-351.36 1214.95,-347.99 1239.47,-345.28"/>
<polygon fill="black" stroke="black" points="1239.47,-346.93 1244.25,-344.64 1239.09,-343.45 1239.47,-346.93"/>
</g>
<!-- new_condition_node -->
<g id="node10" class="node">
<title>new_condition_node</title>
<path fill="#ffffe0" stroke="black" stroke-width="1.5" d="M589.79,-253.5C589.79,-253.5 713.21,-253.5 713.21,-253.5 716.92,-253.5 720.62,-257.21 720.62,-260.92 720.62,-260.92 720.62,-268.33 720.62,-268.33 720.62,-272.04 716.92,-275.75 713.21,-275.75 713.21,-275.75 589.79,-275.75 589.79,-275.75 586.08,-275.75 582.38,-272.04 582.38,-268.33 582.38,-268.33 582.38,-260.92 582.38,-260.92 582.38,-257.21 586.08,-253.5 589.79,-253.5"/>
<text text-anchor="middle" x="651.5" y="-260.35" font-family="Times,serif" font-size="12.00">new_condition_node</text>
</g>
<!-- new_condition_node&#45;&gt;free_expando_private_condition_node -->
<g id="edge14" class="edge">
<title>new_condition_node&#45;&gt;free_expando_private_condition_node</title>
<path fill="none" stroke="black" d="M700.45,-275.67C710,-277.93 719.95,-280.32 729.25,-282.62 766.23,-291.8 807.97,-302.76 839.05,-311.03"/>
<polygon fill="black" stroke="black" points="838.45,-312.95 843.73,-312.55 839.35,-309.57 838.45,-312.95"/>
</g>
<!-- new_empty_node -->
<g id="node11" class="node">
<title>new_empty_node</title>
<path fill="#ffffe0" stroke="black" stroke-width="1.5" d="M599.54,-327.5C599.54,-327.5 703.46,-327.5 703.46,-327.5 707.17,-327.5 710.88,-331.21 710.88,-334.92 710.88,-334.92 710.88,-342.33 710.88,-342.33 710.88,-346.04 707.17,-349.75 703.46,-349.75 703.46,-349.75 599.54,-349.75 599.54,-349.75 595.83,-349.75 592.12,-346.04 592.12,-342.33 592.12,-342.33 592.12,-334.92 592.12,-334.92 592.12,-331.21 595.83,-327.5 599.54,-327.5"/>
<text text-anchor="middle" x="651.5" y="-334.35" font-family="Times,serif" font-size="12.00">new_empty_node</text>
</g>
<!-- new_expando_node -->
<g id="node12" class="node">
<title>new_expando_node</title>
<path fill="#ffffe0" stroke="black" stroke-width="1.5" d="M827.79,-222.5C827.79,-222.5 945.96,-222.5 945.96,-222.5 949.67,-222.5 953.38,-226.21 953.38,-229.92 953.38,-229.92 953.38,-237.33 953.38,-237.33 953.38,-241.04 949.67,-244.75 945.96,-244.75 945.96,-244.75 827.79,-244.75 827.79,-244.75 824.08,-244.75 820.38,-241.04 820.38,-237.33 820.38,-237.33 820.38,-229.92 820.38,-229.92 820.38,-226.21 824.08,-222.5 827.79,-222.5"/>
<text text-anchor="middle" x="886.88" y="-229.35" font-family="Times,serif" font-size="12.00">new_expando_node</text>
</g>
<!-- new_expando_node&#45;&gt;free_expando_private -->
<g id="edge15" class="edge">
<title>new_expando_node&#45;&gt;free_expando_private</title>
<path fill="none" stroke="black" d="M953.19,-238.57C982.58,-240.79 1017.5,-243.43 1048.21,-245.76"/>
<polygon fill="black" stroke="black" points="1047.78,-247.56 1052.89,-246.19 1048.04,-244.07 1047.78,-247.56"/>
</g>
<!-- new_pad_node -->
<g id="node13" class="node">
<title>new_pad_node</title>
<path fill="#ffffe0" stroke="black" stroke-width="1.5" d="M842.04,-259.5C842.04,-259.5 931.71,-259.5 931.71,-259.5 935.42,-259.5 939.12,-263.21 939.12,-266.92 939.12,-266.92 939.12,-274.33 939.12,-274.33 939.12,-278.04 935.42,-281.75 931.71,-281.75 931.71,-281.75 842.04,-281.75 842.04,-281.75 838.33,-281.75 834.62,-278.04 834.62,-274.33 834.62,-274.33 834.62,-266.92 834.62,-266.92 834.62,-263.21 838.33,-259.5 842.04,-259.5"/>
<text text-anchor="middle" x="886.88" y="-266.35" font-family="Times,serif" font-size="12.00">new_pad_node</text>
</g>
<!-- new_pad_node&#45;&gt;free_expando_private -->
<g id="edge16" class="edge">
<title>new_pad_node&#45;&gt;free_expando_private</title>
<path fill="none" stroke="black" d="M938.91,-266.55C970.78,-264 1012.45,-260.67 1048.34,-257.81"/>
<polygon fill="black" stroke="black" points="1048.2,-259.49 1053.05,-257.35 1047.93,-256.01 1048.2,-259.49"/>
</g>
<!-- expando_tree_parse&#45;&gt;new_empty_node -->
<g id="edge9" class="edge">
<title>expando_tree_parse&#45;&gt;new_empty_node</title>
<path fill="none" stroke="black" d="M293.63,-307.74C305.65,-309.11 318.06,-310.46 329.75,-311.62 418.68,-320.53 521.67,-328.84 586.45,-333.83"/>
<polygon fill="black" stroke="black" points="586.09,-335.64 591.21,-334.27 586.36,-332.15 586.09,-335.64"/>
</g>
<!-- append_node -->
<g id="node17" class="node">
<title>append_node</title>
<path fill="#ffffff" stroke="black" stroke-width="1.5" d="M611.17,-290.5C611.17,-290.5 691.83,-290.5 691.83,-290.5 695.54,-290.5 699.25,-294.21 699.25,-297.92 699.25,-297.92 699.25,-305.33 699.25,-305.33 699.25,-309.04 695.54,-312.75 691.83,-312.75 691.83,-312.75 611.17,-312.75 611.17,-312.75 607.46,-312.75 603.75,-309.04 603.75,-305.33 603.75,-305.33 603.75,-297.92 603.75,-297.92 603.75,-294.21 607.46,-290.5 611.17,-290.5"/>
<text text-anchor="middle" x="651.5" y="-297.35" font-family="Times,serif" font-size="12.00">append_node</text>
</g>
<!-- expando_tree_parse&#45;&gt;append_node -->
<g id="edge8" class="edge">
<title>expando_tree_parse&#45;&gt;append_node</title>
<path fill="none" stroke="black" d="M293.58,-299.94C378.04,-300.34 521.21,-301.02 598.05,-301.38"/>
<polygon fill="black" stroke="black" points="597.91,-303.13 602.92,-301.41 597.93,-299.63 597.91,-303.13"/>
</g>
<!-- parse_node -->
<g id="node18" class="node">
<title>parse_node</title>
<path fill="#ffffff" stroke="black" stroke-width="1.5" d="M398.67,-185.5C398.67,-185.5 468.83,-185.5 468.83,-185.5 472.54,-185.5 476.25,-189.21 476.25,-192.92 476.25,-192.92 476.25,-200.33 476.25,-200.33 476.25,-204.04 472.54,-207.75 468.83,-207.75 468.83,-207.75 398.67,-207.75 398.67,-207.75 394.96,-207.75 391.25,-204.04 391.25,-200.33 391.25,-200.33 391.25,-192.92 391.25,-192.92 391.25,-189.21 394.96,-185.5 398.67,-185.5"/>
<text text-anchor="middle" x="433.75" y="-192.35" font-family="Times,serif" font-size="12.00">parse_node</text>
</g>
<!-- expando_tree_parse&#45;&gt;parse_node -->
<g id="edge10" class="edge">
<title>expando_tree_parse&#45;&gt;parse_node</title>
<path fill="none" stroke="black" d="M248.46,-288.6C286.38,-269.68 363.76,-231.06 405.16,-210.4"/>
<polygon fill="black" stroke="black" points="405.82,-211.52 409.51,-207.72 404.26,-208.39 405.82,-211.52"/>
</g>
<!-- parse_node&#45;&gt;new_condition_node -->
<g id="edge22" class="edge">
<title>parse_node&#45;&gt;new_condition_node</title>
<path fill="none" stroke="black" d="M468.39,-207.74C496.5,-216.98 537.67,-230.38 573.75,-241.62 584.61,-245.01 596.36,-248.58 607.32,-251.87"/>
<polygon fill="black" stroke="black" points="606.68,-253.8 611.97,-253.56 607.69,-250.45 606.68,-253.8"/>
</g>
<!-- parse_node&#45;&gt;new_empty_node -->
<g id="edge23" class="edge">
<title>parse_node&#45;&gt;new_empty_node</title>
<path fill="none" stroke="black" d="M443.56,-207.55C463.8,-231.89 516.36,-290.79 573.75,-320.62 577.94,-322.8 582.39,-324.72 586.97,-326.41"/>
<polygon fill="black" stroke="black" points="586.08,-328.3 591.38,-328.29 587.23,-324.99 586.08,-328.3"/>
</g>
<!-- parse_node&#45;&gt;new_pad_node -->
<g id="edge24" class="edge">
<title>parse_node&#45;&gt;new_pad_node</title>
<path fill="none" stroke="black" d="M475.78,-203.09C532.74,-212.15 638.97,-229.34 729.25,-245.62 745.29,-248.52 749.19,-249.87 765.25,-252.62 785.95,-256.18 808.72,-259.68 828.85,-262.64"/>
<polygon fill="black" stroke="black" points="828.53,-264.51 833.73,-263.5 829.04,-261.05 828.53,-264.51"/>
</g>
<!-- parse_node&#45;&gt;new_text_node -->
<g id="edge25" class="edge">
<title>parse_node&#45;&gt;new_text_node</title>
<path fill="none" stroke="black" d="M443.13,-185.54C462.9,-160.23 515.19,-97.95 573.75,-66.62 580.1,-63.23 587.08,-60.47 594.16,-58.23"/>
<polygon fill="black" stroke="black" points="594.29,-59.72 598.59,-56.61 593.29,-56.36 594.29,-59.72"/>
</g>
<!-- parse_node&#45;&gt;skip_until_ch -->
<g id="edge27" class="edge">
<title>parse_node&#45;&gt;skip_until_ch</title>
<path fill="none" stroke="black" d="M440.54,-185.56C456.96,-155.34 507,-70.87 573.75,-29.62 581.39,-24.9 590.16,-21.42 598.97,-18.85"/>
<polygon fill="black" stroke="black" points="599.39,-20.28 603.76,-17.29 598.47,-16.9 599.39,-20.28"/>
</g>
<!-- parse_node&#45;&gt;append_node -->
<g id="edge21" class="edge">
<title>parse_node&#45;&gt;append_node</title>
<path fill="none" stroke="black" d="M448.89,-207.72C473.09,-226.17 524.61,-263.15 573.75,-283.62 581.45,-286.83 589.83,-289.53 598.13,-291.79"/>
<polygon fill="black" stroke="black" points="597.58,-293.71 602.86,-293.28 598.46,-290.32 597.58,-293.71"/>
</g>
<!-- parse_expando_node -->
<g id="node19" class="node">
<title>parse_expando_node</title>
<path fill="#ffffff" stroke="black" stroke-width="1.5" d="M587.92,-185.5C587.92,-185.5 715.08,-185.5 715.08,-185.5 718.79,-185.5 722.5,-189.21 722.5,-192.92 722.5,-192.92 722.5,-200.33 722.5,-200.33 722.5,-204.04 718.79,-207.75 715.08,-207.75 715.08,-207.75 587.92,-207.75 587.92,-207.75 584.21,-207.75 580.5,-204.04 580.5,-200.33 580.5,-200.33 580.5,-192.92 580.5,-192.92 580.5,-189.21 584.21,-185.5 587.92,-185.5"/>
<text text-anchor="middle" x="651.5" y="-192.35" font-family="Times,serif" font-size="12.00">parse_expando_node</text>
</g>
<!-- parse_node&#45;&gt;parse_expando_node -->
<g id="edge26" class="edge">
<title>parse_node&#45;&gt;parse_expando_node</title>
<path fill="none" stroke="black" d="M476.09,-196.62C504.08,-196.62 541.88,-196.62 575.13,-196.62"/>
<polygon fill="black" stroke="black" points="574.85,-198.38 579.85,-196.62 574.85,-194.88 574.85,-198.38"/>
</g>
<!-- skip_until_ch2_counted -->
<g id="node23" class="node">
<title>skip_until_ch2_counted</title>
<path fill="#ffffff" stroke="black" stroke-width="1.5" d="M581.17,-148.5C581.17,-148.5 721.83,-148.5 721.83,-148.5 725.54,-148.5 729.25,-152.21 729.25,-155.92 729.25,-155.92 729.25,-163.33 729.25,-163.33 729.25,-167.04 725.54,-170.75 721.83,-170.75 721.83,-170.75 581.17,-170.75 581.17,-170.75 577.46,-170.75 573.75,-167.04 573.75,-163.33 573.75,-163.33 573.75,-155.92 573.75,-155.92 573.75,-152.21 577.46,-148.5 581.17,-148.5"/>
<text text-anchor="middle" x="651.5" y="-155.35" font-family="Times,serif" font-size="12.00">skip_until_ch2_counted</text>
</g>
<!-- parse_node&#45;&gt;skip_until_ch2_counted -->
<g id="edge28" class="edge">
<title>parse_node&#45;&gt;skip_until_ch2_counted</title>
<path fill="none" stroke="black" d="M476.09,-189.53C505.47,-184.5 545.65,-177.61 580.04,-171.71"/>
<polygon fill="black" stroke="black" points="580.32,-173.27 584.95,-170.7 579.73,-169.82 580.32,-173.27"/>
</g>
<!-- skip_until_ch_counted -->
<g id="node24" class="node">
<title>skip_until_ch_counted</title>
<path fill="#ffffff" stroke="black" stroke-width="1.5" d="M584.92,-111.5C584.92,-111.5 718.08,-111.5 718.08,-111.5 721.79,-111.5 725.5,-115.21 725.5,-118.92 725.5,-118.92 725.5,-126.33 725.5,-126.33 725.5,-130.04 721.79,-133.75 718.08,-133.75 718.08,-133.75 584.92,-133.75 584.92,-133.75 581.21,-133.75 577.5,-130.04 577.5,-126.33 577.5,-126.33 577.5,-118.92 577.5,-118.92 577.5,-115.21 581.21,-111.5 584.92,-111.5"/>
<text text-anchor="middle" x="651.5" y="-118.35" font-family="Times,serif" font-size="12.00">skip_until_ch_counted</text>
</g>
<!-- parse_node&#45;&gt;skip_until_ch_counted -->
<g id="edge29" class="edge">
<title>parse_node&#45;&gt;skip_until_ch_counted</title>
<path fill="none" stroke="black" d="M458.94,-185.56C486.35,-173.34 532.58,-153.66 573.75,-140.62 579.97,-138.66 586.53,-136.8 593.09,-135.07"/>
<polygon fill="black" stroke="black" points="593.19,-136.6 597.6,-133.66 592.32,-133.21 593.19,-136.6"/>
</g>
<!-- skip_until_ch_or_end -->
<g id="node25" class="node">
<title>skip_until_ch_or_end</title>
<path fill="#ffffff" stroke="black" stroke-width="1.5" d="M588.29,-74.5C588.29,-74.5 714.71,-74.5 714.71,-74.5 718.42,-74.5 722.12,-78.21 722.12,-81.92 722.12,-81.92 722.12,-89.33 722.12,-89.33 722.12,-93.04 718.42,-96.75 714.71,-96.75 714.71,-96.75 588.29,-96.75 588.29,-96.75 584.58,-96.75 580.88,-93.04 580.88,-89.33 580.88,-89.33 580.88,-81.92 580.88,-81.92 580.88,-78.21 584.58,-74.5 588.29,-74.5"/>
<text text-anchor="middle" x="651.5" y="-81.35" font-family="Times,serif" font-size="12.00">skip_until_ch_or_end</text>
</g>
<!-- parse_node&#45;&gt;skip_until_ch_or_end -->
<g id="edge30" class="edge">
<title>parse_node&#45;&gt;skip_until_ch_or_end</title>
<path fill="none" stroke="black" d="M447.61,-185.65C471.1,-166.19 523.16,-125.62 573.75,-103.62 578.17,-101.7 582.83,-99.97 587.57,-98.41"/>
<polygon fill="black" stroke="black" points="587.92,-99.82 592.17,-96.66 586.88,-96.48 587.92,-99.82"/>
</g>
<!-- parse_expando_node&#45;&gt;new_expando_node -->
<g id="edge17" class="edge">
<title>parse_expando_node&#45;&gt;new_expando_node</title>
<path fill="none" stroke="black" d="M717.16,-207.74C732.89,-210.38 749.66,-213.15 765.25,-215.62 781.17,-218.15 798.3,-220.77 814.5,-223.2"/>
<polygon fill="black" stroke="black" points="814.22,-225.08 819.42,-224.09 814.73,-221.62 814.22,-225.08"/>
</g>
<!-- parse_format -->
<g id="node20" class="node">
<title>parse_format</title>
<path fill="#ffffff" stroke="black" stroke-width="1.5" d="M845.79,-185.5C845.79,-185.5 927.96,-185.5 927.96,-185.5 931.67,-185.5 935.38,-189.21 935.38,-192.92 935.38,-192.92 935.38,-200.33 935.38,-200.33 935.38,-204.04 931.67,-207.75 927.96,-207.75 927.96,-207.75 845.79,-207.75 845.79,-207.75 842.08,-207.75 838.38,-204.04 838.38,-200.33 838.38,-200.33 838.38,-192.92 838.38,-192.92 838.38,-189.21 842.08,-185.5 845.79,-185.5"/>
<text text-anchor="middle" x="886.88" y="-192.35" font-family="Times,serif" font-size="12.00">parse_format</text>
</g>
<!-- parse_expando_node&#45;&gt;parse_format -->
<g id="edge18" class="edge">
<title>parse_expando_node&#45;&gt;parse_format</title>
<path fill="none" stroke="black" d="M722.2,-196.62C757.61,-196.62 799.94,-196.62 832.68,-196.62"/>
<polygon fill="black" stroke="black" points="832.68,-198.38 837.68,-196.62 832.68,-194.88 832.68,-198.38"/>
</g>
<!-- skip_classic_expando -->
<g id="node21" class="node">
<title>skip_classic_expando</title>
<path fill="#ffffff" stroke="black" stroke-width="1.5" d="M822.17,-148.5C822.17,-148.5 951.58,-148.5 951.58,-148.5 955.29,-148.5 959,-152.21 959,-155.92 959,-155.92 959,-163.33 959,-163.33 959,-167.04 955.29,-170.75 951.58,-170.75 951.58,-170.75 822.17,-170.75 822.17,-170.75 818.46,-170.75 814.75,-167.04 814.75,-163.33 814.75,-163.33 814.75,-155.92 814.75,-155.92 814.75,-152.21 818.46,-148.5 822.17,-148.5"/>
<text text-anchor="middle" x="886.88" y="-155.35" font-family="Times,serif" font-size="12.00">skip_classic_expando</text>
</g>
<!-- parse_expando_node&#45;&gt;skip_classic_expando -->
<g id="edge19" class="edge">
<title>parse_expando_node&#45;&gt;skip_classic_expando</title>
<path fill="none" stroke="black" d="M717.16,-185.51C732.89,-182.87 749.66,-180.1 765.25,-177.62 779.46,-175.37 794.64,-173.04 809.25,-170.84"/>
<polygon fill="black" stroke="black" points="809.36,-172.44 814.04,-169.97 808.84,-168.98 809.36,-172.44"/>
</g>
<!-- skip_until_classic_expando -->
<g id="node22" class="node">
<title>skip_until_classic_expando</title>
<path fill="#ffffff" stroke="black" stroke-width="1.5" d="M805.67,-111.5C805.67,-111.5 968.08,-111.5 968.08,-111.5 971.79,-111.5 975.5,-115.21 975.5,-118.92 975.5,-118.92 975.5,-126.33 975.5,-126.33 975.5,-130.04 971.79,-133.75 968.08,-133.75 968.08,-133.75 805.67,-133.75 805.67,-133.75 801.96,-133.75 798.25,-130.04 798.25,-126.33 798.25,-126.33 798.25,-118.92 798.25,-118.92 798.25,-115.21 801.96,-111.5 805.67,-111.5"/>
<text text-anchor="middle" x="886.88" y="-118.35" font-family="Times,serif" font-size="12.00">skip_until_classic_expando</text>
</g>
<!-- parse_expando_node&#45;&gt;skip_until_classic_expando -->
<g id="edge20" class="edge">
<title>parse_expando_node&#45;&gt;skip_until_classic_expando</title>
<path fill="none" stroke="black" d="M714.08,-185.63C719.37,-183.67 724.5,-181.35 729.25,-178.62 749.42,-167.04 744.62,-151.37 765.25,-140.62 773.81,-136.17 783.14,-132.73 792.69,-130.08"/>
<polygon fill="black" stroke="black" points="792.95,-131.57 797.34,-128.62 792.07,-128.18 792.95,-131.57"/>
</g>
<!-- is_valid_classic_expando -->
<g id="node26" class="node">
<title>is_valid_classic_expando</title>
<path fill="#ffffff" stroke="black" stroke-width="1.5" d="M1051.92,-111.5C1051.92,-111.5 1201.58,-111.5 1201.58,-111.5 1205.29,-111.5 1209,-115.21 1209,-118.92 1209,-118.92 1209,-126.33 1209,-126.33 1209,-130.04 1205.29,-133.75 1201.58,-133.75 1201.58,-133.75 1051.92,-133.75 1051.92,-133.75 1048.21,-133.75 1044.5,-130.04 1044.5,-126.33 1044.5,-126.33 1044.5,-118.92 1044.5,-118.92 1044.5,-115.21 1048.21,-111.5 1051.92,-111.5"/>
<text text-anchor="middle" x="1126.75" y="-118.35" font-family="Times,serif" font-size="12.00">is_valid_classic_expando</text>
</g>
<!-- skip_until_classic_expando&#45;&gt;is_valid_classic_expando -->
<g id="edge31" class="edge">
<title>skip_until_classic_expando&#45;&gt;is_valid_classic_expando</title>
<path fill="none" stroke="black" d="M975.44,-122.62C996.14,-122.62 1018.22,-122.62 1038.89,-122.62"/>
<polygon fill="black" stroke="black" points="1038.68,-124.38 1043.68,-122.62 1038.68,-120.88 1038.68,-124.38"/>
</g>
</g>
</svg>
