<?xml version="1.0" encoding="UTF-8" standalone="no"?>
<!DOCTYPE svg PUBLIC "-//W3C//DTD SVG 1.1//EN"
 "http://www.w3.org/Graphics/SVG/1.1/DTD/svg11.dtd">
<!-- Generated by graphviz version 8.1.0 (20230707.0739)
 -->
<!-- Title: callgraph Pages: 1 -->
<svg width="863pt" height="395pt"
 viewBox="0.00 0.00 862.75 395.25" xmlns="http://www.w3.org/2000/svg" xmlns:xlink="http://www.w3.org/1999/xlink">
<g id="graph0" class="graph" transform="scale(1 1) rotate(0) translate(4 391.25)">
<title>callgraph</title>
<polygon fill="white" stroke="none" points="-4,4 -4,-391.25 858.75,-391.25 858.75,4 -4,4"/>
<!-- node_condbool_parse -->
<g id="node1" class="node">
<title>node_condbool_parse</title>
<path fill="#ffffc0" stroke="black" stroke-width="1.5" d="M508.42,-253.5C508.42,-253.5 640.08,-253.5 640.08,-253.5 643.79,-253.5 647.5,-257.21 647.5,-260.92 647.5,-260.92 647.5,-268.33 647.5,-268.33 647.5,-272.04 643.79,-275.75 640.08,-275.75 640.08,-275.75 508.42,-275.75 508.42,-275.75 504.71,-275.75 501,-272.04 501,-268.33 501,-268.33 501,-260.92 501,-260.92 501,-257.21 504.71,-253.5 508.42,-253.5"/>
<text text-anchor="middle" x="574.25" y="-260.35" font-family="Times,serif" font-size="12.00">node_condbool_parse</text>
</g>
<!-- node_condbool_new -->
<g id="node10" class="node">
<title>node_condbool_new</title>
<path fill="#ffffff" stroke="black" stroke-width="1.5" d="M722.79,-253.5C722.79,-253.5 845.46,-253.5 845.46,-253.5 849.17,-253.5 852.88,-257.21 852.88,-260.92 852.88,-260.92 852.88,-268.33 852.88,-268.33 852.88,-272.04 849.17,-275.75 845.46,-275.75 845.46,-275.75 722.79,-275.75 722.79,-275.75 719.08,-275.75 715.38,-272.04 715.38,-268.33 715.38,-268.33 715.38,-260.92 715.38,-260.92 715.38,-257.21 719.08,-253.5 722.79,-253.5"/>
<text text-anchor="middle" x="784.12" y="-260.35" font-family="Times,serif" font-size="12.00">node_condbool_new</text>
</g>
<!-- node_condbool_parse&#45;&gt;node_condbool_new -->
<g id="edge2" class="edge">
<title>node_condbool_parse&#45;&gt;node_condbool_new</title>
<path fill="none" stroke="black" d="M647.37,-264.62C667.54,-264.62 689.48,-264.62 709.73,-264.62"/>
<polygon fill="black" stroke="black" points="709.67,-266.38 714.67,-264.62 709.67,-262.88 709.67,-266.38"/>
</g>
<!-- node_conddate_parse -->
<g id="node2" class="node">
<title>node_conddate_parse</title>
<path fill="#ffffc0" stroke="black" stroke-width="1.5" d="M508.42,-216.5C508.42,-216.5 640.08,-216.5 640.08,-216.5 643.79,-216.5 647.5,-220.21 647.5,-223.92 647.5,-223.92 647.5,-231.33 647.5,-231.33 647.5,-235.04 643.79,-238.75 640.08,-238.75 640.08,-238.75 508.42,-238.75 508.42,-238.75 504.71,-238.75 501,-235.04 501,-231.33 501,-231.33 501,-223.92 501,-223.92 501,-220.21 504.71,-216.5 508.42,-216.5"/>
<text text-anchor="middle" x="574.25" y="-223.35" font-family="Times,serif" font-size="12.00">node_conddate_parse</text>
</g>
<!-- node_conddate_new -->
<g id="node11" class="node">
<title>node_conddate_new</title>
<path fill="#ffffff" stroke="black" stroke-width="1.5" d="M722.79,-216.5C722.79,-216.5 845.46,-216.5 845.46,-216.5 849.17,-216.5 852.88,-220.21 852.88,-223.92 852.88,-223.92 852.88,-231.33 852.88,-231.33 852.88,-235.04 849.17,-238.75 845.46,-238.75 845.46,-238.75 722.79,-238.75 722.79,-238.75 719.08,-238.75 715.38,-235.04 715.38,-231.33 715.38,-231.33 715.38,-223.92 715.38,-223.92 715.38,-220.21 719.08,-216.5 722.79,-216.5"/>
<text text-anchor="middle" x="784.12" y="-223.35" font-family="Times,serif" font-size="12.00">node_conddate_new</text>
</g>
<!-- node_conddate_parse&#45;&gt;node_conddate_new -->
<g id="edge3" class="edge">
<title>node_conddate_parse&#45;&gt;node_conddate_new</title>
<path fill="none" stroke="black" d="M647.37,-227.62C667.54,-227.62 689.48,-227.62 709.73,-227.62"/>
<polygon fill="black" stroke="black" points="709.67,-229.38 714.67,-227.62 709.67,-225.88 709.67,-229.38"/>
</g>
<!-- node_expando_parse -->
<g id="node3" class="node">
<title>node_expando_parse</title>
<path fill="#ffffc0" stroke="black" stroke-width="1.5" d="M510.67,-179.5C510.67,-179.5 637.83,-179.5 637.83,-179.5 641.54,-179.5 645.25,-183.21 645.25,-186.92 645.25,-186.92 645.25,-194.33 645.25,-194.33 645.25,-198.04 641.54,-201.75 637.83,-201.75 637.83,-201.75 510.67,-201.75 510.67,-201.75 506.96,-201.75 503.25,-198.04 503.25,-194.33 503.25,-194.33 503.25,-186.92 503.25,-186.92 503.25,-183.21 506.96,-179.5 510.67,-179.5"/>
<text text-anchor="middle" x="574.25" y="-186.35" font-family="Times,serif" font-size="12.00">node_expando_parse</text>
</g>
<!-- node_expando_new -->
<g id="node12" class="node">
<title>node_expando_new</title>
<path fill="#ffffff" stroke="black" stroke-width="1.5" d="M725.04,-142.5C725.04,-142.5 843.21,-142.5 843.21,-142.5 846.92,-142.5 850.62,-146.21 850.62,-149.92 850.62,-149.92 850.62,-157.33 850.62,-157.33 850.62,-161.04 846.92,-164.75 843.21,-164.75 843.21,-164.75 725.04,-164.75 725.04,-164.75 721.33,-164.75 717.62,-161.04 717.62,-157.33 717.62,-157.33 717.62,-149.92 717.62,-149.92 717.62,-146.21 721.33,-142.5 725.04,-142.5"/>
<text text-anchor="middle" x="784.12" y="-149.35" font-family="Times,serif" font-size="12.00">node_expando_new</text>
</g>
<!-- node_expando_parse&#45;&gt;node_expando_new -->
<g id="edge4" class="edge">
<title>node_expando_parse&#45;&gt;node_expando_new</title>
<path fill="none" stroke="black" d="M638.53,-179.52C651.42,-177.25 664.9,-174.87 677.5,-172.62 689.91,-170.42 703.13,-168.05 715.88,-165.76"/>
<polygon fill="black" stroke="black" points="716.08,-167.32 720.69,-164.72 715.46,-163.88 716.08,-167.32"/>
</g>
<!-- parse_format -->
<g id="node13" class="node">
<title>parse_format</title>
<path fill="#ffffff" stroke="black" stroke-width="1.5" d="M743.04,-179.5C743.04,-179.5 825.21,-179.5 825.21,-179.5 828.92,-179.5 832.62,-183.21 832.62,-186.92 832.62,-186.92 832.62,-194.33 832.62,-194.33 832.62,-198.04 828.92,-201.75 825.21,-201.75 825.21,-201.75 743.04,-201.75 743.04,-201.75 739.33,-201.75 735.62,-198.04 735.62,-194.33 735.62,-194.33 735.62,-186.92 735.62,-186.92 735.62,-183.21 739.33,-179.5 743.04,-179.5"/>
<text text-anchor="middle" x="784.12" y="-186.35" font-family="Times,serif" font-size="12.00">parse_format</text>
</g>
<!-- node_expando_parse&#45;&gt;parse_format -->
<g id="edge5" class="edge">
<title>node_expando_parse&#45;&gt;parse_format</title>
<path fill="none" stroke="black" d="M645.05,-190.62C672.79,-190.62 704.18,-190.62 730.02,-190.62"/>
<polygon fill="black" stroke="black" points="729.78,-192.38 734.78,-190.62 729.78,-188.88 729.78,-192.38"/>
</g>
<!-- node_padding_parse -->
<g id="node4" class="node">
<title>node_padding_parse</title>
<path fill="#ffffc0" stroke="black" stroke-width="1.5" d="M511.79,-105.5C511.79,-105.5 636.71,-105.5 636.71,-105.5 640.42,-105.5 644.12,-109.21 644.12,-112.92 644.12,-112.92 644.12,-120.33 644.12,-120.33 644.12,-124.04 640.42,-127.75 636.71,-127.75 636.71,-127.75 511.79,-127.75 511.79,-127.75 508.08,-127.75 504.38,-124.04 504.38,-120.33 504.38,-120.33 504.38,-112.92 504.38,-112.92 504.38,-109.21 508.08,-105.5 511.79,-105.5"/>
<text text-anchor="middle" x="574.25" y="-112.35" font-family="Times,serif" font-size="12.00">node_padding_parse</text>
</g>
<!-- node_padding_new -->
<g id="node15" class="node">
<title>node_padding_new</title>
<path fill="#ffffff" stroke="black" stroke-width="1.5" d="M726.17,-105.5C726.17,-105.5 842.08,-105.5 842.08,-105.5 845.79,-105.5 849.5,-109.21 849.5,-112.92 849.5,-112.92 849.5,-120.33 849.5,-120.33 849.5,-124.04 845.79,-127.75 842.08,-127.75 842.08,-127.75 726.17,-127.75 726.17,-127.75 722.46,-127.75 718.75,-124.04 718.75,-120.33 718.75,-120.33 718.75,-112.92 718.75,-112.92 718.75,-109.21 722.46,-105.5 726.17,-105.5"/>
<text text-anchor="middle" x="784.12" y="-112.35" font-family="Times,serif" font-size="12.00">node_padding_new</text>
</g>
<!-- node_padding_parse&#45;&gt;node_padding_new -->
<g id="edge8" class="edge">
<title>node_padding_parse&#45;&gt;node_padding_new</title>
<path fill="none" stroke="black" d="M643.89,-116.62C666.04,-116.62 690.61,-116.62 712.87,-116.62"/>
<polygon fill="black" stroke="black" points="712.78,-118.38 717.78,-116.62 712.78,-114.88 712.78,-118.38"/>
</g>
<!-- node_parse -->
<g id="node5" class="node">
<title>node_parse</title>
<path fill="#ffffc0" stroke="black" stroke-width="1.5" d="M329.29,-197.5C329.29,-197.5 399.46,-197.5 399.46,-197.5 403.17,-197.5 406.88,-201.21 406.88,-204.92 406.88,-204.92 406.88,-212.33 406.88,-212.33 406.88,-216.04 403.17,-219.75 399.46,-219.75 399.46,-219.75 329.29,-219.75 329.29,-219.75 325.58,-219.75 321.88,-216.04 321.88,-212.33 321.88,-212.33 321.88,-204.92 321.88,-204.92 321.88,-201.21 325.58,-197.5 329.29,-197.5"/>
<text text-anchor="middle" x="364.38" y="-204.35" font-family="Times,serif" font-size="12.00">node_parse</text>
</g>
<!-- node_parse&#45;&gt;node_condbool_parse -->
<g id="edge10" class="edge">
<title>node_parse&#45;&gt;node_condbool_parse</title>
<path fill="none" stroke="black" d="M391.89,-219.6C413.01,-227.98 443.5,-239.32 471,-246.62 478.86,-248.71 487.12,-250.62 495.39,-252.36"/>
<polygon fill="black" stroke="black" points="494.88,-254.24 500.12,-253.53 495.58,-250.81 494.88,-254.24"/>
</g>
<!-- node_parse&#45;&gt;node_conddate_parse -->
<g id="edge11" class="edge">
<title>node_parse&#45;&gt;node_conddate_parse</title>
<path fill="none" stroke="black" d="M406.44,-212.38C431.84,-214.7 465.26,-217.75 495.51,-220.52"/>
<polygon fill="black" stroke="black" points="494.98,-222.32 500.12,-221.03 495.3,-218.83 494.98,-222.32"/>
</g>
<!-- node_parse&#45;&gt;node_expando_parse -->
<g id="edge13" class="edge">
<title>node_parse&#45;&gt;node_expando_parse</title>
<path fill="none" stroke="black" d="M406.44,-205.07C432.51,-202.81 467.02,-199.82 497.89,-197.15"/>
<polygon fill="black" stroke="black" points="497.78,-198.83 502.61,-196.66 497.48,-195.34 497.78,-198.83"/>
</g>
<!-- node_parse&#45;&gt;node_padding_parse -->
<g id="edge14" class="edge">
<title>node_parse&#45;&gt;node_padding_parse</title>
<path fill="none" stroke="black" d="M406.65,-203.3C416.58,-200.63 426.7,-196.63 435,-190.62 458.97,-173.28 446.36,-151.01 471,-134.62 479.42,-129.02 489.06,-125.01 498.99,-122.17"/>
<polygon fill="black" stroke="black" points="499.14,-123.67 503.52,-120.7 498.24,-120.29 499.14,-123.67"/>
</g>
<!-- node_text_parse -->
<g id="node6" class="node">
<title>node_text_parse</title>
<path fill="#ffffc0" stroke="black" stroke-width="1.5" d="M524.92,-37.5C524.92,-37.5 623.58,-37.5 623.58,-37.5 627.29,-37.5 631,-41.21 631,-44.92 631,-44.92 631,-52.33 631,-52.33 631,-56.04 627.29,-59.75 623.58,-59.75 623.58,-59.75 524.92,-59.75 524.92,-59.75 521.21,-59.75 517.5,-56.04 517.5,-52.33 517.5,-52.33 517.5,-44.92 517.5,-44.92 517.5,-41.21 521.21,-37.5 524.92,-37.5"/>
<text text-anchor="middle" x="574.25" y="-44.35" font-family="Times,serif" font-size="12.00">node_text_parse</text>
</g>
<!-- node_parse&#45;&gt;node_text_parse -->
<g id="edge16" class="edge">
<title>node_parse&#45;&gt;node_text_parse</title>
<path fill="none" stroke="black" d="M406.82,-205.1C417.1,-202.43 427.34,-197.97 435,-190.62 474.86,-152.36 430.54,-109.25 471,-71.62 482.21,-61.2 497.11,-55.14 512.05,-51.71"/>
<polygon fill="black" stroke="black" points="512.01,-53.29 516.55,-50.56 511.29,-49.87 512.01,-53.29"/>
</g>
<!-- custom_parser -->
<g id="node8" class="node">
<title>custom_parser</title>
<path fill="#c0ffff" stroke="black" stroke-width="1.5" d="M529.04,-0.5C529.04,-0.5 619.46,-0.5 619.46,-0.5 623.17,-0.5 626.88,-4.21 626.88,-7.92 626.88,-7.92 626.88,-15.33 626.88,-15.33 626.88,-19.04 623.17,-22.75 619.46,-22.75 619.46,-22.75 529.04,-22.75 529.04,-22.75 525.33,-22.75 521.62,-19.04 521.62,-15.33 521.62,-15.33 521.62,-7.92 521.62,-7.92 521.62,-4.21 525.33,-0.5 529.04,-0.5"/>
<text text-anchor="middle" x="574.25" y="-7.35" font-family="Times,serif" font-size="12.00">custom_parser</text>
</g>
<!-- node_parse&#45;&gt;custom_parser -->
<g id="edge9" class="edge">
<title>node_parse&#45;&gt;custom_parser</title>
<path fill="none" stroke="black" d="M406.83,-205.56C417.23,-202.9 427.53,-198.34 435,-190.62 485.98,-137.93 417.98,-80.27 471,-29.62 483.06,-18.1 499.76,-12.56 516.18,-10.18"/>
<polygon fill="black" stroke="black" points="515.98,-11.84 520.72,-9.49 515.54,-8.37 515.98,-11.84"/>
</g>
<!-- node_condition_new -->
<g id="node16" class="node">
<title>node_condition_new</title>
<path fill="#ffffff" stroke="black" stroke-width="1.5" d="M512.54,-364.5C512.54,-364.5 635.96,-364.5 635.96,-364.5 639.67,-364.5 643.38,-368.21 643.38,-371.92 643.38,-371.92 643.38,-379.33 643.38,-379.33 643.38,-383.04 639.67,-386.75 635.96,-386.75 635.96,-386.75 512.54,-386.75 512.54,-386.75 508.83,-386.75 505.12,-383.04 505.12,-379.33 505.12,-379.33 505.12,-371.92 505.12,-371.92 505.12,-368.21 508.83,-364.5 512.54,-364.5"/>
<text text-anchor="middle" x="574.25" y="-371.35" font-family="Times,serif" font-size="12.00">node_condition_new</text>
</g>
<!-- node_parse&#45;&gt;node_condition_new -->
<g id="edge12" class="edge">
<title>node_parse&#45;&gt;node_condition_new</title>
<path fill="none" stroke="black" d="M369.57,-219.46C381.04,-247.5 415.8,-322.7 471,-357.62 479.67,-363.11 489.55,-367.05 499.66,-369.86"/>
<polygon fill="black" stroke="black" points="499.02,-371.76 504.3,-371.3 499.89,-368.36 499.02,-371.76"/>
</g>
<!-- node_text_new -->
<g id="node17" class="node">
<title>node_text_new</title>
<path fill="#ffffff" stroke="black" stroke-width="1.5" d="M739.29,-68.5C739.29,-68.5 828.96,-68.5 828.96,-68.5 832.67,-68.5 836.38,-72.21 836.38,-75.92 836.38,-75.92 836.38,-83.33 836.38,-83.33 836.38,-87.04 832.67,-90.75 828.96,-90.75 828.96,-90.75 739.29,-90.75 739.29,-90.75 735.58,-90.75 731.88,-87.04 731.88,-83.33 731.88,-83.33 731.88,-75.92 731.88,-75.92 731.88,-72.21 735.58,-68.5 739.29,-68.5"/>
<text text-anchor="middle" x="784.12" y="-75.35" font-family="Times,serif" font-size="12.00">node_text_new</text>
</g>
<!-- node_parse&#45;&gt;node_text_new -->
<g id="edge15" class="edge">
<title>node_parse&#45;&gt;node_text_new</title>
<path fill="none" stroke="black" d="M406.82,-204.61C416.98,-201.93 427.17,-197.6 435,-190.62 468.11,-161.16 435.17,-123.72 471,-97.62 510.31,-68.99 647.53,-71.62 726.32,-75.78"/>
<polygon fill="black" stroke="black" points="725.8,-77.56 730.89,-76.08 725.99,-74.07 725.8,-77.56"/>
</g>
<!-- skip_until_if_false_end -->
<g id="node18" class="node">
<title>skip_until_if_false_end</title>
<path fill="#ffffff" stroke="black" stroke-width="1.5" d="M506.54,-327.5C506.54,-327.5 641.96,-327.5 641.96,-327.5 645.67,-327.5 649.38,-331.21 649.38,-334.92 649.38,-334.92 649.38,-342.33 649.38,-342.33 649.38,-346.04 645.67,-349.75 641.96,-349.75 641.96,-349.75 506.54,-349.75 506.54,-349.75 502.83,-349.75 499.12,-346.04 499.12,-342.33 499.12,-342.33 499.12,-334.92 499.12,-334.92 499.12,-331.21 502.83,-327.5 506.54,-327.5"/>
<text text-anchor="middle" x="574.25" y="-334.35" font-family="Times,serif" font-size="12.00">skip_until_if_false_end</text>
</g>
<!-- node_parse&#45;&gt;skip_until_if_false_end -->
<g id="edge17" class="edge">
<title>node_parse&#45;&gt;skip_until_if_false_end</title>
<path fill="none" stroke="black" d="M372.23,-219.75C387.09,-242.78 424.65,-295.64 471,-320.62 478.09,-324.45 485.82,-327.48 493.75,-329.89"/>
<polygon fill="black" stroke="black" points="492.98,-331.78 498.27,-331.46 493.94,-328.41 492.98,-331.78"/>
</g>
<!-- skip_until_if_true_end -->
<g id="node19" class="node">
<title>skip_until_if_true_end</title>
<path fill="#ffffff" stroke="black" stroke-width="1.5" d="M508.42,-290.5C508.42,-290.5 640.08,-290.5 640.08,-290.5 643.79,-290.5 647.5,-294.21 647.5,-297.92 647.5,-297.92 647.5,-305.33 647.5,-305.33 647.5,-309.04 643.79,-312.75 640.08,-312.75 640.08,-312.75 508.42,-312.75 508.42,-312.75 504.71,-312.75 501,-309.04 501,-305.33 501,-305.33 501,-297.92 501,-297.92 501,-294.21 504.71,-290.5 508.42,-290.5"/>
<text text-anchor="middle" x="574.25" y="-297.35" font-family="Times,serif" font-size="12.00">skip_until_if_true_end</text>
</g>
<!-- node_parse&#45;&gt;skip_until_if_true_end -->
<g id="edge18" class="edge">
<title>node_parse&#45;&gt;skip_until_if_true_end</title>
<path fill="none" stroke="black" d="M376.98,-219.57C395.37,-236.25 433.03,-267.76 471,-283.62 478.7,-286.84 486.96,-289.49 495.33,-291.66"/>
<polygon fill="black" stroke="black" points="494.86,-293.59 500.13,-293.09 495.7,-290.19 494.86,-293.59"/>
</g>
<!-- node_text_parse&#45;&gt;node_text_new -->
<g id="edge19" class="edge">
<title>node_text_parse&#45;&gt;node_text_new</title>
<path fill="none" stroke="black" d="M630.96,-56.93C660.38,-61.32 696.44,-66.7 726.06,-71.12"/>
<polygon fill="black" stroke="black" points="725.7,-72.98 730.9,-71.99 726.21,-69.52 725.7,-72.98"/>
</g>
<!-- skip_until_ch_or_end -->
<g id="node20" class="node">
<title>skip_until_ch_or_end</title>
<path fill="#ffffff" stroke="black" stroke-width="1.5" d="M720.92,-31.5C720.92,-31.5 847.33,-31.5 847.33,-31.5 851.04,-31.5 854.75,-35.21 854.75,-38.92 854.75,-38.92 854.75,-46.33 854.75,-46.33 854.75,-50.04 851.04,-53.75 847.33,-53.75 847.33,-53.75 720.92,-53.75 720.92,-53.75 717.21,-53.75 713.5,-50.04 713.5,-46.33 713.5,-46.33 713.5,-38.92 713.5,-38.92 713.5,-35.21 717.21,-31.5 720.92,-31.5"/>
<text text-anchor="middle" x="784.12" y="-38.35" font-family="Times,serif" font-size="12.00">skip_until_ch_or_end</text>
</g>
<!-- node_text_parse&#45;&gt;skip_until_ch_or_end -->
<g id="edge20" class="edge">
<title>node_text_parse&#45;&gt;skip_until_ch_or_end</title>
<path fill="none" stroke="black" d="M630.96,-47.02C654.66,-46.33 682.66,-45.52 708.14,-44.79"/>
<polygon fill="black" stroke="black" points="707.93,-46.52 712.88,-44.62 707.83,-43.02 707.93,-46.52"/>
</g>
<!-- node_tree_parse -->
<g id="node7" class="node">
<title>node_tree_parse</title>
<path fill="#ffffc0" stroke="black" stroke-width="1.5" d="M150.17,-178.5C150.17,-178.5 250.33,-178.5 250.33,-178.5 254.04,-178.5 257.75,-182.21 257.75,-185.92 257.75,-185.92 257.75,-193.33 257.75,-193.33 257.75,-197.04 254.04,-200.75 250.33,-200.75 250.33,-200.75 150.17,-200.75 150.17,-200.75 146.46,-200.75 142.75,-197.04 142.75,-193.33 142.75,-193.33 142.75,-185.92 142.75,-185.92 142.75,-182.21 146.46,-178.5 150.17,-178.5"/>
<text text-anchor="middle" x="200.25" y="-185.35" font-family="Times,serif" font-size="12.00">node_tree_parse</text>
</g>
<!-- node_tree_parse&#45;&gt;node_parse -->
<g id="edge22" class="edge">
<title>node_tree_parse&#45;&gt;node_parse</title>
<path fill="none" stroke="black" d="M257.5,-196.22C276.73,-198.47 298.02,-200.97 316.43,-203.12"/>
<polygon fill="black" stroke="black" points="315.88,-204.94 321.05,-203.78 316.29,-201.46 315.88,-204.94"/>
</g>
<!-- node_padding_repad -->
<g id="node21" class="node">
<title>node_padding_repad</title>
<path fill="#ffffff" stroke="black" stroke-width="1.5" d="M301.17,-160.5C301.17,-160.5 427.58,-160.5 427.58,-160.5 431.29,-160.5 435,-164.21 435,-167.92 435,-167.92 435,-175.33 435,-175.33 435,-179.04 431.29,-182.75 427.58,-182.75 427.58,-182.75 301.17,-182.75 301.17,-182.75 297.46,-182.75 293.75,-179.04 293.75,-175.33 293.75,-175.33 293.75,-167.92 293.75,-167.92 293.75,-164.21 297.46,-160.5 301.17,-160.5"/>
<text text-anchor="middle" x="364.38" y="-167.35" font-family="Times,serif" font-size="12.00">node_padding_repad</text>
</g>
<!-- node_tree_parse&#45;&gt;node_padding_repad -->
<g id="edge21" class="edge">
<title>node_tree_parse&#45;&gt;node_padding_repad</title>
<path fill="none" stroke="black" d="M257.5,-183.38C267.38,-182.28 277.8,-181.13 288.09,-179.98"/>
<polygon fill="black" stroke="black" points="288.02,-181.64 292.8,-179.35 287.63,-178.16 288.02,-181.64"/>
</g>
<!-- expando_parse -->
<g id="node9" class="node">
<title>expando_parse</title>
<path fill="#ffffff" stroke="black" stroke-width="1.5" d="M7.42,-178.5C7.42,-178.5 99.33,-178.5 99.33,-178.5 103.04,-178.5 106.75,-182.21 106.75,-185.92 106.75,-185.92 106.75,-193.33 106.75,-193.33 106.75,-197.04 103.04,-200.75 99.33,-200.75 99.33,-200.75 7.42,-200.75 7.42,-200.75 3.71,-200.75 0,-197.04 0,-193.33 0,-193.33 0,-185.92 0,-185.92 0,-182.21 3.71,-178.5 7.42,-178.5"/>
<text text-anchor="middle" x="53.38" y="-185.35" font-family="Times,serif" font-size="12.00">expando_parse</text>
</g>
<!-- expando_parse&#45;&gt;node_tree_parse -->
<g id="edge1" class="edge">
<title>expando_parse&#45;&gt;node_tree_parse</title>
<path fill="none" stroke="black" d="M106.68,-189.62C116.57,-189.62 127.01,-189.62 137.16,-189.62"/>
<polygon fill="black" stroke="black" points="137.11,-191.38 142.11,-189.62 137.11,-187.88 137.11,-191.38"/>
</g>
<!-- node_expando_parse_enclosure -->
<g id="node14" class="node">
<title>node_expando_parse_enclosure</title>
<path fill="#ffffff" stroke="black" stroke-width="1.5" d="M478.42,-142.5C478.42,-142.5 670.08,-142.5 670.08,-142.5 673.79,-142.5 677.5,-146.21 677.5,-149.92 677.5,-149.92 677.5,-157.33 677.5,-157.33 677.5,-161.04 673.79,-164.75 670.08,-164.75 670.08,-164.75 478.42,-164.75 478.42,-164.75 474.71,-164.75 471,-161.04 471,-157.33 471,-157.33 471,-149.92 471,-149.92 471,-146.21 474.71,-142.5 478.42,-142.5"/>
<text text-anchor="middle" x="574.25" y="-149.35" font-family="Times,serif" font-size="12.00">node_expando_parse_enclosure</text>
</g>
<!-- node_expando_parse_enclosure&#45;&gt;node_expando_new -->
<g id="edge6" class="edge">
<title>node_expando_parse_enclosure&#45;&gt;node_expando_new</title>
<path fill="none" stroke="black" d="M677.36,-153.62C689.08,-153.62 700.82,-153.62 712.01,-153.62"/>
<polygon fill="black" stroke="black" points="711.8,-155.38 716.8,-153.62 711.8,-151.88 711.8,-155.38"/>
</g>
<!-- node_expando_parse_enclosure&#45;&gt;parse_format -->
<g id="edge7" class="edge">
<title>node_expando_parse_enclosure&#45;&gt;parse_format</title>
<path fill="none" stroke="black" d="M638.53,-164.73C651.42,-167 664.9,-169.38 677.5,-171.62 694.64,-174.68 713.34,-178.03 730.18,-181.06"/>
<polygon fill="black" stroke="black" points="729.58,-182.91 734.81,-182.08 730.2,-179.47 729.58,-182.91"/>
</g>
</g>
</svg>
