<?xml version="1.0" encoding="UTF-8" standalone="no"?>
<!DOCTYPE svg PUBLIC "-//W3C//DTD SVG 1.1//EN"
 "http://www.w3.org/Graphics/SVG/1.1/DTD/svg11.dtd">
<!-- Generated by graphviz version 8.1.0 (20230707.0739)
 -->
<!-- Title: neomutt Pages: 1 -->
<svg width="1509pt" height="380pt"
 viewBox="0.00 0.00 1508.50 380.00" xmlns="http://www.w3.org/2000/svg" xmlns:xlink="http://www.w3.org/1999/xlink">
<g id="graph0" class="graph" transform="scale(1 1) rotate(0) translate(4 376)">
<title>neomutt</title>
<polygon fill="white" stroke="none" points="-4,4 -4,-376 1504.5,-376 1504.5,4 -4,4"/>
<!-- obj_0x1436270 -->
<g id="node1" class="node">
<title>obj_0x1436270</title>
<polygon fill="#ff8080" stroke="none" points="350,-343 350,-371 543,-371 543,-343 350,-343"/>
<text text-anchor="start" x="351.62" y="-351" font-family="Times,serif" font-weight="bold" font-size="20.00" fill="#000000">Condition</text>
<text text-anchor="start" x="461.12" y="-351" font-family="Times,serif" font-size="14.00"> </text>
<text text-anchor="start" x="465.62" y="-351" font-family="Times,serif" font-size="12.00">(0x1436270)</text>
<text text-anchor="start" x="352" y="-327.7" font-family="Times,serif" font-size="14.00">did</text>
<text text-anchor="start" x="464" y="-327.7" font-family="Times,serif" font-size="14.00">=</text>
<text text-anchor="start" x="497" y="-327.7" font-family="Times,serif" font-size="14.00">0</text>
<text text-anchor="start" x="352" y="-306.7" font-family="Times,serif" font-size="14.00">uid</text>
<text text-anchor="start" x="464" y="-306.7" font-family="Times,serif" font-size="14.00">=</text>
<text text-anchor="start" x="497" y="-306.7" font-family="Times,serif" font-size="14.00">3</text>
<polygon fill="#d0d0d0" stroke="#d0d0d0" points="349,-343 349,-343 544,-343 544,-343 349,-343"/>
<polygon fill="#d0d0d0" stroke="#d0d0d0" points="349,-322 349,-322 445,-322 445,-322 349,-322"/>
<polygon fill="#d0d0d0" stroke="#d0d0d0" points="445,-322 445,-322 495,-322 495,-322 445,-322"/>
<polygon fill="#d0d0d0" stroke="#d0d0d0" points="495,-322 495,-322 544,-322 544,-322 495,-322"/>
<polygon fill="none" stroke="#d0d0d0" points="349,-300 349,-372 544,-372 544,-300 349,-300"/>
</g>
<!-- obj_0x1435f50 -->
<g id="node2" class="node">
<title>obj_0x1435f50</title>
<polygon fill="#80ff80" stroke="none" points="139,-235 139,-263 316,-263 316,-235 139,-235"/>
<text text-anchor="start" x="140.88" y="-243" font-family="Times,serif" font-weight="bold" font-size="20.00" fill="#000000">Expando</text>
<text text-anchor="start" x="236.88" y="-243" font-family="Times,serif" font-size="14.00"> </text>
<text text-anchor="start" x="241.38" y="-243" font-family="Times,serif" font-size="12.00">(0x1435f50)</text>
<text text-anchor="start" x="141" y="-219.7" font-family="Times,serif" font-size="14.00">type</text>
<text text-anchor="start" x="242" y="-219.7" font-family="Times,serif" font-size="14.00">=</text>
<text text-anchor="start" x="269" y="-219.7" font-family="Times,serif" font-size="14.00">2</text>
<text text-anchor="start" x="141" y="-198.7" font-family="Times,serif" font-size="14.00">did</text>
<text text-anchor="start" x="242" y="-198.7" font-family="Times,serif" font-size="14.00">=</text>
<text text-anchor="start" x="269" y="-198.7" font-family="Times,serif" font-size="14.00">7</text>
<text text-anchor="start" x="141" y="-177.7" font-family="Times,serif" font-size="14.00">uid</text>
<text text-anchor="start" x="242" y="-177.7" font-family="Times,serif" font-size="14.00">=</text>
<text text-anchor="start" x="269" y="-177.7" font-family="Times,serif" font-size="14.00">1</text>
<text text-anchor="start" x="141" y="-156.7" font-family="Times,serif" font-size="14.00">string</text>
<text text-anchor="start" x="242" y="-156.7" font-family="Times,serif" font-size="14.00">=</text>
<text text-anchor="start" x="269" y="-156.7" font-family="Times,serif" font-size="14.00">&quot;X&quot;</text>
<polygon fill="#d0d0d0" stroke="#d0d0d0" points="138,-235 138,-235 317,-235 317,-235 138,-235"/>
<polygon fill="#d0d0d0" stroke="#d0d0d0" points="138,-214 138,-214 229,-214 229,-214 138,-214"/>
<polygon fill="#d0d0d0" stroke="#d0d0d0" points="229,-214 229,-214 267,-214 267,-214 229,-214"/>
<polygon fill="#d0d0d0" stroke="#d0d0d0" points="267,-214 267,-214 317,-214 317,-214 267,-214"/>
<polygon fill="#d0d0d0" stroke="#d0d0d0" points="138,-193 138,-193 229,-193 229,-193 138,-193"/>
<polygon fill="#d0d0d0" stroke="#d0d0d0" points="229,-193 229,-193 267,-193 267,-193 229,-193"/>
<polygon fill="#d0d0d0" stroke="#d0d0d0" points="267,-193 267,-193 317,-193 317,-193 267,-193"/>
<polygon fill="#d0d0d0" stroke="#d0d0d0" points="138,-172 138,-172 229,-172 229,-172 138,-172"/>
<polygon fill="#d0d0d0" stroke="#d0d0d0" points="229,-172 229,-172 267,-172 267,-172 229,-172"/>
<polygon fill="#d0d0d0" stroke="#d0d0d0" points="267,-172 267,-172 317,-172 317,-172 267,-172"/>
<polygon fill="none" stroke="#d0d0d0" points="138,-150 138,-264 317,-264 317,-150 138,-150"/>
</g>
<!-- obj_0x1436270&#45;&gt;obj_0x1435f50 -->
<g id="edge1" class="edge">
<title>obj_0x1436270&#45;&gt;obj_0x1435f50</title>
<g id="a_edge1"><a xlink:title="Condition&#45;&gt;condition">
<path fill="none" stroke="#ff80ff" stroke-width="4.5" d="M386.37,-300.13C368.96,-290.03 349.45,-278.72 330.22,-267.57"/>
<polygon fill="#ff80ff" stroke="#ff80ff" stroke-width="4.5" points="332.27,-264.3 321.64,-262.69 328.32,-271.12 332.27,-264.3"/>
</a>
</g>
</g>
<!-- obj_0x1436010 -->
<g id="node3" class="node">
<title>obj_0x1436010</title>
<polygon fill="#80ffff" stroke="none" points="354.5,-214 354.5,-242 538.5,-242 538.5,-214 354.5,-214"/>
<text text-anchor="start" x="356.5" y="-222" font-family="Times,serif" font-weight="bold" font-size="20.00" fill="#000000">Pad</text>
<text text-anchor="start" x="397.75" y="-222" font-family="Times,serif" font-size="14.00"> </text>
<text text-anchor="start" x="402.25" y="-222" font-family="Times,serif" font-size="12.00">(0x1436010)</text>
<text text-anchor="start" x="356.25" y="-198.7" font-family="Times,serif" font-size="14.00">type</text>
<text text-anchor="start" x="391.5" y="-198.7" font-family="Times,serif" font-size="14.00">=</text>
<text text-anchor="start" x="407.5" y="-198.7" font-family="Times,serif" font-size="14.00">&quot;EPT_SOFT_FILL&quot;</text>
<text text-anchor="start" x="356.25" y="-177.7" font-family="Times,serif" font-size="14.00">char</text>
<text text-anchor="start" x="391.5" y="-177.7" font-family="Times,serif" font-size="14.00">=</text>
<text text-anchor="start" x="407.5" y="-177.7" font-family="Times,serif" font-size="14.00">&quot;.&quot;</text>
<polygon fill="#d0d0d0" stroke="#d0d0d0" points="353.5,-214 353.5,-214 539.5,-214 539.5,-214 353.5,-214"/>
<polygon fill="#d0d0d0" stroke="#d0d0d0" points="353.5,-193 353.5,-193 389.5,-193 389.5,-193 353.5,-193"/>
<polygon fill="#d0d0d0" stroke="#d0d0d0" points="389.5,-193 389.5,-193 405.5,-193 405.5,-193 389.5,-193"/>
<polygon fill="#d0d0d0" stroke="#d0d0d0" points="405.5,-193 405.5,-193 539.5,-193 539.5,-193 405.5,-193"/>
<polygon fill="none" stroke="#d0d0d0" points="353.5,-171 353.5,-243 539.5,-243 539.5,-171 353.5,-171"/>
</g>
<!-- obj_0x1436270&#45;&gt;obj_0x1436010 -->
<g id="edge6" class="edge">
<title>obj_0x1436270&#45;&gt;obj_0x1436010</title>
<g id="a_edge6"><a xlink:title="Condition&#45;&gt;true">
<path fill="none" stroke="#80ff80" stroke-width="4.5" d="M446.5,-300.3C446.5,-287.42 446.5,-272.53 446.5,-258.53"/>
<polygon fill="#80ff80" stroke="#80ff80" stroke-width="4.5" points="450.44,-258.66 446.5,-248.66 442.56,-258.66 450.44,-258.66"/>
</a>
</g>
</g>
<!-- obj_0x1436180 -->
<g id="node8" class="node">
<title>obj_0x1436180</title>
<polygon fill="#80ffff" stroke="none" points="740.5,-214 740.5,-242 924.5,-242 924.5,-214 740.5,-214"/>
<text text-anchor="start" x="742.5" y="-222" font-family="Times,serif" font-weight="bold" font-size="20.00" fill="#000000">Pad</text>
<text text-anchor="start" x="783.75" y="-222" font-family="Times,serif" font-size="14.00"> </text>
<text text-anchor="start" x="788.25" y="-222" font-family="Times,serif" font-size="12.00">(0x1436180)</text>
<text text-anchor="start" x="742.25" y="-198.7" font-family="Times,serif" font-size="14.00">type</text>
<text text-anchor="start" x="777.5" y="-198.7" font-family="Times,serif" font-size="14.00">=</text>
<text text-anchor="start" x="793.5" y="-198.7" font-family="Times,serif" font-size="14.00">&quot;EPT_SOFT_FILL&quot;</text>
<text text-anchor="start" x="742.25" y="-177.7" font-family="Times,serif" font-size="14.00">char</text>
<text text-anchor="start" x="777.5" y="-177.7" font-family="Times,serif" font-size="14.00">=</text>
<text text-anchor="start" x="793.5" y="-177.7" font-family="Times,serif" font-size="14.00">&quot;.&quot;</text>
<polygon fill="#d0d0d0" stroke="#d0d0d0" points="739.5,-214 739.5,-214 925.5,-214 925.5,-214 739.5,-214"/>
<polygon fill="#d0d0d0" stroke="#d0d0d0" points="739.5,-193 739.5,-193 775.5,-193 775.5,-193 739.5,-193"/>
<polygon fill="#d0d0d0" stroke="#d0d0d0" points="775.5,-193 775.5,-193 791.5,-193 791.5,-193 775.5,-193"/>
<polygon fill="#d0d0d0" stroke="#d0d0d0" points="791.5,-193 791.5,-193 925.5,-193 925.5,-193 791.5,-193"/>
<polygon fill="none" stroke="#d0d0d0" points="739.5,-171 739.5,-243 925.5,-243 925.5,-171 739.5,-171"/>
</g>
<!-- obj_0x1436270&#45;&gt;obj_0x1436180 -->
<g id="edge11" class="edge">
<title>obj_0x1436270&#45;&gt;obj_0x1436180</title>
<g id="a_edge11"><a xlink:title="Condition&#45;&gt;false">
<path fill="none" stroke="#ff8080" stroke-width="4.5" d="M543.9,-302.95C599.05,-284.81 668.14,-262.08 724.88,-243.41"/>
<polygon fill="#ff8080" stroke="#ff8080" stroke-width="4.5" points="726.51,-246.37 734.78,-239.51 724.05,-238.89 726.51,-246.37"/>
</a>
</g>
</g>
<!-- obj_0x1435f90 -->
<g id="node4" class="node">
<title>obj_0x1435f90</title>
<polygon fill="#80ff80" stroke="none" points="1,-85 1,-113 178,-113 178,-85 1,-85"/>
<text text-anchor="start" x="2.88" y="-93" font-family="Times,serif" font-weight="bold" font-size="20.00" fill="#000000">Expando</text>
<text text-anchor="start" x="98.88" y="-93" font-family="Times,serif" font-size="14.00"> </text>
<text text-anchor="start" x="103.38" y="-93" font-family="Times,serif" font-size="12.00">(0x1435f90)</text>
<text text-anchor="start" x="3" y="-69.7" font-family="Times,serif" font-size="14.00">type</text>
<text text-anchor="start" x="105" y="-69.7" font-family="Times,serif" font-size="14.00">=</text>
<text text-anchor="start" x="132" y="-69.7" font-family="Times,serif" font-size="14.00">2</text>
<text text-anchor="start" x="3" y="-48.7" font-family="Times,serif" font-size="14.00">did</text>
<text text-anchor="start" x="105" y="-48.7" font-family="Times,serif" font-size="14.00">=</text>
<text text-anchor="start" x="132" y="-48.7" font-family="Times,serif" font-size="14.00">8</text>
<text text-anchor="start" x="3" y="-27.7" font-family="Times,serif" font-size="14.00">uid</text>
<text text-anchor="start" x="105" y="-27.7" font-family="Times,serif" font-size="14.00">=</text>
<text text-anchor="start" x="132" y="-27.7" font-family="Times,serif" font-size="14.00">3</text>
<text text-anchor="start" x="3" y="-6.7" font-family="Times,serif" font-size="14.00">string</text>
<text text-anchor="start" x="105" y="-6.7" font-family="Times,serif" font-size="14.00">=</text>
<text text-anchor="start" x="132" y="-6.7" font-family="Times,serif" font-size="14.00">&quot;a&quot;</text>
<polygon fill="#d0d0d0" stroke="#d0d0d0" points="0,-85 0,-85 179,-85 179,-85 0,-85"/>
<polygon fill="#d0d0d0" stroke="#d0d0d0" points="0,-64 0,-64 92,-64 92,-64 0,-64"/>
<polygon fill="#d0d0d0" stroke="#d0d0d0" points="92,-64 92,-64 130,-64 130,-64 92,-64"/>
<polygon fill="#d0d0d0" stroke="#d0d0d0" points="130,-64 130,-64 179,-64 179,-64 130,-64"/>
<polygon fill="#d0d0d0" stroke="#d0d0d0" points="0,-43 0,-43 92,-43 92,-43 0,-43"/>
<polygon fill="#d0d0d0" stroke="#d0d0d0" points="92,-43 92,-43 130,-43 130,-43 92,-43"/>
<polygon fill="#d0d0d0" stroke="#d0d0d0" points="130,-43 130,-43 179,-43 179,-43 130,-43"/>
<polygon fill="#d0d0d0" stroke="#d0d0d0" points="0,-22 0,-22 92,-22 92,-22 0,-22"/>
<polygon fill="#d0d0d0" stroke="#d0d0d0" points="92,-22 92,-22 130,-22 130,-22 92,-22"/>
<polygon fill="#d0d0d0" stroke="#d0d0d0" points="130,-22 130,-22 179,-22 179,-22 130,-22"/>
<polygon fill="none" stroke="#d0d0d0" points="0,0 0,-114 179,-114 179,0 0,0"/>
</g>
<!-- obj_0x1436010&#45;&gt;obj_0x1435f90 -->
<g id="edge3" class="edge">
<title>obj_0x1436010&#45;&gt;obj_0x1435f90</title>
<g id="a_edge3"><a xlink:title="Pad&#45;&gt;left">
<path fill="none" stroke="#80ff80" stroke-width="4.5" d="M382.38,-171.08C366.97,-163.49 350.37,-155.96 334.5,-150 275.16,-127.71 255.63,-136.84 196.5,-114 195.4,-113.57 194.3,-113.14 193.19,-112.7"/>
<polygon fill="#80ff80" stroke="#80ff80" stroke-width="4.5" points="194.46,-108.85 183.72,-108.57 191.39,-116.1 194.46,-108.85"/>
</a>
</g>
</g>
<!-- obj_0x1436080 -->
<g id="node6" class="node">
<title>obj_0x1436080</title>
<polygon fill="#ffff80" stroke="none" points="381.5,-53.5 381.5,-81.5 511.5,-81.5 511.5,-53.5 381.5,-53.5"/>
<text text-anchor="start" x="383.12" y="-61.5" font-family="Times,serif" font-weight="bold" font-size="20.00" fill="#000000">Text</text>
<text text-anchor="start" x="429.62" y="-61.5" font-family="Times,serif" font-size="14.00"> </text>
<text text-anchor="start" x="434.12" y="-61.5" font-family="Times,serif" font-size="12.00">(0x1436080)</text>
<text text-anchor="start" x="383.5" y="-38.2" font-family="Times,serif" font-size="14.00">text</text>
<text text-anchor="start" x="450.5" y="-38.2" font-family="Times,serif" font-size="14.00">=</text>
<text text-anchor="start" x="473.5" y="-38.2" font-family="Times,serif" font-size="14.00">&quot;c&quot;</text>
<polygon fill="#d0d0d0" stroke="#d0d0d0" points="380.5,-53.5 380.5,-53.5 512.5,-53.5 512.5,-53.5 380.5,-53.5"/>
<polygon fill="none" stroke="#d0d0d0" points="380.5,-31.5 380.5,-82.5 512.5,-82.5 512.5,-31.5 380.5,-31.5"/>
</g>
<!-- obj_0x1436010&#45;&gt;obj_0x1436080 -->
<g id="edge5" class="edge">
<title>obj_0x1436010&#45;&gt;obj_0x1436080</title>
<g id="a_edge5"><a xlink:title="Pad&#45;&gt;right">
<path fill="none" stroke="#ff8080" stroke-width="4.5" d="M446.5,-171.3C446.5,-149.41 446.5,-121.05 446.5,-98.18"/>
<polygon fill="#ff8080" stroke="#ff8080" stroke-width="4.5" points="450.44,-98.31 446.5,-88.31 442.56,-98.31 450.44,-98.31"/>
</a>
</g>
</g>
<!-- obj_0x1435fd0 -->
<g id="node5" class="node">
<title>obj_0x1435fd0</title>
<polygon fill="#ffff80" stroke="none" points="216,-53.5 216,-81.5 343,-81.5 343,-53.5 216,-53.5"/>
<text text-anchor="start" x="217.62" y="-61.5" font-family="Times,serif" font-weight="bold" font-size="20.00" fill="#000000">Text</text>
<text text-anchor="start" x="264.12" y="-61.5" font-family="Times,serif" font-size="14.00"> </text>
<text text-anchor="start" x="268.62" y="-61.5" font-family="Times,serif" font-size="12.00">(0x1435fd0)</text>
<text text-anchor="start" x="218" y="-38.2" font-family="Times,serif" font-size="14.00">text</text>
<text text-anchor="start" x="282.5" y="-38.2" font-family="Times,serif" font-size="14.00">=</text>
<text text-anchor="start" x="305" y="-38.2" font-family="Times,serif" font-size="14.00">&quot;b&quot;</text>
<polygon fill="#d0d0d0" stroke="#d0d0d0" points="215,-53.5 215,-53.5 344,-53.5 344,-53.5 215,-53.5"/>
<polygon fill="none" stroke="#d0d0d0" points="215,-31.5 215,-82.5 344,-82.5 344,-31.5 215,-31.5"/>
</g>
<!-- obj_0x1435f90&#45;&gt;obj_0x1435fd0 -->
<g id="edge2" class="edge">
<title>obj_0x1435f90&#45;&gt;obj_0x1435fd0</title>
<g id="a_edge2"><a xlink:title="ExpandoNode&#45;&gt;next">
<path fill="none" stroke="#808080" stroke-width="4.5" d="M178.93,-57C185.71,-57 192.49,-57 199.26,-57"/>
<polygon fill="#808080" stroke="#808080" stroke-width="4.5" points="199.07,-60.94 209.07,-57 199.07,-53.06 199.07,-60.94"/>
</a>
</g>
</g>
<!-- obj_0x14360c0 -->
<g id="node7" class="node">
<title>obj_0x14360c0</title>
<polygon fill="#80ff80" stroke="none" points="550,-85 550,-113 729,-113 729,-85 550,-85"/>
<text text-anchor="start" x="551.75" y="-93" font-family="Times,serif" font-weight="bold" font-size="20.00" fill="#000000">Expando</text>
<text text-anchor="start" x="647.75" y="-93" font-family="Times,serif" font-size="14.00"> </text>
<text text-anchor="start" x="652.25" y="-93" font-family="Times,serif" font-size="12.00">(0x14360c0)</text>
<text text-anchor="start" x="552" y="-69.7" font-family="Times,serif" font-size="14.00">type</text>
<text text-anchor="start" x="654.5" y="-69.7" font-family="Times,serif" font-size="14.00">=</text>
<text text-anchor="start" x="682" y="-69.7" font-family="Times,serif" font-size="14.00">2</text>
<text text-anchor="start" x="552" y="-48.7" font-family="Times,serif" font-size="14.00">did</text>
<text text-anchor="start" x="654.5" y="-48.7" font-family="Times,serif" font-size="14.00">=</text>
<text text-anchor="start" x="682" y="-48.7" font-family="Times,serif" font-size="14.00">7</text>
<text text-anchor="start" x="552" y="-27.7" font-family="Times,serif" font-size="14.00">uid</text>
<text text-anchor="start" x="654.5" y="-27.7" font-family="Times,serif" font-size="14.00">=</text>
<text text-anchor="start" x="682" y="-27.7" font-family="Times,serif" font-size="14.00">4</text>
<text text-anchor="start" x="552" y="-6.7" font-family="Times,serif" font-size="14.00">string</text>
<text text-anchor="start" x="654.5" y="-6.7" font-family="Times,serif" font-size="14.00">=</text>
<text text-anchor="start" x="682" y="-6.7" font-family="Times,serif" font-size="14.00">&quot;d&quot;</text>
<polygon fill="#d0d0d0" stroke="#d0d0d0" points="549,-85 549,-85 730,-85 730,-85 549,-85"/>
<polygon fill="#d0d0d0" stroke="#d0d0d0" points="549,-64 549,-64 641,-64 641,-64 549,-64"/>
<polygon fill="#d0d0d0" stroke="#d0d0d0" points="641,-64 641,-64 680,-64 680,-64 641,-64"/>
<polygon fill="#d0d0d0" stroke="#d0d0d0" points="680,-64 680,-64 730,-64 730,-64 680,-64"/>
<polygon fill="#d0d0d0" stroke="#d0d0d0" points="549,-43 549,-43 641,-43 641,-43 549,-43"/>
<polygon fill="#d0d0d0" stroke="#d0d0d0" points="641,-43 641,-43 680,-43 680,-43 641,-43"/>
<polygon fill="#d0d0d0" stroke="#d0d0d0" points="680,-43 680,-43 730,-43 730,-43 680,-43"/>
<polygon fill="#d0d0d0" stroke="#d0d0d0" points="549,-22 549,-22 641,-22 641,-22 549,-22"/>
<polygon fill="#d0d0d0" stroke="#d0d0d0" points="641,-22 641,-22 680,-22 680,-22 641,-22"/>
<polygon fill="#d0d0d0" stroke="#d0d0d0" points="680,-22 680,-22 730,-22 730,-22 680,-22"/>
<polygon fill="none" stroke="#d0d0d0" points="549,0 549,-114 730,-114 730,0 549,0"/>
</g>
<!-- obj_0x1436080&#45;&gt;obj_0x14360c0 -->
<g id="edge4" class="edge">
<title>obj_0x1436080&#45;&gt;obj_0x14360c0</title>
<g id="a_edge4"><a xlink:title="ExpandoNode&#45;&gt;next">
<path fill="none" stroke="#808080" stroke-width="4.5" d="M512.47,-57C519.45,-57 526.43,-57 533.41,-57"/>
<polygon fill="#808080" stroke="#808080" stroke-width="4.5" points="533.19,-60.94 543.19,-57 533.19,-53.06 533.19,-60.94"/>
</a>
</g>
</g>
<!-- obj_0x1436100 -->
<g id="node9" class="node">
<title>obj_0x1436100</title>
<polygon fill="#ffff80" stroke="none" points="767.5,-53.5 767.5,-81.5 897.5,-81.5 897.5,-53.5 767.5,-53.5"/>
<text text-anchor="start" x="769.12" y="-61.5" font-family="Times,serif" font-weight="bold" font-size="20.00" fill="#000000">Text</text>
<text text-anchor="start" x="815.62" y="-61.5" font-family="Times,serif" font-size="14.00"> </text>
<text text-anchor="start" x="820.12" y="-61.5" font-family="Times,serif" font-size="12.00">(0x1436100)</text>
<text text-anchor="start" x="769.5" y="-38.2" font-family="Times,serif" font-size="14.00">text</text>
<text text-anchor="start" x="833" y="-38.2" font-family="Times,serif" font-size="14.00">=</text>
<text text-anchor="start" x="855.5" y="-38.2" font-family="Times,serif" font-size="14.00">&quot;W&quot;</text>
<polygon fill="#d0d0d0" stroke="#d0d0d0" points="766.5,-53.5 766.5,-53.5 898.5,-53.5 898.5,-53.5 766.5,-53.5"/>
<polygon fill="none" stroke="#d0d0d0" points="766.5,-31.5 766.5,-82.5 898.5,-82.5 898.5,-31.5 766.5,-31.5"/>
</g>
<!-- obj_0x1436180&#45;&gt;obj_0x1436100 -->
<g id="edge8" class="edge">
<title>obj_0x1436180&#45;&gt;obj_0x1436100</title>
<g id="a_edge8"><a xlink:title="Pad&#45;&gt;left">
<path fill="none" stroke="#80ff80" stroke-width="4.5" d="M832.5,-171.3C832.5,-149.41 832.5,-121.05 832.5,-98.18"/>
<polygon fill="#80ff80" stroke="#80ff80" stroke-width="4.5" points="836.44,-98.31 832.5,-88.31 828.56,-98.31 836.44,-98.31"/>
</a>
</g>
</g>
<!-- obj_0x14361f0 -->
<g id="node11" class="node">
<title>obj_0x14361f0</title>
<polygon fill="#80ff80" stroke="none" points="1154,-85 1154,-113 1331,-113 1331,-85 1154,-85"/>
<text text-anchor="start" x="1155.88" y="-93" font-family="Times,serif" font-weight="bold" font-size="20.00" fill="#000000">Expando</text>
<text text-anchor="start" x="1251.88" y="-93" font-family="Times,serif" font-size="14.00"> </text>
<text text-anchor="start" x="1256.38" y="-93" font-family="Times,serif" font-size="12.00">(0x14361f0)</text>
<text text-anchor="start" x="1156" y="-69.7" font-family="Times,serif" font-size="14.00">type</text>
<text text-anchor="start" x="1257" y="-69.7" font-family="Times,serif" font-size="14.00">=</text>
<text text-anchor="start" x="1284" y="-69.7" font-family="Times,serif" font-size="14.00">2</text>
<text text-anchor="start" x="1156" y="-48.7" font-family="Times,serif" font-size="14.00">did</text>
<text text-anchor="start" x="1257" y="-48.7" font-family="Times,serif" font-size="14.00">=</text>
<text text-anchor="start" x="1284" y="-48.7" font-family="Times,serif" font-size="14.00">8</text>
<text text-anchor="start" x="1156" y="-27.7" font-family="Times,serif" font-size="14.00">uid</text>
<text text-anchor="start" x="1257" y="-27.7" font-family="Times,serif" font-size="14.00">=</text>
<text text-anchor="start" x="1284" y="-27.7" font-family="Times,serif" font-size="14.00">17</text>
<text text-anchor="start" x="1156" y="-6.7" font-family="Times,serif" font-size="14.00">string</text>
<text text-anchor="start" x="1257" y="-6.7" font-family="Times,serif" font-size="14.00">=</text>
<text text-anchor="start" x="1284" y="-6.7" font-family="Times,serif" font-size="14.00">&quot;Y&quot;</text>
<polygon fill="#d0d0d0" stroke="#d0d0d0" points="1153,-85 1153,-85 1332,-85 1332,-85 1153,-85"/>
<polygon fill="#d0d0d0" stroke="#d0d0d0" points="1153,-64 1153,-64 1244,-64 1244,-64 1153,-64"/>
<polygon fill="#d0d0d0" stroke="#d0d0d0" points="1244,-64 1244,-64 1282,-64 1282,-64 1244,-64"/>
<polygon fill="#d0d0d0" stroke="#d0d0d0" points="1282,-64 1282,-64 1332,-64 1332,-64 1282,-64"/>
<polygon fill="#d0d0d0" stroke="#d0d0d0" points="1153,-43 1153,-43 1244,-43 1244,-43 1153,-43"/>
<polygon fill="#d0d0d0" stroke="#d0d0d0" points="1244,-43 1244,-43 1282,-43 1282,-43 1244,-43"/>
<polygon fill="#d0d0d0" stroke="#d0d0d0" points="1282,-43 1282,-43 1332,-43 1332,-43 1282,-43"/>
<polygon fill="#d0d0d0" stroke="#d0d0d0" points="1153,-22 1153,-22 1244,-22 1244,-22 1153,-22"/>
<polygon fill="#d0d0d0" stroke="#d0d0d0" points="1244,-22 1244,-22 1282,-22 1282,-22 1244,-22"/>
<polygon fill="#d0d0d0" stroke="#d0d0d0" points="1282,-22 1282,-22 1332,-22 1332,-22 1282,-22"/>
<polygon fill="none" stroke="#d0d0d0" points="1153,0 1153,-114 1332,-114 1332,0 1153,0"/>
</g>
<!-- obj_0x1436180&#45;&gt;obj_0x14361f0 -->
<g id="edge10" class="edge">
<title>obj_0x1436180&#45;&gt;obj_0x14361f0</title>
<g id="a_edge10"><a xlink:title="Pad&#45;&gt;right">
<path fill="none" stroke="#ff8080" stroke-width="4.5" d="M925.2,-182.49C985.74,-165.98 1065.98,-141.93 1134.5,-114 1135.94,-113.41 1137.39,-112.81 1138.85,-112.2"/>
<polygon fill="#ff8080" stroke="#ff8080" stroke-width="4.5" points="1140.65,-115.51 1148.22,-107.87 1137.48,-108.3 1140.65,-115.51"/>
</a>
</g>
</g>
<!-- obj_0x1436140 -->
<g id="node10" class="node">
<title>obj_0x1436140</title>
<polygon fill="#80ff80" stroke="none" points="935.5,-85 935.5,-113 1115.5,-113 1115.5,-85 935.5,-85"/>
<text text-anchor="start" x="937.38" y="-93" font-family="Times,serif" font-weight="bold" font-size="20.00" fill="#000000">Expando</text>
<text text-anchor="start" x="1033.38" y="-93" font-family="Times,serif" font-size="14.00"> </text>
<text text-anchor="start" x="1037.88" y="-93" font-family="Times,serif" font-size="12.00">(0x1436140)</text>
<text text-anchor="start" x="937.5" y="-69.7" font-family="Times,serif" font-size="14.00">type</text>
<text text-anchor="start" x="1040" y="-69.7" font-family="Times,serif" font-size="14.00">=</text>
<text text-anchor="start" x="1067.5" y="-69.7" font-family="Times,serif" font-size="14.00">2</text>
<text text-anchor="start" x="937.5" y="-48.7" font-family="Times,serif" font-size="14.00">did</text>
<text text-anchor="start" x="1040" y="-48.7" font-family="Times,serif" font-size="14.00">=</text>
<text text-anchor="start" x="1067.5" y="-48.7" font-family="Times,serif" font-size="14.00">7</text>
<text text-anchor="start" x="937.5" y="-27.7" font-family="Times,serif" font-size="14.00">uid</text>
<text text-anchor="start" x="1040" y="-27.7" font-family="Times,serif" font-size="14.00">=</text>
<text text-anchor="start" x="1067.5" y="-27.7" font-family="Times,serif" font-size="14.00">1</text>
<text text-anchor="start" x="937.5" y="-6.7" font-family="Times,serif" font-size="14.00">string</text>
<text text-anchor="start" x="1040" y="-6.7" font-family="Times,serif" font-size="14.00">=</text>
<text text-anchor="start" x="1067.5" y="-6.7" font-family="Times,serif" font-size="14.00">&quot;X&quot;</text>
<polygon fill="#d0d0d0" stroke="#d0d0d0" points="934.5,-85 934.5,-85 1116.5,-85 1116.5,-85 934.5,-85"/>
<polygon fill="#d0d0d0" stroke="#d0d0d0" points="934.5,-64 934.5,-64 1026.5,-64 1026.5,-64 934.5,-64"/>
<polygon fill="#d0d0d0" stroke="#d0d0d0" points="1026.5,-64 1026.5,-64 1065.5,-64 1065.5,-64 1026.5,-64"/>
<polygon fill="#d0d0d0" stroke="#d0d0d0" points="1065.5,-64 1065.5,-64 1116.5,-64 1116.5,-64 1065.5,-64"/>
<polygon fill="#d0d0d0" stroke="#d0d0d0" points="934.5,-43 934.5,-43 1026.5,-43 1026.5,-43 934.5,-43"/>
<polygon fill="#d0d0d0" stroke="#d0d0d0" points="1026.5,-43 1026.5,-43 1065.5,-43 1065.5,-43 1026.5,-43"/>
<polygon fill="#d0d0d0" stroke="#d0d0d0" points="1065.5,-43 1065.5,-43 1116.5,-43 1116.5,-43 1065.5,-43"/>
<polygon fill="#d0d0d0" stroke="#d0d0d0" points="934.5,-22 934.5,-22 1026.5,-22 1026.5,-22 934.5,-22"/>
<polygon fill="#d0d0d0" stroke="#d0d0d0" points="1026.5,-22 1026.5,-22 1065.5,-22 1065.5,-22 1026.5,-22"/>
<polygon fill="#d0d0d0" stroke="#d0d0d0" points="1065.5,-22 1065.5,-22 1116.5,-22 1116.5,-22 1065.5,-22"/>
<polygon fill="none" stroke="#d0d0d0" points="934.5,0 934.5,-114 1116.5,-114 1116.5,0 934.5,0"/>
</g>
<!-- obj_0x1436100&#45;&gt;obj_0x1436140 -->
<g id="edge7" class="edge">
<title>obj_0x1436100&#45;&gt;obj_0x1436140</title>
<g id="a_edge7"><a xlink:title="ExpandoNode&#45;&gt;next">
<path fill="none" stroke="#808080" stroke-width="4.5" d="M898.47,-57C905.26,-57 912.05,-57 918.84,-57"/>
<polygon fill="#808080" stroke="#808080" stroke-width="4.5" points="918.69,-60.94 928.69,-57 918.69,-53.06 918.69,-60.94"/>
</a>
</g>
</g>
<!-- obj_0x1436230 -->
<g id="node12" class="node">
<title>obj_0x1436230</title>
<polygon fill="#ffff80" stroke="none" points="1369.5,-53.5 1369.5,-81.5 1499.5,-81.5 1499.5,-53.5 1369.5,-53.5"/>
<text text-anchor="start" x="1371.12" y="-61.5" font-family="Times,serif" font-weight="bold" font-size="20.00" fill="#000000">Text</text>
<text text-anchor="start" x="1417.62" y="-61.5" font-family="Times,serif" font-size="14.00"> </text>
<text text-anchor="start" x="1422.12" y="-61.5" font-family="Times,serif" font-size="12.00">(0x1436230)</text>
<text text-anchor="start" x="1371.5" y="-38.2" font-family="Times,serif" font-size="14.00">text</text>
<text text-anchor="start" x="1437.5" y="-38.2" font-family="Times,serif" font-size="14.00">=</text>
<text text-anchor="start" x="1460.5" y="-38.2" font-family="Times,serif" font-size="14.00">&quot;Z&quot;</text>
<polygon fill="#d0d0d0" stroke="#d0d0d0" points="1368.5,-53.5 1368.5,-53.5 1500.5,-53.5 1500.5,-53.5 1368.5,-53.5"/>
<polygon fill="none" stroke="#d0d0d0" points="1368.5,-31.5 1368.5,-82.5 1500.5,-82.5 1500.5,-31.5 1368.5,-31.5"/>
</g>
<!-- obj_0x14361f0&#45;&gt;obj_0x1436230 -->
<g id="edge9" class="edge">
<title>obj_0x14361f0&#45;&gt;obj_0x1436230</title>
<g id="a_edge9"><a xlink:title="ExpandoNode&#45;&gt;next">
<path fill="none" stroke="#808080" stroke-width="4.5" d="M1331.75,-57C1338.77,-57 1345.79,-57 1352.81,-57"/>
<polygon fill="#808080" stroke="#808080" stroke-width="4.5" points="1352.68,-60.94 1362.68,-57 1352.68,-53.06 1352.68,-60.94"/>
</a>
</g>
</g>
</g>
</svg>
