<?xml version="1.0" encoding="UTF-8" standalone="no"?>
<!DOCTYPE svg PUBLIC "-//W3C//DTD SVG 1.1//EN"
 "http://www.w3.org/Graphics/SVG/1.1/DTD/svg11.dtd">
<!-- Generated by graphviz version 8.1.0 (20230707.0739)
 -->
<!-- Title: neomutt Pages: 1 -->
<svg width="1294pt" height="122pt"
 viewBox="0.00 0.00 1293.50 122.00" xmlns="http://www.w3.org/2000/svg" xmlns:xlink="http://www.w3.org/1999/xlink">
<g id="graph0" class="graph" transform="scale(1 1) rotate(0) translate(4 118)">
<title>neomutt</title>
<polygon fill="white" stroke="none" points="-4,4 -4,-118 1289.5,-118 1289.5,4 -4,4"/>
<!-- obj_0x23a3f20 -->
<g id="node1" class="node">
<title>obj_0x23a3f20</title>
<polygon fill="#ffff80" stroke="none" points="1,-53.5 1,-81.5 128,-81.5 128,-53.5 1,-53.5"/>
<text text-anchor="start" x="2.62" y="-61.5" font-family="Times,serif" font-weight="bold" font-size="20.00" fill="#000000">Text</text>
<text text-anchor="start" x="49.12" y="-61.5" font-family="Times,serif" font-size="14.00"> </text>
<text text-anchor="start" x="53.62" y="-61.5" font-family="Times,serif" font-size="12.00">(0x23a3f20)</text>
<text text-anchor="start" x="3" y="-38.2" font-family="Times,serif" font-size="14.00">text</text>
<text text-anchor="start" x="55" y="-38.2" font-family="Times,serif" font-size="14.00">=</text>
<text text-anchor="start" x="75" y="-38.2" font-family="Times,serif" font-size="14.00">&quot;AAA&quot;</text>
<polygon fill="#d0d0d0" stroke="#d0d0d0" points="0,-53.5 0,-53.5 129,-53.5 129,-53.5 0,-53.5"/>
<polygon fill="none" stroke="#d0d0d0" points="0,-31.5 0,-82.5 129,-82.5 129,-31.5 0,-31.5"/>
</g>
<!-- obj_0x23a3f60 -->
<g id="node2" class="node">
<title>obj_0x23a3f60</title>
<polygon fill="#80ff80" stroke="none" points="166,-85 166,-113 343,-113 343,-85 166,-85"/>
<text text-anchor="start" x="167.88" y="-93" font-family="Times,serif" font-weight="bold" font-size="20.00" fill="#000000">Expando</text>
<text text-anchor="start" x="263.88" y="-93" font-family="Times,serif" font-size="14.00"> </text>
<text text-anchor="start" x="268.38" y="-93" font-family="Times,serif" font-size="12.00">(0x23a3f60)</text>
<text text-anchor="start" x="168" y="-69.7" font-family="Times,serif" font-size="14.00">type</text>
<text text-anchor="start" x="269" y="-69.7" font-family="Times,serif" font-size="14.00">=</text>
<text text-anchor="start" x="296" y="-69.7" font-family="Times,serif" font-size="14.00">2</text>
<text text-anchor="start" x="168" y="-48.7" font-family="Times,serif" font-size="14.00">did</text>
<text text-anchor="start" x="269" y="-48.7" font-family="Times,serif" font-size="14.00">=</text>
<text text-anchor="start" x="296" y="-48.7" font-family="Times,serif" font-size="14.00">14</text>
<text text-anchor="start" x="168" y="-27.7" font-family="Times,serif" font-size="14.00">uid</text>
<text text-anchor="start" x="269" y="-27.7" font-family="Times,serif" font-size="14.00">=</text>
<text text-anchor="start" x="296" y="-27.7" font-family="Times,serif" font-size="14.00">1</text>
<text text-anchor="start" x="168" y="-6.7" font-family="Times,serif" font-size="14.00">string</text>
<text text-anchor="start" x="269" y="-6.7" font-family="Times,serif" font-size="14.00">=</text>
<text text-anchor="start" x="296" y="-6.7" font-family="Times,serif" font-size="14.00">&quot;b&quot;</text>
<polygon fill="#d0d0d0" stroke="#d0d0d0" points="165,-85 165,-85 344,-85 344,-85 165,-85"/>
<polygon fill="#d0d0d0" stroke="#d0d0d0" points="165,-64 165,-64 256,-64 256,-64 165,-64"/>
<polygon fill="#d0d0d0" stroke="#d0d0d0" points="256,-64 256,-64 294,-64 294,-64 256,-64"/>
<polygon fill="#d0d0d0" stroke="#d0d0d0" points="294,-64 294,-64 344,-64 344,-64 294,-64"/>
<polygon fill="#d0d0d0" stroke="#d0d0d0" points="165,-43 165,-43 256,-43 256,-43 165,-43"/>
<polygon fill="#d0d0d0" stroke="#d0d0d0" points="256,-43 256,-43 294,-43 294,-43 256,-43"/>
<polygon fill="#d0d0d0" stroke="#d0d0d0" points="294,-43 294,-43 344,-43 344,-43 294,-43"/>
<polygon fill="#d0d0d0" stroke="#d0d0d0" points="165,-22 165,-22 256,-22 256,-22 165,-22"/>
<polygon fill="#d0d0d0" stroke="#d0d0d0" points="256,-22 256,-22 294,-22 294,-22 256,-22"/>
<polygon fill="#d0d0d0" stroke="#d0d0d0" points="294,-22 294,-22 344,-22 344,-22 294,-22"/>
<polygon fill="none" stroke="#d0d0d0" points="165,0 165,-114 344,-114 344,0 165,0"/>
</g>
<!-- obj_0x23a3f20&#45;&gt;obj_0x23a3f60 -->
<g id="edge1" class="edge">
<title>obj_0x23a3f20&#45;&gt;obj_0x23a3f60</title>
<g id="a_edge1"><a xlink:title="ExpandoNode&#45;&gt;next">
<path fill="none" stroke="#808080" stroke-width="4.5" d="M128.7,-57C135.52,-57 142.34,-57 149.15,-57"/>
<polygon fill="#808080" stroke="#808080" stroke-width="4.5" points="149.06,-60.94 159.06,-57 149.06,-53.06 149.06,-60.94"/>
</a>
</g>
</g>
<!-- obj_0x23a3fa0 -->
<g id="node3" class="node">
<title>obj_0x23a3fa0</title>
<polygon fill="#ffff80" stroke="none" points="381,-53.5 381,-81.5 508,-81.5 508,-53.5 381,-53.5"/>
<text text-anchor="start" x="382.62" y="-61.5" font-family="Times,serif" font-weight="bold" font-size="20.00" fill="#000000">Text</text>
<text text-anchor="start" x="429.12" y="-61.5" font-family="Times,serif" font-size="14.00"> </text>
<text text-anchor="start" x="433.62" y="-61.5" font-family="Times,serif" font-size="12.00">(0x23a3fa0)</text>
<text text-anchor="start" x="383" y="-38.2" font-family="Times,serif" font-size="14.00">text</text>
<text text-anchor="start" x="433.5" y="-38.2" font-family="Times,serif" font-size="14.00">=</text>
<text text-anchor="start" x="453" y="-38.2" font-family="Times,serif" font-size="14.00">&quot;CCC&quot;</text>
<polygon fill="#d0d0d0" stroke="#d0d0d0" points="380,-53.5 380,-53.5 509,-53.5 509,-53.5 380,-53.5"/>
<polygon fill="none" stroke="#d0d0d0" points="380,-31.5 380,-82.5 509,-82.5 509,-31.5 380,-31.5"/>
</g>
<!-- obj_0x23a3f60&#45;&gt;obj_0x23a3fa0 -->
<g id="edge2" class="edge">
<title>obj_0x23a3f60&#45;&gt;obj_0x23a3fa0</title>
<g id="a_edge2"><a xlink:title="ExpandoNode&#45;&gt;next">
<path fill="none" stroke="#808080" stroke-width="4.5" d="M343.93,-57C350.71,-57 357.49,-57 364.26,-57"/>
<polygon fill="#808080" stroke="#808080" stroke-width="4.5" points="364.07,-60.94 374.07,-57 364.07,-53.06 364.07,-60.94"/>
</a>
</g>
</g>
<!-- obj_0x23a3fe0 -->
<g id="node4" class="node">
<title>obj_0x23a3fe0</title>
<polygon fill="#80ffff" stroke="none" points="546.5,-64 546.5,-92 730.5,-92 730.5,-64 546.5,-64"/>
<text text-anchor="start" x="548.5" y="-72" font-family="Times,serif" font-weight="bold" font-size="20.00" fill="#000000">Pad</text>
<text text-anchor="start" x="589.75" y="-72" font-family="Times,serif" font-size="14.00"> </text>
<text text-anchor="start" x="594.25" y="-72" font-family="Times,serif" font-size="12.00">(0x23a3fe0)</text>
<text text-anchor="start" x="548.25" y="-48.7" font-family="Times,serif" font-size="14.00">type</text>
<text text-anchor="start" x="583.5" y="-48.7" font-family="Times,serif" font-size="14.00">=</text>
<text text-anchor="start" x="599.5" y="-48.7" font-family="Times,serif" font-size="14.00">&quot;EPT_SOFT_FILL&quot;</text>
<text text-anchor="start" x="548.25" y="-27.7" font-family="Times,serif" font-size="14.00">char</text>
<text text-anchor="start" x="583.5" y="-27.7" font-family="Times,serif" font-size="14.00">=</text>
<text text-anchor="start" x="599.5" y="-27.7" font-family="Times,serif" font-size="14.00">&quot;.&quot;</text>
<polygon fill="#d0d0d0" stroke="#d0d0d0" points="545.5,-64 545.5,-64 731.5,-64 731.5,-64 545.5,-64"/>
<polygon fill="#d0d0d0" stroke="#d0d0d0" points="545.5,-43 545.5,-43 581.5,-43 581.5,-43 545.5,-43"/>
<polygon fill="#d0d0d0" stroke="#d0d0d0" points="581.5,-43 581.5,-43 597.5,-43 597.5,-43 581.5,-43"/>
<polygon fill="#d0d0d0" stroke="#d0d0d0" points="597.5,-43 597.5,-43 731.5,-43 731.5,-43 597.5,-43"/>
<polygon fill="none" stroke="#d0d0d0" points="545.5,-21 545.5,-93 731.5,-93 731.5,-21 545.5,-21"/>
</g>
<!-- obj_0x23a3fa0&#45;&gt;obj_0x23a3fe0 -->
<g id="edge3" class="edge">
<title>obj_0x23a3fa0&#45;&gt;obj_0x23a3fe0</title>
<g id="a_edge3"><a xlink:title="ExpandoNode&#45;&gt;next">
<path fill="none" stroke="#808080" stroke-width="4.5" d="M508.91,-57C515.89,-57 522.87,-57 529.84,-57"/>
<polygon fill="#808080" stroke="#808080" stroke-width="4.5" points="529.61,-60.94 539.61,-57 529.61,-53.06 529.61,-60.94"/>
</a>
</g>
</g>
<!-- obj_0x23a4050 -->
<g id="node5" class="node">
<title>obj_0x23a4050</title>
<polygon fill="#ffff80" stroke="none" points="768.5,-53.5 768.5,-81.5 898.5,-81.5 898.5,-53.5 768.5,-53.5"/>
<text text-anchor="start" x="770.12" y="-61.5" font-family="Times,serif" font-weight="bold" font-size="20.00" fill="#000000">Text</text>
<text text-anchor="start" x="816.62" y="-61.5" font-family="Times,serif" font-size="14.00"> </text>
<text text-anchor="start" x="821.12" y="-61.5" font-family="Times,serif" font-size="12.00">(0x23a4050)</text>
<text text-anchor="start" x="770.5" y="-38.2" font-family="Times,serif" font-size="14.00">text</text>
<text text-anchor="start" x="825" y="-38.2" font-family="Times,serif" font-size="14.00">=</text>
<text text-anchor="start" x="845.5" y="-38.2" font-family="Times,serif" font-size="14.00">&quot;XXX&quot;</text>
<polygon fill="#d0d0d0" stroke="#d0d0d0" points="767.5,-53.5 767.5,-53.5 899.5,-53.5 899.5,-53.5 767.5,-53.5"/>
<polygon fill="none" stroke="#d0d0d0" points="767.5,-31.5 767.5,-82.5 899.5,-82.5 899.5,-31.5 767.5,-31.5"/>
</g>
<!-- obj_0x23a3fe0&#45;&gt;obj_0x23a4050 -->
<g id="edge4" class="edge">
<title>obj_0x23a3fe0&#45;&gt;obj_0x23a4050</title>
<g id="a_edge4"><a xlink:title="ExpandoNode&#45;&gt;next">
<path fill="none" stroke="#808080" stroke-width="4.5" d="M731.43,-57C738.23,-57 745.04,-57 751.84,-57"/>
<polygon fill="#808080" stroke="#808080" stroke-width="4.5" points="751.71,-60.94 761.71,-57 751.71,-53.06 751.71,-60.94"/>
</a>
</g>
</g>
<!-- obj_0x23a4090 -->
<g id="node6" class="node">
<title>obj_0x23a4090</title>
<polygon fill="#80ff80" stroke="none" points="936.5,-85 936.5,-113 1116.5,-113 1116.5,-85 936.5,-85"/>
<text text-anchor="start" x="938.38" y="-93" font-family="Times,serif" font-weight="bold" font-size="20.00" fill="#000000">Expando</text>
<text text-anchor="start" x="1034.38" y="-93" font-family="Times,serif" font-size="14.00"> </text>
<text text-anchor="start" x="1038.88" y="-93" font-family="Times,serif" font-size="12.00">(0x23a4090)</text>
<text text-anchor="start" x="938.5" y="-69.7" font-family="Times,serif" font-size="14.00">type</text>
<text text-anchor="start" x="1042" y="-69.7" font-family="Times,serif" font-size="14.00">=</text>
<text text-anchor="start" x="1069.5" y="-69.7" font-family="Times,serif" font-size="14.00">2</text>
<text text-anchor="start" x="938.5" y="-48.7" font-family="Times,serif" font-size="14.00">did</text>
<text text-anchor="start" x="1042" y="-48.7" font-family="Times,serif" font-size="14.00">=</text>
<text text-anchor="start" x="1069.5" y="-48.7" font-family="Times,serif" font-size="14.00">8</text>
<text text-anchor="start" x="938.5" y="-27.7" font-family="Times,serif" font-size="14.00">uid</text>
<text text-anchor="start" x="1042" y="-27.7" font-family="Times,serif" font-size="14.00">=</text>
<text text-anchor="start" x="1069.5" y="-27.7" font-family="Times,serif" font-size="14.00">23</text>
<text text-anchor="start" x="938.5" y="-6.7" font-family="Times,serif" font-size="14.00">string</text>
<text text-anchor="start" x="1042" y="-6.7" font-family="Times,serif" font-size="14.00">=</text>
<text text-anchor="start" x="1069.5" y="-6.7" font-family="Times,serif" font-size="14.00">&quot;y&quot;</text>
<polygon fill="#d0d0d0" stroke="#d0d0d0" points="935.5,-85 935.5,-85 1117.5,-85 1117.5,-85 935.5,-85"/>
<polygon fill="#d0d0d0" stroke="#d0d0d0" points="935.5,-64 935.5,-64 1028.5,-64 1028.5,-64 935.5,-64"/>
<polygon fill="#d0d0d0" stroke="#d0d0d0" points="1028.5,-64 1028.5,-64 1067.5,-64 1067.5,-64 1028.5,-64"/>
<polygon fill="#d0d0d0" stroke="#d0d0d0" points="1067.5,-64 1067.5,-64 1117.5,-64 1117.5,-64 1067.5,-64"/>
<polygon fill="#d0d0d0" stroke="#d0d0d0" points="935.5,-43 935.5,-43 1028.5,-43 1028.5,-43 935.5,-43"/>
<polygon fill="#d0d0d0" stroke="#d0d0d0" points="1028.5,-43 1028.5,-43 1067.5,-43 1067.5,-43 1028.5,-43"/>
<polygon fill="#d0d0d0" stroke="#d0d0d0" points="1067.5,-43 1067.5,-43 1117.5,-43 1117.5,-43 1067.5,-43"/>
<polygon fill="#d0d0d0" stroke="#d0d0d0" points="935.5,-22 935.5,-22 1028.5,-22 1028.5,-22 935.5,-22"/>
<polygon fill="#d0d0d0" stroke="#d0d0d0" points="1028.5,-22 1028.5,-22 1067.5,-22 1067.5,-22 1028.5,-22"/>
<polygon fill="#d0d0d0" stroke="#d0d0d0" points="1067.5,-22 1067.5,-22 1117.5,-22 1117.5,-22 1067.5,-22"/>
<polygon fill="none" stroke="#d0d0d0" points="935.5,0 935.5,-114 1117.5,-114 1117.5,0 935.5,0"/>
</g>
<!-- obj_0x23a4050&#45;&gt;obj_0x23a4090 -->
<g id="edge5" class="edge">
<title>obj_0x23a4050&#45;&gt;obj_0x23a4090</title>
<g id="a_edge5"><a xlink:title="ExpandoNode&#45;&gt;next">
<path fill="none" stroke="#808080" stroke-width="4.5" d="M899.47,-57C906.26,-57 913.05,-57 919.84,-57"/>
<polygon fill="#808080" stroke="#808080" stroke-width="4.5" points="919.69,-60.94 929.69,-57 919.69,-53.06 919.69,-60.94"/>
</a>
</g>
</g>
<!-- obj_0x23a40d0 -->
<g id="node7" class="node">
<title>obj_0x23a40d0</title>
<polygon fill="#ffff80" stroke="none" points="1154.5,-53.5 1154.5,-81.5 1284.5,-81.5 1284.5,-53.5 1154.5,-53.5"/>
<text text-anchor="start" x="1156.12" y="-61.5" font-family="Times,serif" font-weight="bold" font-size="20.00" fill="#000000">Text</text>
<text text-anchor="start" x="1202.62" y="-61.5" font-family="Times,serif" font-size="14.00"> </text>
<text text-anchor="start" x="1207.12" y="-61.5" font-family="Times,serif" font-size="12.00">(0x23a40d0)</text>
<text text-anchor="start" x="1156.5" y="-38.2" font-family="Times,serif" font-size="14.00">text</text>
<text text-anchor="start" x="1211" y="-38.2" font-family="Times,serif" font-size="14.00">=</text>
<text text-anchor="start" x="1231.5" y="-38.2" font-family="Times,serif" font-size="14.00">&quot;ZZZ&quot;</text>
<polygon fill="#d0d0d0" stroke="#d0d0d0" points="1153.5,-53.5 1153.5,-53.5 1285.5,-53.5 1285.5,-53.5 1153.5,-53.5"/>
<polygon fill="none" stroke="#d0d0d0" points="1153.5,-31.5 1153.5,-82.5 1285.5,-82.5 1285.5,-31.5 1153.5,-31.5"/>
</g>
<!-- obj_0x23a4090&#45;&gt;obj_0x23a40d0 -->
<g id="edge6" class="edge">
<title>obj_0x23a4090&#45;&gt;obj_0x23a40d0</title>
<g id="a_edge6"><a xlink:title="ExpandoNode&#45;&gt;next">
<path fill="none" stroke="#808080" stroke-width="4.5" d="M1117.35,-57C1124.15,-57 1130.96,-57 1137.77,-57"/>
<polygon fill="#808080" stroke="#808080" stroke-width="4.5" points="1137.66,-60.94 1147.66,-57 1137.66,-53.06 1137.66,-60.94"/>
</a>
</g>
</g>
</g>
</svg>
