<?xml version="1.0" encoding="UTF-8" standalone="no"?>
<!DOCTYPE svg PUBLIC "-//W3C//DTD SVG 1.1//EN"
 "http://www.w3.org/Graphics/SVG/1.1/DTD/svg11.dtd">
<!-- Generated by graphviz version 8.1.0 (20230707.0739)
 -->
<!-- Title: neomutt Pages: 1 -->
<svg width="1026pt" height="230pt"
 viewBox="0.00 0.00 1026.00 230.00" xmlns="http://www.w3.org/2000/svg" xmlns:xlink="http://www.w3.org/1999/xlink">
<g id="graph0" class="graph" transform="scale(1 1) rotate(0) translate(4 226)">
<title>neomutt</title>
<polygon fill="white" stroke="none" points="-4,4 -4,-226 1022,-226 1022,4 -4,4"/>
<!-- obj_0xb6dfe0 -->
<g id="node1" class="node">
<title>obj_0xb6dfe0</title>
<polygon fill="#80ffff" stroke="none" points="231,-193 231,-221 415,-221 415,-193 231,-193"/>
<text text-anchor="start" x="233" y="-201" font-family="Times,serif" font-weight="bold" font-size="20.00" fill="#000000">Pad</text>
<text text-anchor="start" x="274.25" y="-201" font-family="Times,serif" font-size="14.00"> </text>
<text text-anchor="start" x="278.75" y="-201" font-family="Times,serif" font-size="12.00">(0xb6dfe0)</text>
<text text-anchor="start" x="232.75" y="-177.7" font-family="Times,serif" font-size="14.00">type</text>
<text text-anchor="start" x="268" y="-177.7" font-family="Times,serif" font-size="14.00">=</text>
<text text-anchor="start" x="284" y="-177.7" font-family="Times,serif" font-size="14.00">&quot;EPT_SOFT_FILL&quot;</text>
<text text-anchor="start" x="232.75" y="-156.7" font-family="Times,serif" font-size="14.00">char</text>
<text text-anchor="start" x="268" y="-156.7" font-family="Times,serif" font-size="14.00">=</text>
<text text-anchor="start" x="284" y="-156.7" font-family="Times,serif" font-size="14.00">&quot;.&quot;</text>
<polygon fill="#d0d0d0" stroke="#d0d0d0" points="230,-193 230,-193 416,-193 416,-193 230,-193"/>
<polygon fill="#d0d0d0" stroke="#d0d0d0" points="230,-172 230,-172 266,-172 266,-172 230,-172"/>
<polygon fill="#d0d0d0" stroke="#d0d0d0" points="266,-172 266,-172 282,-172 282,-172 266,-172"/>
<polygon fill="#d0d0d0" stroke="#d0d0d0" points="282,-172 282,-172 416,-172 416,-172 282,-172"/>
<polygon fill="none" stroke="#d0d0d0" points="230,-150 230,-222 416,-222 416,-150 230,-150"/>
</g>
<!-- obj_0xb6df20 -->
<g id="node2" class="node">
<title>obj_0xb6df20</title>
<polygon fill="#ffff80" stroke="none" points="1,-53.5 1,-81.5 121,-81.5 121,-53.5 1,-53.5"/>
<text text-anchor="start" x="2.88" y="-61.5" font-family="Times,serif" font-weight="bold" font-size="20.00" fill="#000000">Text</text>
<text text-anchor="start" x="49.38" y="-61.5" font-family="Times,serif" font-size="14.00"> </text>
<text text-anchor="start" x="53.88" y="-61.5" font-family="Times,serif" font-size="12.00">(0xb6df20)</text>
<text text-anchor="start" x="3" y="-38.2" font-family="Times,serif" font-size="14.00">text</text>
<text text-anchor="start" x="51" y="-38.2" font-family="Times,serif" font-size="14.00">=</text>
<text text-anchor="start" x="70" y="-38.2" font-family="Times,serif" font-size="14.00">&quot;AAA&quot;</text>
<polygon fill="#d0d0d0" stroke="#d0d0d0" points="0,-53.5 0,-53.5 122,-53.5 122,-53.5 0,-53.5"/>
<polygon fill="none" stroke="#d0d0d0" points="0,-31.5 0,-82.5 122,-82.5 122,-31.5 0,-31.5"/>
</g>
<!-- obj_0xb6dfe0&#45;&gt;obj_0xb6df20 -->
<g id="edge3" class="edge">
<title>obj_0xb6dfe0&#45;&gt;obj_0xb6df20</title>
<g id="a_edge3"><a xlink:title="Pad&#45;&gt;left">
<path fill="none" stroke="#80ff80" stroke-width="4.5" d="M230.26,-154.09C200.72,-142.92 168.36,-129.25 140,-114 127.97,-107.53 115.63,-99.53 104.37,-91.62"/>
<polygon fill="#80ff80" stroke="#80ff80" stroke-width="4.5" points="106.16,-88.16 95.75,-85.48 101.54,-94.53 106.16,-88.16"/>
</a>
</g>
</g>
<!-- obj_0xb6e050 -->
<g id="node5" class="node">
<title>obj_0xb6e050</title>
<polygon fill="#ffff80" stroke="none" points="525,-53.5 525,-81.5 647,-81.5 647,-53.5 525,-53.5"/>
<text text-anchor="start" x="526.75" y="-61.5" font-family="Times,serif" font-weight="bold" font-size="20.00" fill="#000000">Text</text>
<text text-anchor="start" x="573.25" y="-61.5" font-family="Times,serif" font-size="14.00"> </text>
<text text-anchor="start" x="577.75" y="-61.5" font-family="Times,serif" font-size="12.00">(0xb6e050)</text>
<text text-anchor="start" x="527" y="-38.2" font-family="Times,serif" font-size="14.00">text</text>
<text text-anchor="start" x="576.5" y="-38.2" font-family="Times,serif" font-size="14.00">=</text>
<text text-anchor="start" x="596" y="-38.2" font-family="Times,serif" font-size="14.00">&quot;XXX&quot;</text>
<polygon fill="#d0d0d0" stroke="#d0d0d0" points="524,-53.5 524,-53.5 648,-53.5 648,-53.5 524,-53.5"/>
<polygon fill="none" stroke="#d0d0d0" points="524,-31.5 524,-82.5 648,-82.5 648,-31.5 524,-31.5"/>
</g>
<!-- obj_0xb6dfe0&#45;&gt;obj_0xb6e050 -->
<g id="edge6" class="edge">
<title>obj_0xb6dfe0&#45;&gt;obj_0xb6e050</title>
<g id="a_edge6"><a xlink:title="Pad&#45;&gt;right">
<path fill="none" stroke="#ff8080" stroke-width="4.5" d="M415.68,-153.99C445.22,-142.81 477.59,-129.17 506,-114 518.15,-107.51 530.64,-99.51 542.03,-91.6"/>
<polygon fill="#ff8080" stroke="#ff8080" stroke-width="4.5" points="544.98,-94.47 550.82,-85.45 540.4,-88.07 544.98,-94.47"/>
</a>
</g>
</g>
<!-- obj_0xb6df60 -->
<g id="node3" class="node">
<title>obj_0xb6df60</title>
<polygon fill="#80ff80" stroke="none" points="159.5,-85 159.5,-113 328.5,-113 328.5,-85 159.5,-85"/>
<text text-anchor="start" x="161.12" y="-93" font-family="Times,serif" font-weight="bold" font-size="20.00" fill="#000000">Expando</text>
<text text-anchor="start" x="257.12" y="-93" font-family="Times,serif" font-size="14.00"> </text>
<text text-anchor="start" x="261.62" y="-93" font-family="Times,serif" font-size="12.00">(0xb6df60)</text>
<text text-anchor="start" x="161.5" y="-69.7" font-family="Times,serif" font-size="14.00">type</text>
<text text-anchor="start" x="257.5" y="-69.7" font-family="Times,serif" font-size="14.00">=</text>
<text text-anchor="start" x="283.5" y="-69.7" font-family="Times,serif" font-size="14.00">2</text>
<text text-anchor="start" x="161.5" y="-48.7" font-family="Times,serif" font-size="14.00">did</text>
<text text-anchor="start" x="257.5" y="-48.7" font-family="Times,serif" font-size="14.00">=</text>
<text text-anchor="start" x="283.5" y="-48.7" font-family="Times,serif" font-size="14.00">14</text>
<text text-anchor="start" x="161.5" y="-27.7" font-family="Times,serif" font-size="14.00">uid</text>
<text text-anchor="start" x="257.5" y="-27.7" font-family="Times,serif" font-size="14.00">=</text>
<text text-anchor="start" x="283.5" y="-27.7" font-family="Times,serif" font-size="14.00">1</text>
<text text-anchor="start" x="161.5" y="-6.7" font-family="Times,serif" font-size="14.00">string</text>
<text text-anchor="start" x="257.5" y="-6.7" font-family="Times,serif" font-size="14.00">=</text>
<text text-anchor="start" x="283.5" y="-6.7" font-family="Times,serif" font-size="14.00">&quot;b&quot;</text>
<polygon fill="#d0d0d0" stroke="#d0d0d0" points="158.5,-85 158.5,-85 329.5,-85 329.5,-85 158.5,-85"/>
<polygon fill="#d0d0d0" stroke="#d0d0d0" points="158.5,-64 158.5,-64 245.5,-64 245.5,-64 158.5,-64"/>
<polygon fill="#d0d0d0" stroke="#d0d0d0" points="245.5,-64 245.5,-64 281.5,-64 281.5,-64 245.5,-64"/>
<polygon fill="#d0d0d0" stroke="#d0d0d0" points="281.5,-64 281.5,-64 329.5,-64 329.5,-64 281.5,-64"/>
<polygon fill="#d0d0d0" stroke="#d0d0d0" points="158.5,-43 158.5,-43 245.5,-43 245.5,-43 158.5,-43"/>
<polygon fill="#d0d0d0" stroke="#d0d0d0" points="245.5,-43 245.5,-43 281.5,-43 281.5,-43 245.5,-43"/>
<polygon fill="#d0d0d0" stroke="#d0d0d0" points="281.5,-43 281.5,-43 329.5,-43 329.5,-43 281.5,-43"/>
<polygon fill="#d0d0d0" stroke="#d0d0d0" points="158.5,-22 158.5,-22 245.5,-22 245.5,-22 158.5,-22"/>
<polygon fill="#d0d0d0" stroke="#d0d0d0" points="245.5,-22 245.5,-22 281.5,-22 281.5,-22 245.5,-22"/>
<polygon fill="#d0d0d0" stroke="#d0d0d0" points="281.5,-22 281.5,-22 329.5,-22 329.5,-22 281.5,-22"/>
<polygon fill="none" stroke="#d0d0d0" points="158.5,0 158.5,-114 329.5,-114 329.5,0 158.5,0"/>
</g>
<!-- obj_0xb6df20&#45;&gt;obj_0xb6df60 -->
<g id="edge1" class="edge">
<title>obj_0xb6df20&#45;&gt;obj_0xb6df60</title>
<g id="a_edge1"><a xlink:title="ExpandoNode&#45;&gt;next">
<path fill="none" stroke="#808080" stroke-width="4.5" d="M121.76,-57C128.75,-57 135.74,-57 142.73,-57"/>
<polygon fill="#808080" stroke="#808080" stroke-width="4.5" points="142.53,-60.94 152.53,-57 142.53,-53.06 142.53,-60.94"/>
</a>
</g>
</g>
<!-- obj_0xb6dfa0 -->
<g id="node4" class="node">
<title>obj_0xb6dfa0</title>
<polygon fill="#ffff80" stroke="none" points="367,-53.5 367,-81.5 487,-81.5 487,-53.5 367,-53.5"/>
<text text-anchor="start" x="368.88" y="-61.5" font-family="Times,serif" font-weight="bold" font-size="20.00" fill="#000000">Text</text>
<text text-anchor="start" x="415.38" y="-61.5" font-family="Times,serif" font-size="14.00"> </text>
<text text-anchor="start" x="419.88" y="-61.5" font-family="Times,serif" font-size="12.00">(0xb6dfa0)</text>
<text text-anchor="start" x="369" y="-38.2" font-family="Times,serif" font-size="14.00">text</text>
<text text-anchor="start" x="415" y="-38.2" font-family="Times,serif" font-size="14.00">=</text>
<text text-anchor="start" x="434" y="-38.2" font-family="Times,serif" font-size="14.00">&quot;CCC&quot;</text>
<polygon fill="#d0d0d0" stroke="#d0d0d0" points="366,-53.5 366,-53.5 488,-53.5 488,-53.5 366,-53.5"/>
<polygon fill="none" stroke="#d0d0d0" points="366,-31.5 366,-82.5 488,-82.5 488,-31.5 366,-31.5"/>
</g>
<!-- obj_0xb6df60&#45;&gt;obj_0xb6dfa0 -->
<g id="edge2" class="edge">
<title>obj_0xb6df60&#45;&gt;obj_0xb6dfa0</title>
<g id="a_edge2"><a xlink:title="ExpandoNode&#45;&gt;next">
<path fill="none" stroke="#808080" stroke-width="4.5" d="M329.42,-57C336.38,-57 343.34,-57 350.29,-57"/>
<polygon fill="#808080" stroke="#808080" stroke-width="4.5" points="350.01,-60.94 360.01,-57 350.01,-53.06 350.01,-60.94"/>
</a>
</g>
</g>
<!-- obj_0xb6e090 -->
<g id="node6" class="node">
<title>obj_0xb6e090</title>
<polygon fill="#80ff80" stroke="none" points="685,-85 685,-113 857,-113 857,-85 685,-85"/>
<text text-anchor="start" x="687" y="-93" font-family="Times,serif" font-weight="bold" font-size="20.00" fill="#000000">Expando</text>
<text text-anchor="start" x="783" y="-93" font-family="Times,serif" font-size="14.00"> </text>
<text text-anchor="start" x="787.5" y="-93" font-family="Times,serif" font-size="12.00">(0xb6e090)</text>
<text text-anchor="start" x="687" y="-69.7" font-family="Times,serif" font-size="14.00">type</text>
<text text-anchor="start" x="785.5" y="-69.7" font-family="Times,serif" font-size="14.00">=</text>
<text text-anchor="start" x="812" y="-69.7" font-family="Times,serif" font-size="14.00">2</text>
<text text-anchor="start" x="687" y="-48.7" font-family="Times,serif" font-size="14.00">did</text>
<text text-anchor="start" x="785.5" y="-48.7" font-family="Times,serif" font-size="14.00">=</text>
<text text-anchor="start" x="812" y="-48.7" font-family="Times,serif" font-size="14.00">8</text>
<text text-anchor="start" x="687" y="-27.7" font-family="Times,serif" font-size="14.00">uid</text>
<text text-anchor="start" x="785.5" y="-27.7" font-family="Times,serif" font-size="14.00">=</text>
<text text-anchor="start" x="812" y="-27.7" font-family="Times,serif" font-size="14.00">23</text>
<text text-anchor="start" x="687" y="-6.7" font-family="Times,serif" font-size="14.00">string</text>
<text text-anchor="start" x="785.5" y="-6.7" font-family="Times,serif" font-size="14.00">=</text>
<text text-anchor="start" x="812" y="-6.7" font-family="Times,serif" font-size="14.00">&quot;y&quot;</text>
<polygon fill="#d0d0d0" stroke="#d0d0d0" points="684,-85 684,-85 858,-85 858,-85 684,-85"/>
<polygon fill="#d0d0d0" stroke="#d0d0d0" points="684,-64 684,-64 773,-64 773,-64 684,-64"/>
<polygon fill="#d0d0d0" stroke="#d0d0d0" points="773,-64 773,-64 810,-64 810,-64 773,-64"/>
<polygon fill="#d0d0d0" stroke="#d0d0d0" points="810,-64 810,-64 858,-64 858,-64 810,-64"/>
<polygon fill="#d0d0d0" stroke="#d0d0d0" points="684,-43 684,-43 773,-43 773,-43 684,-43"/>
<polygon fill="#d0d0d0" stroke="#d0d0d0" points="773,-43 773,-43 810,-43 810,-43 773,-43"/>
<polygon fill="#d0d0d0" stroke="#d0d0d0" points="810,-43 810,-43 858,-43 858,-43 810,-43"/>
<polygon fill="#d0d0d0" stroke="#d0d0d0" points="684,-22 684,-22 773,-22 773,-22 684,-22"/>
<polygon fill="#d0d0d0" stroke="#d0d0d0" points="773,-22 773,-22 810,-22 810,-22 773,-22"/>
<polygon fill="#d0d0d0" stroke="#d0d0d0" points="810,-22 810,-22 858,-22 858,-22 810,-22"/>
<polygon fill="none" stroke="#d0d0d0" points="684,0 684,-114 858,-114 858,0 684,0"/>
</g>
<!-- obj_0xb6e050&#45;&gt;obj_0xb6e090 -->
<g id="edge4" class="edge">
<title>obj_0xb6e050&#45;&gt;obj_0xb6e090</title>
<g id="a_edge4"><a xlink:title="ExpandoNode&#45;&gt;next">
<path fill="none" stroke="#808080" stroke-width="4.5" d="M647.79,-57C654.74,-57 661.69,-57 668.65,-57"/>
<polygon fill="#808080" stroke="#808080" stroke-width="4.5" points="668.37,-60.94 678.37,-57 668.37,-53.06 668.37,-60.94"/>
</a>
</g>
</g>
<!-- obj_0xb6e0d0 -->
<g id="node7" class="node">
<title>obj_0xb6e0d0</title>
<polygon fill="#ffff80" stroke="none" points="895,-53.5 895,-81.5 1017,-81.5 1017,-53.5 895,-53.5"/>
<text text-anchor="start" x="896.75" y="-61.5" font-family="Times,serif" font-weight="bold" font-size="20.00" fill="#000000">Text</text>
<text text-anchor="start" x="943.25" y="-61.5" font-family="Times,serif" font-size="14.00"> </text>
<text text-anchor="start" x="947.75" y="-61.5" font-family="Times,serif" font-size="12.00">(0xb6e0d0)</text>
<text text-anchor="start" x="897" y="-38.2" font-family="Times,serif" font-size="14.00">text</text>
<text text-anchor="start" x="946.5" y="-38.2" font-family="Times,serif" font-size="14.00">=</text>
<text text-anchor="start" x="966" y="-38.2" font-family="Times,serif" font-size="14.00">&quot;ZZZ&quot;</text>
<polygon fill="#d0d0d0" stroke="#d0d0d0" points="894,-53.5 894,-53.5 1018,-53.5 1018,-53.5 894,-53.5"/>
<polygon fill="none" stroke="#d0d0d0" points="894,-31.5 894,-82.5 1018,-82.5 1018,-31.5 894,-31.5"/>
</g>
<!-- obj_0xb6e090&#45;&gt;obj_0xb6e0d0 -->
<g id="edge5" class="edge">
<title>obj_0xb6e090&#45;&gt;obj_0xb6e0d0</title>
<g id="a_edge5"><a xlink:title="ExpandoNode&#45;&gt;next">
<path fill="none" stroke="#808080" stroke-width="4.5" d="M857.72,-57C864.56,-57 871.4,-57 878.23,-57"/>
<polygon fill="#808080" stroke="#808080" stroke-width="4.5" points="878.19,-60.94 888.19,-57 878.19,-53.06 878.19,-60.94"/>
</a>
</g>
</g>
</g>
</svg>
