<?xml version="1.0" encoding="UTF-8" standalone="no"?>
<!DOCTYPE svg PUBLIC "-//W3C//DTD SVG 1.1//EN"
 "http://www.w3.org/Graphics/SVG/1.1/DTD/svg11.dtd">
<!-- Generated by graphviz version 8.1.0 (20230707.0739)
 -->
<!-- Title: neomutt Pages: 1 -->
<svg width="3456pt" height="478pt"
 viewBox="0.00 0.00 3456.00 477.50" xmlns="http://www.w3.org/2000/svg" xmlns:xlink="http://www.w3.org/1999/xlink">
<g id="graph0" class="graph" transform="scale(1 1) rotate(0) translate(4 473.5)">
<title>neomutt</title>
<polygon fill="white" stroke="none" points="-4,4 -4,-473.5 3452,-473.5 3452,4 -4,4"/>
<!-- obj_0xe36140 -->
<g id="node1" class="node">
<title>obj_0xe36140</title>
<polygon fill="#80ffff" stroke="none" points="1283,-440.5 1283,-468.5 1467,-468.5 1467,-440.5 1283,-440.5"/>
<text text-anchor="start" x="1285" y="-448.5" font-family="Times,serif" font-weight="bold" font-size="20.00" fill="#000000">Pad</text>
<text text-anchor="start" x="1326.25" y="-448.5" font-family="Times,serif" font-size="14.00"> </text>
<text text-anchor="start" x="1330.75" y="-448.5" font-family="Times,serif" font-size="12.00">(0xe36140)</text>
<text text-anchor="start" x="1284.75" y="-425.2" font-family="Times,serif" font-size="14.00">type</text>
<text text-anchor="start" x="1320" y="-425.2" font-family="Times,serif" font-size="14.00">=</text>
<text text-anchor="start" x="1336" y="-425.2" font-family="Times,serif" font-size="14.00">&quot;EPT_SOFT_FILL&quot;</text>
<text text-anchor="start" x="1284.75" y="-404.2" font-family="Times,serif" font-size="14.00">char</text>
<text text-anchor="start" x="1320" y="-404.2" font-family="Times,serif" font-size="14.00">=</text>
<text text-anchor="start" x="1336" y="-404.2" font-family="Times,serif" font-size="14.00">&quot; &quot;</text>
<polygon fill="#d0d0d0" stroke="#d0d0d0" points="1282,-440.5 1282,-440.5 1468,-440.5 1468,-440.5 1282,-440.5"/>
<polygon fill="#d0d0d0" stroke="#d0d0d0" points="1282,-419.5 1282,-419.5 1318,-419.5 1318,-419.5 1282,-419.5"/>
<polygon fill="#d0d0d0" stroke="#d0d0d0" points="1318,-419.5 1318,-419.5 1334,-419.5 1334,-419.5 1318,-419.5"/>
<polygon fill="#d0d0d0" stroke="#d0d0d0" points="1334,-419.5 1334,-419.5 1468,-419.5 1468,-419.5 1334,-419.5"/>
<polygon fill="none" stroke="#d0d0d0" points="1282,-397.5 1282,-469.5 1468,-469.5 1468,-397.5 1282,-397.5"/>
</g>
<!-- obj_0xe36770 -->
<g id="node2" class="node">
<title>obj_0xe36770</title>
<polygon fill="#ff8080" stroke="none" points="311.25,-241.38 311.25,-270.12 498.75,-270.12 498.75,-241.38 311.25,-241.38"/>
<text text-anchor="start" x="313.25" y="-250.12" font-family="Times,serif" font-weight="bold" font-size="20.00" fill="#000000">Condition</text>
<text text-anchor="start" x="422.75" y="-250.12" font-family="Times,serif" font-size="14.00"> </text>
<text text-anchor="start" x="427.25" y="-250.12" font-family="Times,serif" font-size="12.00">(0xe36770)</text>
<polygon fill="none" stroke="#d0d0d0" points="310.25,-240.38 310.25,-271.12 499.75,-271.12 499.75,-240.38 310.25,-240.38"/>
</g>
<!-- obj_0xe36140&#45;&gt;obj_0xe36770 -->
<g id="edge13" class="edge">
<title>obj_0xe36140&#45;&gt;obj_0xe36770</title>
<g id="a_edge13"><a xlink:title="Pad&#45;&gt;left">
<path fill="none" stroke="#80ff80" stroke-width="4.5" d="M1282.35,-427.51C1096.89,-416.71 686.41,-388.53 553,-344.25 509.18,-329.71 464.28,-300.79 435.6,-280.18"/>
<polygon fill="#80ff80" stroke="#80ff80" stroke-width="4.5" points="437.29,-276.59 426.9,-273.83 432.62,-282.93 437.29,-276.59"/>
</a>
</g>
<text text-anchor="middle" x="737" y="-366.2" font-family="Times,serif" font-size="14.00">left</text>
</g>
<!-- obj_0xe35e60 -->
<g id="node15" class="node">
<title>obj_0xe35e60</title>
<polygon fill="#ff8080" stroke="none" points="2392.62,-241.38 2392.62,-270.12 2579.38,-270.12 2579.38,-241.38 2392.62,-241.38"/>
<text text-anchor="start" x="2394.62" y="-250.12" font-family="Times,serif" font-weight="bold" font-size="20.00" fill="#000000">Condition</text>
<text text-anchor="start" x="2504.12" y="-250.12" font-family="Times,serif" font-size="14.00"> </text>
<text text-anchor="start" x="2508.62" y="-250.12" font-family="Times,serif" font-size="12.00">(0xe35e60)</text>
<polygon fill="none" stroke="#d0d0d0" points="2391.62,-240.38 2391.62,-271.12 2580.38,-271.12 2580.38,-240.38 2391.62,-240.38"/>
</g>
<!-- obj_0xe36140&#45;&gt;obj_0xe35e60 -->
<g id="edge19" class="edge">
<title>obj_0xe36140&#45;&gt;obj_0xe35e60</title>
<g id="a_edge19"><a xlink:title="Pad&#45;&gt;right">
<path fill="none" stroke="#ff8080" stroke-width="4.5" d="M1467.77,-430.05C1626.65,-424.29 1960.29,-405.35 2235,-344.25 2307.71,-328.08 2388.52,-297.51 2438.31,-277.13"/>
<polygon fill="#ff8080" stroke="#ff8080" stroke-width="4.5" points="2440.29,-280.5 2448.03,-273.04 2437.28,-273.23 2440.29,-280.5"/>
</a>
</g>
<text text-anchor="middle" x="2161.62" y="-366.2" font-family="Times,serif" font-size="14.00">right</text>
</g>
<!-- obj_0xe2d1a0 -->
<g id="node3" class="node">
<title>obj_0xe2d1a0</title>
<polygon fill="#c0c0ff" stroke="none" points="565.5,-85 565.5,-113 812.5,-113 812.5,-85 565.5,-85"/>
<text text-anchor="start" x="567.5" y="-93" font-family="Times,serif" font-weight="bold" font-size="20.00" fill="#000000">CondDate</text>
<text text-anchor="start" x="677" y="-93" font-family="Times,serif" font-size="14.00"> </text>
<text text-anchor="start" x="681.5" y="-93" font-family="Times,serif" font-size="12.00">(0xe2d1a0)</text>
<text text-anchor="start" x="567.5" y="-69.7" font-family="Times,serif" font-size="14.00">did</text>
<text text-anchor="start" x="616.5" y="-69.7" font-family="Times,serif" font-size="14.00">=</text>
<text text-anchor="start" x="632.5" y="-69.7" font-family="Times,serif" font-size="14.00">&quot;ED_EMAIL&quot;</text>
<text text-anchor="start" x="567.5" y="-48.7" font-family="Times,serif" font-size="14.00">uid</text>
<text text-anchor="start" x="616.5" y="-48.7" font-family="Times,serif" font-size="14.00">=</text>
<text text-anchor="start" x="632.25" y="-48.7" font-family="Times,serif" font-size="14.00">&quot;ED_EMA_STRF_LOCAL&quot;</text>
<text text-anchor="start" x="567.5" y="-27.7" font-family="Times,serif" font-size="14.00">count</text>
<text text-anchor="start" x="616.5" y="-27.7" font-family="Times,serif" font-size="14.00">=</text>
<text text-anchor="start" x="632.5" y="-27.7" font-family="Times,serif" font-size="14.00">3</text>
<text text-anchor="start" x="567.12" y="-6.7" font-family="Times,serif" font-size="14.00">period</text>
<text text-anchor="start" x="616.5" y="-6.7" font-family="Times,serif" font-size="14.00">=</text>
<text text-anchor="start" x="632.5" y="-6.7" font-family="Times,serif" font-size="14.00">&#39;d&#39;</text>
<polygon fill="#d0d0d0" stroke="#d0d0d0" points="564.5,-85 564.5,-85 813.5,-85 813.5,-85 564.5,-85"/>
<polygon fill="#d0d0d0" stroke="#d0d0d0" points="564.5,-64 564.5,-64 614.5,-64 614.5,-64 564.5,-64"/>
<polygon fill="#d0d0d0" stroke="#d0d0d0" points="614.5,-64 614.5,-64 630.5,-64 630.5,-64 614.5,-64"/>
<polygon fill="#d0d0d0" stroke="#d0d0d0" points="630.5,-64 630.5,-64 813.5,-64 813.5,-64 630.5,-64"/>
<polygon fill="#d0d0d0" stroke="#d0d0d0" points="564.5,-43 564.5,-43 614.5,-43 614.5,-43 564.5,-43"/>
<polygon fill="#d0d0d0" stroke="#d0d0d0" points="614.5,-43 614.5,-43 630.5,-43 630.5,-43 614.5,-43"/>
<polygon fill="#d0d0d0" stroke="#d0d0d0" points="630.5,-43 630.5,-43 813.5,-43 813.5,-43 630.5,-43"/>
<polygon fill="#d0d0d0" stroke="#d0d0d0" points="564.5,-22 564.5,-22 614.5,-22 614.5,-22 564.5,-22"/>
<polygon fill="#d0d0d0" stroke="#d0d0d0" points="614.5,-22 614.5,-22 630.5,-22 630.5,-22 614.5,-22"/>
<polygon fill="#d0d0d0" stroke="#d0d0d0" points="630.5,-22 630.5,-22 813.5,-22 813.5,-22 630.5,-22"/>
<polygon fill="none" stroke="#d0d0d0" points="564.5,0 564.5,-114 813.5,-114 813.5,0 564.5,0"/>
</g>
<!-- obj_0xe36770&#45;&gt;obj_0xe2d1a0 -->
<g id="edge1" class="edge">
<title>obj_0xe36770&#45;&gt;obj_0xe2d1a0</title>
<g id="a_edge1"><a xlink:title="Condition&#45;&gt;condition">
<path fill="none" stroke="#ff80ff" stroke-width="4.5" d="M425.42,-240.6C460.56,-216.26 534.5,-165.03 595.15,-123.02"/>
<polygon fill="#ff80ff" stroke="#ff80ff" stroke-width="4.5" points="597.29,-125.86 603.27,-116.93 592.8,-119.39 597.29,-125.86"/>
</a>
</g>
<text text-anchor="middle" x="614" y="-135.95" font-family="Times,serif" font-size="14.00">condition</text>
</g>
<!-- obj_0xe36500 -->
<g id="node4" class="node">
<title>obj_0xe36500</title>
<polygon fill="#80ff80" stroke="none" points="1,-74.5 1,-102.5 245,-102.5 245,-74.5 1,-74.5"/>
<text text-anchor="start" x="3" y="-82.5" font-family="Times,serif" font-weight="bold" font-size="20.00" fill="#000000">Expando</text>
<text text-anchor="start" x="99" y="-82.5" font-family="Times,serif" font-size="14.00"> </text>
<text text-anchor="start" x="103.5" y="-82.5" font-family="Times,serif" font-size="12.00">(0xe36500)</text>
<text text-anchor="start" x="3" y="-59.2" font-family="Times,serif" font-size="14.00">did</text>
<text text-anchor="start" x="49" y="-59.2" font-family="Times,serif" font-size="14.00">=</text>
<text text-anchor="start" x="65" y="-59.2" font-family="Times,serif" font-size="14.00">&quot;ED_EMAIL&quot;</text>
<text text-anchor="start" x="3" y="-38.2" font-family="Times,serif" font-size="14.00">uid</text>
<text text-anchor="start" x="49" y="-38.2" font-family="Times,serif" font-size="14.00">=</text>
<text text-anchor="start" x="64.75" y="-38.2" font-family="Times,serif" font-size="14.00">&quot;ED_EMA_STRF_LOCAL&quot;</text>
<text text-anchor="start" x="2.62" y="-17.2" font-family="Times,serif" font-size="14.00">string</text>
<text text-anchor="start" x="49" y="-17.2" font-family="Times,serif" font-size="14.00">=</text>
<text text-anchor="start" x="65" y="-17.2" font-family="Times,serif" font-size="14.00">&quot;%H:%M &quot;</text>
<polygon fill="#d0d0d0" stroke="#d0d0d0" points="0,-74.5 0,-74.5 246,-74.5 246,-74.5 0,-74.5"/>
<polygon fill="#d0d0d0" stroke="#d0d0d0" points="0,-53.5 0,-53.5 47,-53.5 47,-53.5 0,-53.5"/>
<polygon fill="#d0d0d0" stroke="#d0d0d0" points="47,-53.5 47,-53.5 63,-53.5 63,-53.5 47,-53.5"/>
<polygon fill="#d0d0d0" stroke="#d0d0d0" points="63,-53.5 63,-53.5 246,-53.5 246,-53.5 63,-53.5"/>
<polygon fill="#d0d0d0" stroke="#d0d0d0" points="0,-32.5 0,-32.5 47,-32.5 47,-32.5 0,-32.5"/>
<polygon fill="#d0d0d0" stroke="#d0d0d0" points="47,-32.5 47,-32.5 63,-32.5 63,-32.5 47,-32.5"/>
<polygon fill="#d0d0d0" stroke="#d0d0d0" points="63,-32.5 63,-32.5 246,-32.5 246,-32.5 63,-32.5"/>
<polygon fill="none" stroke="#d0d0d0" points="0,-10.5 0,-103.5 246,-103.5 246,-10.5 0,-10.5"/>
</g>
<!-- obj_0xe36770&#45;&gt;obj_0xe36500 -->
<g id="edge2" class="edge">
<title>obj_0xe36770&#45;&gt;obj_0xe36500</title>
<g id="a_edge2"><a xlink:title="Condition&#45;&gt;true">
<path fill="none" stroke="#80ff80" stroke-width="4.5" d="M384.72,-240.6C346.87,-214.19 263.67,-156.14 201.17,-112.54"/>
<polygon fill="#80ff80" stroke="#80ff80" stroke-width="4.5" points="203.62,-108.96 193.17,-106.47 199.12,-115.42 203.62,-108.96"/>
</a>
</g>
<text text-anchor="middle" x="263" y="-135.95" font-family="Times,serif" font-size="14.00">true</text>
</g>
<!-- obj_0xe367e0 -->
<g id="node5" class="node">
<title>obj_0xe367e0</title>
<polygon fill="#80ff80" stroke="none" points="283,-74.5 283,-102.5 527,-102.5 527,-74.5 283,-74.5"/>
<text text-anchor="start" x="285" y="-82.5" font-family="Times,serif" font-weight="bold" font-size="20.00" fill="#000000">Expando</text>
<text text-anchor="start" x="381" y="-82.5" font-family="Times,serif" font-size="14.00"> </text>
<text text-anchor="start" x="385.5" y="-82.5" font-family="Times,serif" font-size="12.00">(0xe367e0)</text>
<text text-anchor="start" x="285" y="-59.2" font-family="Times,serif" font-size="14.00">did</text>
<text text-anchor="start" x="331" y="-59.2" font-family="Times,serif" font-size="14.00">=</text>
<text text-anchor="start" x="347" y="-59.2" font-family="Times,serif" font-size="14.00">&quot;ED_EMAIL&quot;</text>
<text text-anchor="start" x="285" y="-38.2" font-family="Times,serif" font-size="14.00">uid</text>
<text text-anchor="start" x="331" y="-38.2" font-family="Times,serif" font-size="14.00">=</text>
<text text-anchor="start" x="346.75" y="-38.2" font-family="Times,serif" font-size="14.00">&quot;ED_EMA_STRF_LOCAL&quot;</text>
<text text-anchor="start" x="284.62" y="-17.2" font-family="Times,serif" font-size="14.00">string</text>
<text text-anchor="start" x="331" y="-17.2" font-family="Times,serif" font-size="14.00">=</text>
<text text-anchor="start" x="347" y="-17.2" font-family="Times,serif" font-size="14.00">&quot;%a&#45;%d&quot;</text>
<polygon fill="#d0d0d0" stroke="#d0d0d0" points="282,-74.5 282,-74.5 528,-74.5 528,-74.5 282,-74.5"/>
<polygon fill="#d0d0d0" stroke="#d0d0d0" points="282,-53.5 282,-53.5 329,-53.5 329,-53.5 282,-53.5"/>
<polygon fill="#d0d0d0" stroke="#d0d0d0" points="329,-53.5 329,-53.5 345,-53.5 345,-53.5 329,-53.5"/>
<polygon fill="#d0d0d0" stroke="#d0d0d0" points="345,-53.5 345,-53.5 528,-53.5 528,-53.5 345,-53.5"/>
<polygon fill="#d0d0d0" stroke="#d0d0d0" points="282,-32.5 282,-32.5 329,-32.5 329,-32.5 282,-32.5"/>
<polygon fill="#d0d0d0" stroke="#d0d0d0" points="329,-32.5 329,-32.5 345,-32.5 345,-32.5 329,-32.5"/>
<polygon fill="#d0d0d0" stroke="#d0d0d0" points="345,-32.5 345,-32.5 528,-32.5 528,-32.5 345,-32.5"/>
<polygon fill="none" stroke="#d0d0d0" points="282,-10.5 282,-103.5 528,-103.5 528,-10.5 282,-10.5"/>
</g>
<!-- obj_0xe36770&#45;&gt;obj_0xe367e0 -->
<g id="edge3" class="edge">
<title>obj_0xe36770&#45;&gt;obj_0xe367e0</title>
<g id="a_edge3"><a xlink:title="Condition&#45;&gt;false">
<path fill="none" stroke="#ff8080" stroke-width="4.5" d="M405,-240.6C405,-215.52 405,-161.89 405,-119.21"/>
<polygon fill="#ff8080" stroke="#ff8080" stroke-width="4.5" points="408.94,-119.47 405,-109.47 401.06,-119.47 408.94,-119.47"/>
</a>
</g>
<text text-anchor="middle" x="421.88" y="-135.95" font-family="Times,serif" font-size="14.00">false</text>
</g>
<!-- obj_0xe366e0 -->
<g id="node6" class="node">
<title>obj_0xe366e0</title>
<polygon fill="#ffff80" stroke="none" points="572.5,-252.25 572.5,-280.25 693.5,-280.25 693.5,-252.25 572.5,-252.25"/>
<text text-anchor="start" x="574.12" y="-260.25" font-family="Times,serif" font-weight="bold" font-size="20.00" fill="#000000">Text</text>
<text text-anchor="start" x="620.62" y="-260.25" font-family="Times,serif" font-size="14.00"> </text>
<text text-anchor="start" x="625.12" y="-260.25" font-family="Times,serif" font-size="12.00">(0xe366e0)</text>
<text text-anchor="start" x="574.5" y="-236.95" font-family="Times,serif" font-size="14.00">text</text>
<text text-anchor="start" x="638" y="-236.95" font-family="Times,serif" font-size="14.00">=</text>
<text text-anchor="start" x="660.5" y="-236.95" font-family="Times,serif" font-size="14.00">&quot; &quot;</text>
<polygon fill="#d0d0d0" stroke="#d0d0d0" points="571.5,-252.25 571.5,-252.25 694.5,-252.25 694.5,-252.25 571.5,-252.25"/>
<polygon fill="none" stroke="#d0d0d0" points="571.5,-230.25 571.5,-281.25 694.5,-281.25 694.5,-230.25 571.5,-230.25"/>
</g>
<!-- obj_0xe36770&#45;&gt;obj_0xe366e0 -->
<g id="edge4" class="edge">
<title>obj_0xe36770&#45;&gt;obj_0xe366e0</title>
<g id="a_edge4"><a xlink:title="ExpandoNode&#45;&gt;next">
<path fill="none" stroke="#808080" stroke-width="4.5" d="M499.41,-255.75C518.23,-255.75 537.05,-255.75 555.87,-255.75"/>
<polygon fill="#808080" stroke="#808080" stroke-width="4.5" points="555.68,-259.69 565.68,-255.75 555.68,-251.81 555.68,-259.69"/>
</a>
</g>
</g>
<!-- obj_0xe36670 -->
<g id="node7" class="node">
<title>obj_0xe36670</title>
<polygon fill="#80ff80" stroke="none" points="767.5,-273.25 767.5,-301.25 1058.5,-301.25 1058.5,-273.25 767.5,-273.25"/>
<text text-anchor="start" x="769.5" y="-281.25" font-family="Times,serif" font-weight="bold" font-size="20.00" fill="#000000">Expando</text>
<text text-anchor="start" x="865.5" y="-281.25" font-family="Times,serif" font-size="14.00"> </text>
<text text-anchor="start" x="870" y="-281.25" font-family="Times,serif" font-size="12.00">(0xe36670)</text>
<text text-anchor="start" x="769.5" y="-257.95" font-family="Times,serif" font-size="14.00">did</text>
<text text-anchor="start" x="815.5" y="-257.95" font-family="Times,serif" font-size="14.00">=</text>
<text text-anchor="start" x="831.5" y="-257.95" font-family="Times,serif" font-size="14.00">&quot;ED_EMAIL&quot;</text>
<text text-anchor="start" x="769.5" y="-236.95" font-family="Times,serif" font-size="14.00">uid</text>
<text text-anchor="start" x="815.5" y="-236.95" font-family="Times,serif" font-size="14.00">=</text>
<text text-anchor="start" x="831.5" y="-236.95" font-family="Times,serif" font-size="14.00">&quot;ED_EMA_COMBINED_FLAGS&quot;</text>
<text text-anchor="start" x="769.12" y="-215.95" font-family="Times,serif" font-size="14.00">string</text>
<text text-anchor="start" x="815.5" y="-215.95" font-family="Times,serif" font-size="14.00">=</text>
<text text-anchor="start" x="831.5" y="-215.95" font-family="Times,serif" font-size="14.00">&quot;Z&quot;</text>
<polygon fill="#d0d0d0" stroke="#d0d0d0" points="766.5,-273.25 766.5,-273.25 1059.5,-273.25 1059.5,-273.25 766.5,-273.25"/>
<polygon fill="#d0d0d0" stroke="#d0d0d0" points="766.5,-252.25 766.5,-252.25 813.5,-252.25 813.5,-252.25 766.5,-252.25"/>
<polygon fill="#d0d0d0" stroke="#d0d0d0" points="813.5,-252.25 813.5,-252.25 829.5,-252.25 829.5,-252.25 813.5,-252.25"/>
<polygon fill="#d0d0d0" stroke="#d0d0d0" points="829.5,-252.25 829.5,-252.25 1059.5,-252.25 1059.5,-252.25 829.5,-252.25"/>
<polygon fill="#d0d0d0" stroke="#d0d0d0" points="766.5,-231.25 766.5,-231.25 813.5,-231.25 813.5,-231.25 766.5,-231.25"/>
<polygon fill="#d0d0d0" stroke="#d0d0d0" points="813.5,-231.25 813.5,-231.25 829.5,-231.25 829.5,-231.25 813.5,-231.25"/>
<polygon fill="#d0d0d0" stroke="#d0d0d0" points="829.5,-231.25 829.5,-231.25 1059.5,-231.25 1059.5,-231.25 829.5,-231.25"/>
<polygon fill="none" stroke="#d0d0d0" points="766.5,-209.25 766.5,-302.25 1059.5,-302.25 1059.5,-209.25 766.5,-209.25"/>
</g>
<!-- obj_0xe366e0&#45;&gt;obj_0xe36670 -->
<g id="edge5" class="edge">
<title>obj_0xe366e0&#45;&gt;obj_0xe36670</title>
<g id="a_edge5"><a xlink:title="ExpandoNode&#45;&gt;next">
<path fill="none" stroke="#808080" stroke-width="4.5" d="M694.25,-255.75C713.16,-255.75 732.08,-255.75 750.99,-255.75"/>
<polygon fill="#808080" stroke="#808080" stroke-width="4.5" points="750.88,-259.69 760.88,-255.75 750.88,-251.81 750.88,-259.69"/>
</a>
</g>
</g>
<!-- obj_0xe36600 -->
<g id="node8" class="node">
<title>obj_0xe36600</title>
<polygon fill="#ffff80" stroke="none" points="1132,-252.25 1132,-280.25 1254,-280.25 1254,-252.25 1132,-252.25"/>
<text text-anchor="start" x="1133.75" y="-260.25" font-family="Times,serif" font-weight="bold" font-size="20.00" fill="#000000">Text</text>
<text text-anchor="start" x="1180.25" y="-260.25" font-family="Times,serif" font-size="14.00"> </text>
<text text-anchor="start" x="1184.75" y="-260.25" font-family="Times,serif" font-size="12.00">(0xe36600)</text>
<text text-anchor="start" x="1134" y="-236.95" font-family="Times,serif" font-size="14.00">text</text>
<text text-anchor="start" x="1198.5" y="-236.95" font-family="Times,serif" font-size="14.00">=</text>
<text text-anchor="start" x="1221" y="-236.95" font-family="Times,serif" font-size="14.00">&quot; &quot;</text>
<polygon fill="#d0d0d0" stroke="#d0d0d0" points="1131,-252.25 1131,-252.25 1255,-252.25 1255,-252.25 1131,-252.25"/>
<polygon fill="none" stroke="#d0d0d0" points="1131,-230.25 1131,-281.25 1255,-281.25 1255,-230.25 1131,-230.25"/>
</g>
<!-- obj_0xe36670&#45;&gt;obj_0xe36600 -->
<g id="edge6" class="edge">
<title>obj_0xe36670&#45;&gt;obj_0xe36600</title>
<g id="a_edge6"><a xlink:title="ExpandoNode&#45;&gt;next">
<path fill="none" stroke="#808080" stroke-width="4.5" d="M1059.29,-255.75C1077.9,-255.75 1096.51,-255.75 1115.12,-255.75"/>
<polygon fill="#808080" stroke="#808080" stroke-width="4.5" points="1115.11,-259.69 1125.11,-255.75 1115.11,-251.81 1115.11,-259.69"/>
</a>
</g>
</g>
<!-- obj_0xe36590 -->
<g id="node9" class="node">
<title>obj_0xe36590</title>
<polygon fill="#80ff80" stroke="none" points="1327.5,-315.25 1327.5,-343.25 1562.5,-343.25 1562.5,-315.25 1327.5,-315.25"/>
<text text-anchor="start" x="1329.5" y="-323.25" font-family="Times,serif" font-weight="bold" font-size="20.00" fill="#000000">Expando</text>
<text text-anchor="start" x="1425.5" y="-323.25" font-family="Times,serif" font-size="14.00"> </text>
<text text-anchor="start" x="1430" y="-323.25" font-family="Times,serif" font-size="12.00">(0xe36590)</text>
<text text-anchor="start" x="1329.5" y="-299.95" font-family="Times,serif" font-size="14.00">did</text>
<text text-anchor="start" x="1417.5" y="-299.95" font-family="Times,serif" font-size="14.00">=</text>
<text text-anchor="start" x="1433.5" y="-299.95" font-family="Times,serif" font-size="14.00">&quot;ED_ENVELOPE&quot;</text>
<text text-anchor="start" x="1329.5" y="-278.95" font-family="Times,serif" font-size="14.00">uid</text>
<text text-anchor="start" x="1417.5" y="-278.95" font-family="Times,serif" font-size="14.00">=</text>
<text text-anchor="start" x="1433.25" y="-278.95" font-family="Times,serif" font-size="14.00">&quot;ED_ENV_NAME&quot;</text>
<text text-anchor="start" x="1329.5" y="-257.95" font-family="Times,serif" font-size="14.00">string</text>
<text text-anchor="start" x="1417.5" y="-257.95" font-family="Times,serif" font-size="14.00">=</text>
<text text-anchor="start" x="1433.5" y="-257.95" font-family="Times,serif" font-size="14.00">&quot;n&quot;</text>
<text text-anchor="start" x="1329.5" y="-236.95" font-family="Times,serif" font-size="14.00">min_cols</text>
<text text-anchor="start" x="1417.5" y="-236.95" font-family="Times,serif" font-size="14.00">=</text>
<text text-anchor="start" x="1433.5" y="-236.95" font-family="Times,serif" font-size="14.00">25</text>
<text text-anchor="start" x="1329.5" y="-215.95" font-family="Times,serif" font-size="14.00">max_cols</text>
<text text-anchor="start" x="1417.5" y="-215.95" font-family="Times,serif" font-size="14.00">=</text>
<text text-anchor="start" x="1433.5" y="-215.95" font-family="Times,serif" font-size="14.00">25</text>
<text text-anchor="start" x="1329.5" y="-194.95" font-family="Times,serif" font-size="14.00">justification</text>
<text text-anchor="start" x="1417.5" y="-194.95" font-family="Times,serif" font-size="14.00">=</text>
<text text-anchor="start" x="1433.5" y="-194.95" font-family="Times,serif" font-size="14.00">&quot;JUSTIFY_LEFT&quot;</text>
<text text-anchor="start" x="1329.5" y="-173.95" font-family="Times,serif" font-size="14.00">leader</text>
<text text-anchor="start" x="1417.5" y="-173.95" font-family="Times,serif" font-size="14.00">=</text>
<text text-anchor="start" x="1433.5" y="-173.95" font-family="Times,serif" font-size="14.00">&#39; &#39;</text>
<polygon fill="#d0d0d0" stroke="#d0d0d0" points="1326.5,-315.25 1326.5,-315.25 1563.5,-315.25 1563.5,-315.25 1326.5,-315.25"/>
<polygon fill="#d0d0d0" stroke="#d0d0d0" points="1326.5,-294.25 1326.5,-294.25 1415.5,-294.25 1415.5,-294.25 1326.5,-294.25"/>
<polygon fill="#d0d0d0" stroke="#d0d0d0" points="1415.5,-294.25 1415.5,-294.25 1431.5,-294.25 1431.5,-294.25 1415.5,-294.25"/>
<polygon fill="#d0d0d0" stroke="#d0d0d0" points="1431.5,-294.25 1431.5,-294.25 1563.5,-294.25 1563.5,-294.25 1431.5,-294.25"/>
<polygon fill="#d0d0d0" stroke="#d0d0d0" points="1326.5,-273.25 1326.5,-273.25 1415.5,-273.25 1415.5,-273.25 1326.5,-273.25"/>
<polygon fill="#d0d0d0" stroke="#d0d0d0" points="1415.5,-273.25 1415.5,-273.25 1431.5,-273.25 1431.5,-273.25 1415.5,-273.25"/>
<polygon fill="#d0d0d0" stroke="#d0d0d0" points="1431.5,-273.25 1431.5,-273.25 1563.5,-273.25 1563.5,-273.25 1431.5,-273.25"/>
<polygon fill="#d0d0d0" stroke="#d0d0d0" points="1326.5,-252.25 1326.5,-252.25 1415.5,-252.25 1415.5,-252.25 1326.5,-252.25"/>
<polygon fill="#d0d0d0" stroke="#d0d0d0" points="1415.5,-252.25 1415.5,-252.25 1431.5,-252.25 1431.5,-252.25 1415.5,-252.25"/>
<polygon fill="#d0d0d0" stroke="#d0d0d0" points="1431.5,-252.25 1431.5,-252.25 1563.5,-252.25 1563.5,-252.25 1431.5,-252.25"/>
<polygon fill="#d0d0d0" stroke="#d0d0d0" points="1326.5,-231.25 1326.5,-231.25 1415.5,-231.25 1415.5,-231.25 1326.5,-231.25"/>
<polygon fill="#d0d0d0" stroke="#d0d0d0" points="1415.5,-231.25 1415.5,-231.25 1431.5,-231.25 1431.5,-231.25 1415.5,-231.25"/>
<polygon fill="#d0d0d0" stroke="#d0d0d0" points="1431.5,-231.25 1431.5,-231.25 1563.5,-231.25 1563.5,-231.25 1431.5,-231.25"/>
<polygon fill="#d0d0d0" stroke="#d0d0d0" points="1326.5,-210.25 1326.5,-210.25 1415.5,-210.25 1415.5,-210.25 1326.5,-210.25"/>
<polygon fill="#d0d0d0" stroke="#d0d0d0" points="1415.5,-210.25 1415.5,-210.25 1431.5,-210.25 1431.5,-210.25 1415.5,-210.25"/>
<polygon fill="#d0d0d0" stroke="#d0d0d0" points="1431.5,-210.25 1431.5,-210.25 1563.5,-210.25 1563.5,-210.25 1431.5,-210.25"/>
<polygon fill="#d0d0d0" stroke="#d0d0d0" points="1326.5,-189.25 1326.5,-189.25 1415.5,-189.25 1415.5,-189.25 1326.5,-189.25"/>
<polygon fill="#d0d0d0" stroke="#d0d0d0" points="1415.5,-189.25 1415.5,-189.25 1431.5,-189.25 1431.5,-189.25 1415.5,-189.25"/>
<polygon fill="#d0d0d0" stroke="#d0d0d0" points="1431.5,-189.25 1431.5,-189.25 1563.5,-189.25 1563.5,-189.25 1431.5,-189.25"/>
<polygon fill="none" stroke="#d0d0d0" points="1326.5,-167.25 1326.5,-344.25 1563.5,-344.25 1563.5,-167.25 1326.5,-167.25"/>
</g>
<!-- obj_0xe36600&#45;&gt;obj_0xe36590 -->
<g id="edge7" class="edge">
<title>obj_0xe36600&#45;&gt;obj_0xe36590</title>
<g id="a_edge7"><a xlink:title="ExpandoNode&#45;&gt;next">
<path fill="none" stroke="#808080" stroke-width="4.5" d="M1254.52,-255.75C1273.32,-255.75 1292.11,-255.75 1310.91,-255.75"/>
<polygon fill="#808080" stroke="#808080" stroke-width="4.5" points="1310.7,-259.69 1320.7,-255.75 1310.7,-251.81 1310.7,-259.69"/>
</a>
</g>
</g>
<!-- obj_0xe36490 -->
<g id="node10" class="node">
<title>obj_0xe36490</title>
<polygon fill="#ffff80" stroke="none" points="1636,-252.25 1636,-280.25 1758,-280.25 1758,-252.25 1636,-252.25"/>
<text text-anchor="start" x="1637.75" y="-260.25" font-family="Times,serif" font-weight="bold" font-size="20.00" fill="#000000">Text</text>
<text text-anchor="start" x="1684.25" y="-260.25" font-family="Times,serif" font-size="14.00"> </text>
<text text-anchor="start" x="1688.75" y="-260.25" font-family="Times,serif" font-size="12.00">(0xe36490)</text>
<text text-anchor="start" x="1638" y="-236.95" font-family="Times,serif" font-size="14.00">text</text>
<text text-anchor="start" x="1702.5" y="-236.95" font-family="Times,serif" font-size="14.00">=</text>
<text text-anchor="start" x="1725" y="-236.95" font-family="Times,serif" font-size="14.00">&quot; &quot;</text>
<polygon fill="#d0d0d0" stroke="#d0d0d0" points="1635,-252.25 1635,-252.25 1759,-252.25 1759,-252.25 1635,-252.25"/>
<polygon fill="none" stroke="#d0d0d0" points="1635,-230.25 1635,-281.25 1759,-281.25 1759,-230.25 1635,-230.25"/>
</g>
<!-- obj_0xe36590&#45;&gt;obj_0xe36490 -->
<g id="edge8" class="edge">
<title>obj_0xe36590&#45;&gt;obj_0xe36490</title>
<g id="a_edge8"><a xlink:title="ExpandoNode&#45;&gt;next">
<path fill="none" stroke="#808080" stroke-width="4.5" d="M1563.12,-255.75C1581.85,-255.75 1600.58,-255.75 1619.3,-255.75"/>
<polygon fill="#808080" stroke="#808080" stroke-width="4.5" points="1619.03,-259.69 1629.03,-255.75 1619.03,-251.81 1619.03,-259.69"/>
</a>
</g>
</g>
<!-- obj_0xe362b0 -->
<g id="node11" class="node">
<title>obj_0xe362b0</title>
<polygon fill="#80ffff" stroke="none" points="1831.88,-241.38 1831.88,-270.12 2020.12,-270.12 2020.12,-241.38 1831.88,-241.38"/>
<text text-anchor="start" x="1833.88" y="-250.12" font-family="Times,serif" font-weight="bold" font-size="20.00" fill="#000000">Container</text>
<text text-anchor="start" x="1944.12" y="-250.12" font-family="Times,serif" font-size="14.00"> </text>
<text text-anchor="start" x="1948.62" y="-250.12" font-family="Times,serif" font-size="12.00">(0xe362b0)</text>
<polygon fill="none" stroke="#d0d0d0" points="1830.88,-240.38 1830.88,-271.12 2021.12,-271.12 2021.12,-240.38 1830.88,-240.38"/>
</g>
<!-- obj_0xe36490&#45;&gt;obj_0xe362b0 -->
<g id="edge11" class="edge">
<title>obj_0xe36490&#45;&gt;obj_0xe362b0</title>
<g id="a_edge11"><a xlink:title="ExpandoNode&#45;&gt;next">
<path fill="none" stroke="#808080" stroke-width="4.5" d="M1758.72,-255.75C1777.53,-255.75 1796.33,-255.75 1815.13,-255.75"/>
<polygon fill="#808080" stroke="#808080" stroke-width="4.5" points="1814.93,-259.69 1824.93,-255.75 1814.93,-251.81 1814.93,-259.69"/>
</a>
</g>
</g>
<!-- obj_0xe36220 -->
<g id="node12" class="node">
<title>obj_0xe36220</title>
<polygon fill="#80ff80" stroke="none" points="1729.5,-74.5 1729.5,-102.5 1986.5,-102.5 1986.5,-74.5 1729.5,-74.5"/>
<text text-anchor="start" x="1731.5" y="-82.5" font-family="Times,serif" font-weight="bold" font-size="20.00" fill="#000000">Expando</text>
<text text-anchor="start" x="1827.5" y="-82.5" font-family="Times,serif" font-size="14.00"> </text>
<text text-anchor="start" x="1832" y="-82.5" font-family="Times,serif" font-size="12.00">(0xe36220)</text>
<text text-anchor="start" x="1731.5" y="-59.2" font-family="Times,serif" font-size="14.00">did</text>
<text text-anchor="start" x="1777.5" y="-59.2" font-family="Times,serif" font-size="14.00">=</text>
<text text-anchor="start" x="1793.5" y="-59.2" font-family="Times,serif" font-size="14.00">&quot;ED_ENVELOPE&quot;</text>
<text text-anchor="start" x="1731.5" y="-38.2" font-family="Times,serif" font-size="14.00">uid</text>
<text text-anchor="start" x="1777.5" y="-38.2" font-family="Times,serif" font-size="14.00">=</text>
<text text-anchor="start" x="1793.38" y="-38.2" font-family="Times,serif" font-size="14.00">&quot;ED_ENV_THREAD_TREE&quot;</text>
<text text-anchor="start" x="1731.12" y="-17.2" font-family="Times,serif" font-size="14.00">string</text>
<text text-anchor="start" x="1777.5" y="-17.2" font-family="Times,serif" font-size="14.00">=</text>
<text text-anchor="start" x="1793.5" y="-17.2" font-family="Times,serif" font-size="14.00">&quot;s&quot;</text>
<polygon fill="#d0d0d0" stroke="#d0d0d0" points="1728.5,-74.5 1728.5,-74.5 1987.5,-74.5 1987.5,-74.5 1728.5,-74.5"/>
<polygon fill="#d0d0d0" stroke="#d0d0d0" points="1728.5,-53.5 1728.5,-53.5 1775.5,-53.5 1775.5,-53.5 1728.5,-53.5"/>
<polygon fill="#d0d0d0" stroke="#d0d0d0" points="1775.5,-53.5 1775.5,-53.5 1791.5,-53.5 1791.5,-53.5 1775.5,-53.5"/>
<polygon fill="#d0d0d0" stroke="#d0d0d0" points="1791.5,-53.5 1791.5,-53.5 1987.5,-53.5 1987.5,-53.5 1791.5,-53.5"/>
<polygon fill="#d0d0d0" stroke="#d0d0d0" points="1728.5,-32.5 1728.5,-32.5 1775.5,-32.5 1775.5,-32.5 1728.5,-32.5"/>
<polygon fill="#d0d0d0" stroke="#d0d0d0" points="1775.5,-32.5 1775.5,-32.5 1791.5,-32.5 1791.5,-32.5 1775.5,-32.5"/>
<polygon fill="#d0d0d0" stroke="#d0d0d0" points="1791.5,-32.5 1791.5,-32.5 1987.5,-32.5 1987.5,-32.5 1791.5,-32.5"/>
<polygon fill="none" stroke="#d0d0d0" points="1728.5,-10.5 1728.5,-103.5 1987.5,-103.5 1987.5,-10.5 1728.5,-10.5"/>
</g>
<!-- obj_0xe362b0&#45;&gt;obj_0xe36220 -->
<g id="edge10" class="edge">
<title>obj_0xe362b0&#45;&gt;obj_0xe36220</title>
<g id="a_edge10"><a xlink:title="Node&#45;&gt;child">
<path fill="none" stroke="#80ff80" stroke-width="4.5" d="M1921.11,-240.6C1912.38,-215.35 1893.66,-161.18 1878.86,-118.36"/>
<polygon fill="#80ff80" stroke="#80ff80" stroke-width="4.5" points="1882.7,-116.63 1875.71,-108.47 1875.26,-119.2 1882.7,-116.63"/>
</a>
</g>
<text text-anchor="middle" x="1905.25" y="-135.95" font-family="Times,serif" font-size="14.00">child</text>
</g>
<!-- obj_0xe361b0 -->
<g id="node14" class="node">
<title>obj_0xe361b0</title>
<polygon fill="#ffff80" stroke="none" points="2094,-252.25 2094,-280.25 2216,-280.25 2216,-252.25 2094,-252.25"/>
<text text-anchor="start" x="2095.75" y="-260.25" font-family="Times,serif" font-weight="bold" font-size="20.00" fill="#000000">Text</text>
<text text-anchor="start" x="2142.25" y="-260.25" font-family="Times,serif" font-size="14.00"> </text>
<text text-anchor="start" x="2146.75" y="-260.25" font-family="Times,serif" font-size="12.00">(0xe361b0)</text>
<text text-anchor="start" x="2096" y="-236.95" font-family="Times,serif" font-size="14.00">text</text>
<text text-anchor="start" x="2160.5" y="-236.95" font-family="Times,serif" font-size="14.00">=</text>
<text text-anchor="start" x="2183" y="-236.95" font-family="Times,serif" font-size="14.00">&quot; &quot;</text>
<polygon fill="#d0d0d0" stroke="#d0d0d0" points="2093,-252.25 2093,-252.25 2217,-252.25 2217,-252.25 2093,-252.25"/>
<polygon fill="none" stroke="#d0d0d0" points="2093,-230.25 2093,-281.25 2217,-281.25 2217,-230.25 2093,-230.25"/>
</g>
<!-- obj_0xe362b0&#45;&gt;obj_0xe361b0 -->
<g id="edge12" class="edge">
<title>obj_0xe362b0&#45;&gt;obj_0xe361b0</title>
<g id="a_edge12"><a xlink:title="ExpandoNode&#45;&gt;next">
<path fill="none" stroke="#808080" stroke-width="4.5" d="M2020.82,-255.75C2039.66,-255.75 2058.49,-255.75 2077.33,-255.75"/>
<polygon fill="#808080" stroke="#808080" stroke-width="4.5" points="2077.15,-259.69 2087.15,-255.75 2077.15,-251.81 2077.15,-259.69"/>
</a>
</g>
</g>
<!-- obj_0xe36340 -->
<g id="node13" class="node">
<title>obj_0xe36340</title>
<polygon fill="#80ff80" stroke="none" points="2060,-74.5 2060,-102.5 2274,-102.5 2274,-74.5 2060,-74.5"/>
<text text-anchor="start" x="2062" y="-82.5" font-family="Times,serif" font-weight="bold" font-size="20.00" fill="#000000">Expando</text>
<text text-anchor="start" x="2158" y="-82.5" font-family="Times,serif" font-size="14.00"> </text>
<text text-anchor="start" x="2162.5" y="-82.5" font-family="Times,serif" font-size="12.00">(0xe36340)</text>
<text text-anchor="start" x="2062" y="-59.2" font-family="Times,serif" font-size="14.00">did</text>
<text text-anchor="start" x="2108" y="-59.2" font-family="Times,serif" font-size="14.00">=</text>
<text text-anchor="start" x="2124" y="-59.2" font-family="Times,serif" font-size="14.00">&quot;ED_ENVELOPE&quot;</text>
<text text-anchor="start" x="2062" y="-38.2" font-family="Times,serif" font-size="14.00">uid</text>
<text text-anchor="start" x="2108" y="-38.2" font-family="Times,serif" font-size="14.00">=</text>
<text text-anchor="start" x="2123.75" y="-38.2" font-family="Times,serif" font-size="14.00">&quot;ED_ENV_SUBJECT&quot;</text>
<text text-anchor="start" x="2061.62" y="-17.2" font-family="Times,serif" font-size="14.00">string</text>
<text text-anchor="start" x="2108" y="-17.2" font-family="Times,serif" font-size="14.00">=</text>
<text text-anchor="start" x="2124" y="-17.2" font-family="Times,serif" font-size="14.00">&quot;s&quot;</text>
<polygon fill="#d0d0d0" stroke="#d0d0d0" points="2059,-74.5 2059,-74.5 2275,-74.5 2275,-74.5 2059,-74.5"/>
<polygon fill="#d0d0d0" stroke="#d0d0d0" points="2059,-53.5 2059,-53.5 2106,-53.5 2106,-53.5 2059,-53.5"/>
<polygon fill="#d0d0d0" stroke="#d0d0d0" points="2106,-53.5 2106,-53.5 2122,-53.5 2122,-53.5 2106,-53.5"/>
<polygon fill="#d0d0d0" stroke="#d0d0d0" points="2122,-53.5 2122,-53.5 2275,-53.5 2275,-53.5 2122,-53.5"/>
<polygon fill="#d0d0d0" stroke="#d0d0d0" points="2059,-32.5 2059,-32.5 2106,-32.5 2106,-32.5 2059,-32.5"/>
<polygon fill="#d0d0d0" stroke="#d0d0d0" points="2106,-32.5 2106,-32.5 2122,-32.5 2122,-32.5 2106,-32.5"/>
<polygon fill="#d0d0d0" stroke="#d0d0d0" points="2122,-32.5 2122,-32.5 2275,-32.5 2275,-32.5 2122,-32.5"/>
<polygon fill="none" stroke="#d0d0d0" points="2059,-10.5 2059,-103.5 2275,-103.5 2275,-10.5 2059,-10.5"/>
</g>
<!-- obj_0xe36220&#45;&gt;obj_0xe36340 -->
<g id="edge9" class="edge">
<title>obj_0xe36220&#45;&gt;obj_0xe36340</title>
<g id="a_edge9"><a xlink:title="ExpandoNode&#45;&gt;next">
<path fill="none" stroke="#808080" stroke-width="4.5" d="M1987.45,-57C2006.18,-57 2024.9,-57 2043.62,-57"/>
<polygon fill="#808080" stroke="#808080" stroke-width="4.5" points="2043.34,-60.94 2053.34,-57 2043.34,-53.06 2043.34,-60.94"/>
</a>
</g>
</g>
<!-- obj_0xe360d0 -->
<g id="node16" class="node">
<title>obj_0xe360d0</title>
<polygon fill="#c0c0ff" stroke="none" points="3105,-74.5 3105,-102.5 3447,-102.5 3447,-74.5 3105,-74.5"/>
<text text-anchor="start" x="3107" y="-82.5" font-family="Times,serif" font-weight="bold" font-size="20.00" fill="#000000">CondBool</text>
<text text-anchor="start" x="3216.5" y="-82.5" font-family="Times,serif" font-size="14.00"> </text>
<text text-anchor="start" x="3221" y="-82.5" font-family="Times,serif" font-size="12.00">(0xe360d0)</text>
<text text-anchor="start" x="3107" y="-59.2" font-family="Times,serif" font-size="14.00">did</text>
<text text-anchor="start" x="3153" y="-59.2" font-family="Times,serif" font-size="14.00">=</text>
<text text-anchor="start" x="3169" y="-59.2" font-family="Times,serif" font-size="14.00">&quot;ED_EMAIL&quot;</text>
<text text-anchor="start" x="3107" y="-38.2" font-family="Times,serif" font-size="14.00">uid</text>
<text text-anchor="start" x="3153" y="-38.2" font-family="Times,serif" font-size="14.00">=</text>
<text text-anchor="start" x="3168.62" y="-38.2" font-family="Times,serif" font-size="14.00">&quot;ED_EMA_THREAD_HIDDEN_COUNT&quot;</text>
<text text-anchor="start" x="3106.62" y="-17.2" font-family="Times,serif" font-size="14.00">string</text>
<text text-anchor="start" x="3153" y="-17.2" font-family="Times,serif" font-size="14.00">=</text>
<text text-anchor="start" x="3169" y="-17.2" font-family="Times,serif" font-size="14.00">&quot;M&quot;</text>
<polygon fill="#d0d0d0" stroke="#d0d0d0" points="3104,-74.5 3104,-74.5 3448,-74.5 3448,-74.5 3104,-74.5"/>
<polygon fill="#d0d0d0" stroke="#d0d0d0" points="3104,-53.5 3104,-53.5 3151,-53.5 3151,-53.5 3104,-53.5"/>
<polygon fill="#d0d0d0" stroke="#d0d0d0" points="3151,-53.5 3151,-53.5 3167,-53.5 3167,-53.5 3151,-53.5"/>
<polygon fill="#d0d0d0" stroke="#d0d0d0" points="3167,-53.5 3167,-53.5 3448,-53.5 3448,-53.5 3167,-53.5"/>
<polygon fill="#d0d0d0" stroke="#d0d0d0" points="3104,-32.5 3104,-32.5 3151,-32.5 3151,-32.5 3104,-32.5"/>
<polygon fill="#d0d0d0" stroke="#d0d0d0" points="3151,-32.5 3151,-32.5 3167,-32.5 3167,-32.5 3151,-32.5"/>
<polygon fill="#d0d0d0" stroke="#d0d0d0" points="3167,-32.5 3167,-32.5 3448,-32.5 3448,-32.5 3167,-32.5"/>
<polygon fill="none" stroke="#d0d0d0" points="3104,-10.5 3104,-103.5 3448,-103.5 3448,-10.5 3104,-10.5"/>
</g>
<!-- obj_0xe35e60&#45;&gt;obj_0xe360d0 -->
<g id="edge14" class="edge">
<title>obj_0xe35e60&#45;&gt;obj_0xe360d0</title>
<g id="a_edge14"><a xlink:title="Condition&#45;&gt;condition">
<path fill="none" stroke="#ff80ff" stroke-width="4.5" d="M2552.45,-240.44C2663.43,-216.26 2893.34,-164.95 3086,-114 3093.65,-111.98 3101.46,-109.87 3109.33,-107.7"/>
<polygon fill="#ff80ff" stroke="#ff80ff" stroke-width="4.5" points="3110.96,-110.94 3119.54,-104.47 3108.85,-103.36 3110.96,-110.94"/>
</a>
</g>
<text text-anchor="middle" x="3037" y="-135.95" font-family="Times,serif" font-size="14.00">condition</text>
</g>
<!-- obj_0xe36040 -->
<g id="node17" class="node">
<title>obj_0xe36040</title>
<polygon fill="#ffffff" stroke="none" points="2311.75,-42.62 2311.75,-71.38 2460.25,-71.38 2460.25,-42.62 2311.75,-42.62"/>
<text text-anchor="start" x="2313.75" y="-51.38" font-family="Times,serif" font-weight="bold" font-size="20.00" fill="#000000">Empty</text>
<text text-anchor="start" x="2384.25" y="-51.38" font-family="Times,serif" font-size="14.00"> </text>
<text text-anchor="start" x="2388.75" y="-51.38" font-family="Times,serif" font-size="12.00">(0xe36040)</text>
<polygon fill="none" stroke="#d0d0d0" points="2310.75,-41.62 2310.75,-72.38 2461.25,-72.38 2461.25,-41.62 2310.75,-41.62"/>
</g>
<!-- obj_0xe35e60&#45;&gt;obj_0xe36040 -->
<g id="edge15" class="edge">
<title>obj_0xe35e60&#45;&gt;obj_0xe36040</title>
<g id="a_edge15"><a xlink:title="Condition&#45;&gt;true">
<path fill="none" stroke="#80ff80" stroke-width="4.5" d="M2478.81,-240.6C2462.45,-208.42 2422.2,-129.23 2400.47,-86.47"/>
<polygon fill="#80ff80" stroke="#80ff80" stroke-width="4.5" points="2403.3,-84.42 2395.26,-77.29 2396.28,-87.98 2403.3,-84.42"/>
</a>
</g>
<text text-anchor="middle" x="2446" y="-135.95" font-family="Times,serif" font-size="14.00">true</text>
</g>
<!-- obj_0xe35fd0 -->
<g id="node18" class="node">
<title>obj_0xe35fd0</title>
<polygon fill="#ffff80" stroke="none" points="2498.5,-53.5 2498.5,-81.5 2617.5,-81.5 2617.5,-53.5 2498.5,-53.5"/>
<text text-anchor="start" x="2500.25" y="-61.5" font-family="Times,serif" font-weight="bold" font-size="20.00" fill="#000000">Text</text>
<text text-anchor="start" x="2546.75" y="-61.5" font-family="Times,serif" font-size="14.00"> </text>
<text text-anchor="start" x="2551.25" y="-61.5" font-family="Times,serif" font-size="12.00">(0xe35fd0)</text>
<text text-anchor="start" x="2500.5" y="-38.2" font-family="Times,serif" font-size="14.00">text</text>
<text text-anchor="start" x="2562.5" y="-38.2" font-family="Times,serif" font-size="14.00">=</text>
<text text-anchor="start" x="2584.5" y="-38.2" font-family="Times,serif" font-size="14.00">&quot;(&quot;</text>
<polygon fill="#d0d0d0" stroke="#d0d0d0" points="2497.5,-53.5 2497.5,-53.5 2618.5,-53.5 2618.5,-53.5 2497.5,-53.5"/>
<polygon fill="none" stroke="#d0d0d0" points="2497.5,-31.5 2497.5,-82.5 2618.5,-82.5 2618.5,-31.5 2497.5,-31.5"/>
</g>
<!-- obj_0xe35e60&#45;&gt;obj_0xe35fd0 -->
<g id="edge18" class="edge">
<title>obj_0xe35e60&#45;&gt;obj_0xe35fd0</title>
<g id="a_edge18"><a xlink:title="Condition&#45;&gt;false">
<path fill="none" stroke="#ff8080" stroke-width="4.5" d="M2491.18,-240.6C2502.03,-210.95 2527.48,-141.4 2543.65,-97.2"/>
<polygon fill="#ff8080" stroke="#ff8080" stroke-width="4.5" points="2547.31,-98.21 2547.05,-87.46 2539.91,-95.5 2547.31,-98.21"/>
</a>
</g>
<text text-anchor="middle" x="2546.88" y="-135.95" font-family="Times,serif" font-size="14.00">false</text>
</g>
<!-- obj_0xe35f60 -->
<g id="node19" class="node">
<title>obj_0xe35f60</title>
<polygon fill="#80ff80" stroke="none" points="2691,-74.5 2691,-102.5 2875,-102.5 2875,-74.5 2691,-74.5"/>
<text text-anchor="start" x="2693" y="-82.5" font-family="Times,serif" font-weight="bold" font-size="20.00" fill="#000000">Expando</text>
<text text-anchor="start" x="2789" y="-82.5" font-family="Times,serif" font-size="14.00"> </text>
<text text-anchor="start" x="2793.5" y="-82.5" font-family="Times,serif" font-size="12.00">(0xe35f60)</text>
<text text-anchor="start" x="2693" y="-59.2" font-family="Times,serif" font-size="14.00">did</text>
<text text-anchor="start" x="2739" y="-59.2" font-family="Times,serif" font-size="14.00">=</text>
<text text-anchor="start" x="2755" y="-59.2" font-family="Times,serif" font-size="14.00">&quot;ED_EMAIL&quot;</text>
<text text-anchor="start" x="2693" y="-38.2" font-family="Times,serif" font-size="14.00">uid</text>
<text text-anchor="start" x="2739" y="-38.2" font-family="Times,serif" font-size="14.00">=</text>
<text text-anchor="start" x="2754.75" y="-38.2" font-family="Times,serif" font-size="14.00">&quot;ED_EMA_SIZE&quot;</text>
<text text-anchor="start" x="2692.62" y="-17.2" font-family="Times,serif" font-size="14.00">string</text>
<text text-anchor="start" x="2739" y="-17.2" font-family="Times,serif" font-size="14.00">=</text>
<text text-anchor="start" x="2755" y="-17.2" font-family="Times,serif" font-size="14.00">&quot;c&quot;</text>
<polygon fill="#d0d0d0" stroke="#d0d0d0" points="2690,-74.5 2690,-74.5 2876,-74.5 2876,-74.5 2690,-74.5"/>
<polygon fill="#d0d0d0" stroke="#d0d0d0" points="2690,-53.5 2690,-53.5 2737,-53.5 2737,-53.5 2690,-53.5"/>
<polygon fill="#d0d0d0" stroke="#d0d0d0" points="2737,-53.5 2737,-53.5 2753,-53.5 2753,-53.5 2737,-53.5"/>
<polygon fill="#d0d0d0" stroke="#d0d0d0" points="2753,-53.5 2753,-53.5 2876,-53.5 2876,-53.5 2753,-53.5"/>
<polygon fill="#d0d0d0" stroke="#d0d0d0" points="2690,-32.5 2690,-32.5 2737,-32.5 2737,-32.5 2690,-32.5"/>
<polygon fill="#d0d0d0" stroke="#d0d0d0" points="2737,-32.5 2737,-32.5 2753,-32.5 2753,-32.5 2737,-32.5"/>
<polygon fill="#d0d0d0" stroke="#d0d0d0" points="2753,-32.5 2753,-32.5 2876,-32.5 2876,-32.5 2753,-32.5"/>
<polygon fill="none" stroke="#d0d0d0" points="2690,-10.5 2690,-103.5 2876,-103.5 2876,-10.5 2690,-10.5"/>
</g>
<!-- obj_0xe35fd0&#45;&gt;obj_0xe35f60 -->
<g id="edge16" class="edge">
<title>obj_0xe35fd0&#45;&gt;obj_0xe35f60</title>
<g id="a_edge16"><a xlink:title="ExpandoNode&#45;&gt;next">
<path fill="none" stroke="#808080" stroke-width="4.5" d="M2618.21,-57C2636.98,-57 2655.76,-57 2674.53,-57"/>
<polygon fill="#808080" stroke="#808080" stroke-width="4.5" points="2674.3,-60.94 2684.3,-57 2674.3,-53.06 2674.3,-60.94"/>
</a>
</g>
</g>
<!-- obj_0xe35ef0 -->
<g id="node20" class="node">
<title>obj_0xe35ef0</title>
<polygon fill="#ffff80" stroke="none" points="2949,-53.5 2949,-81.5 3067,-81.5 3067,-53.5 2949,-53.5"/>
<text text-anchor="start" x="2950.62" y="-61.5" font-family="Times,serif" font-weight="bold" font-size="20.00" fill="#000000">Text</text>
<text text-anchor="start" x="2997.12" y="-61.5" font-family="Times,serif" font-size="14.00"> </text>
<text text-anchor="start" x="3001.62" y="-61.5" font-family="Times,serif" font-size="12.00">(0xe35ef0)</text>
<text text-anchor="start" x="2951" y="-38.2" font-family="Times,serif" font-size="14.00">text</text>
<text text-anchor="start" x="3013" y="-38.2" font-family="Times,serif" font-size="14.00">=</text>
<text text-anchor="start" x="3035" y="-38.2" font-family="Times,serif" font-size="14.00">&quot;)&quot;</text>
<polygon fill="#d0d0d0" stroke="#d0d0d0" points="2948,-53.5 2948,-53.5 3068,-53.5 3068,-53.5 2948,-53.5"/>
<polygon fill="none" stroke="#d0d0d0" points="2948,-31.5 2948,-82.5 3068,-82.5 3068,-31.5 2948,-31.5"/>
</g>
<!-- obj_0xe35f60&#45;&gt;obj_0xe35ef0 -->
<g id="edge17" class="edge">
<title>obj_0xe35f60&#45;&gt;obj_0xe35ef0</title>
<g id="a_edge17"><a xlink:title="ExpandoNode&#45;&gt;next">
<path fill="none" stroke="#808080" stroke-width="4.5" d="M2875.72,-57C2894.56,-57 2913.4,-57 2932.24,-57"/>
<polygon fill="#808080" stroke="#808080" stroke-width="4.5" points="2932.06,-60.94 2942.06,-57 2932.06,-53.06 2932.06,-60.94"/>
</a>
</g>
</g>
</g>
</svg>
