<?xml version="1.0" encoding="UTF-8" standalone="no"?>
<!DOCTYPE svg PUBLIC "-//W3C//DTD SVG 1.1//EN"
 "http://www.w3.org/Graphics/SVG/1.1/DTD/svg11.dtd">
<!-- Generated by graphviz version 8.1.0 (20230707.0739)
 -->
<!-- Title: callgraph Pages: 1 -->
<svg width="830pt" height="290pt"
 viewBox="0.00 0.00 829.50 290.25" xmlns="http://www.w3.org/2000/svg" xmlns:xlink="http://www.w3.org/1999/xlink">
<g id="graph0" class="graph" transform="scale(1 1) rotate(0) translate(4 286.25)">
<title>callgraph</title>
<polygon fill="white" stroke="none" points="-4,4 -4,-286.25 825.5,-286.25 825.5,4 -4,4"/>
<!-- mutt_str_append_item -->
<g id="node1" class="node">
<title>mutt_str_append_item</title>
<path fill="#ffd0d0" stroke="black" stroke-width="1.5" d="M680.17,-129.5C680.17,-129.5 814.08,-129.5 814.08,-129.5 817.79,-129.5 821.5,-133.21 821.5,-136.92 821.5,-136.92 821.5,-144.33 821.5,-144.33 821.5,-148.04 817.79,-151.75 814.08,-151.75 814.08,-151.75 680.17,-151.75 680.17,-151.75 676.46,-151.75 672.75,-148.04 672.75,-144.33 672.75,-144.33 672.75,-136.92 672.75,-136.92 672.75,-133.21 676.46,-129.5 680.17,-129.5"/>
<text text-anchor="middle" x="747.12" y="-136.35" font-family="Times,serif" font-size="12.00">mutt_str_append_item</text>
</g>
<!-- imap_tags_commit -->
<g id="node2" class="node">
<title>imap_tags_commit</title>
<path fill="#ffffff" stroke="black" stroke-width="1.5" d="M33.67,-111.5C33.67,-111.5 161.58,-111.5 161.58,-111.5 165.29,-111.5 169,-115.21 169,-118.92 169,-118.92 169,-126.33 169,-126.33 169,-130.04 165.29,-133.75 161.58,-133.75 161.58,-133.75 33.67,-133.75 33.67,-133.75 29.96,-133.75 26.25,-130.04 26.25,-126.33 26.25,-126.33 26.25,-118.92 26.25,-118.92 26.25,-115.21 29.96,-111.5 33.67,-111.5"/>
<text text-anchor="start" x="34.25" y="-119.35" font-family="Times,serif" font-size="12.00">imap_tags_commit </text>
<text text-anchor="start" x="150.5" y="-119.35" font-family="Times,serif" font-size="12.00" fill="red">●</text>
</g>
<!-- driver_tags_get_with_hidden -->
<g id="node8" class="node">
<title>driver_tags_get_with_hidden</title>
<path fill="#ffffff" stroke="black" stroke-width="1.5" d="M251.79,-74.5C251.79,-74.5 424.71,-74.5 424.71,-74.5 428.42,-74.5 432.12,-78.21 432.12,-81.92 432.12,-81.92 432.12,-89.33 432.12,-89.33 432.12,-93.04 428.42,-96.75 424.71,-96.75 424.71,-96.75 251.79,-96.75 251.79,-96.75 248.08,-96.75 244.38,-93.04 244.38,-89.33 244.38,-89.33 244.38,-81.92 244.38,-81.92 244.38,-78.21 248.08,-74.5 251.79,-74.5"/>
<text text-anchor="middle" x="338.25" y="-81.35" font-family="Times,serif" font-size="12.00">driver_tags_get_with_hidden</text>
</g>
<!-- imap_tags_commit&#45;&gt;driver_tags_get_with_hidden -->
<g id="edge7" class="edge">
<title>imap_tags_commit&#45;&gt;driver_tags_get_with_hidden</title>
<path fill="none" stroke="black" d="M168.93,-111.72C197.54,-107.29 230.71,-102.15 259.99,-97.6"/>
<polygon fill="black" stroke="black" points="260.12,-99.2 264.8,-96.7 259.59,-95.74 260.12,-99.2"/>
</g>
<!-- msg_parse_flags -->
<g id="node3" class="node">
<title>msg_parse_flags</title>
<path fill="#ffffff" stroke="black" stroke-width="1.5" d="M499.54,-185.5C499.54,-185.5 618.46,-185.5 618.46,-185.5 622.17,-185.5 625.88,-189.21 625.88,-192.92 625.88,-192.92 625.88,-200.33 625.88,-200.33 625.88,-204.04 622.17,-207.75 618.46,-207.75 618.46,-207.75 499.54,-207.75 499.54,-207.75 495.83,-207.75 492.12,-204.04 492.12,-200.33 492.12,-200.33 492.12,-192.92 492.12,-192.92 492.12,-189.21 495.83,-185.5 499.54,-185.5"/>
<text text-anchor="start" x="500.12" y="-193.35" font-family="Times,serif" font-size="12.00">msg_parse_flags &#160;</text>
<text text-anchor="start" x="607.38" y="-193.35" font-family="Times,serif" font-size="12.00" fill="red">●</text>
</g>
<!-- msg_parse_flags&#45;&gt;mutt_str_append_item -->
<g id="edge10" class="edge">
<title>msg_parse_flags&#45;&gt;mutt_str_append_item</title>
<path fill="none" stroke="black" d="M610.56,-185.56C619.33,-183.41 628.34,-181.07 636.75,-178.62 662.09,-171.27 690.2,-161.47 711.58,-153.66"/>
<polygon fill="black" stroke="black" points="712.05,-154.98 716.14,-151.62 710.85,-151.7 712.05,-154.98"/>
</g>
<!-- driver_tags_get -->
<g id="node4" class="node">
<title>driver_tags_get</title>
<path fill="#ffffff" stroke="black" stroke-width="1.5" d="M291.17,-203.5C291.17,-203.5 385.33,-203.5 385.33,-203.5 389.04,-203.5 392.75,-207.21 392.75,-210.92 392.75,-210.92 392.75,-218.33 392.75,-218.33 392.75,-222.04 389.04,-225.75 385.33,-225.75 385.33,-225.75 291.17,-225.75 291.17,-225.75 287.46,-225.75 283.75,-222.04 283.75,-218.33 283.75,-218.33 283.75,-210.92 283.75,-210.92 283.75,-207.21 287.46,-203.5 291.17,-203.5"/>
<text text-anchor="middle" x="338.25" y="-210.35" font-family="Times,serif" font-size="12.00">driver_tags_get</text>
</g>
<!-- driver_tags_getter -->
<g id="node5" class="node">
<title>driver_tags_getter</title>
<path fill="#ffffff" stroke="black" stroke-width="1.5" d="M503.29,-148.5C503.29,-148.5 614.71,-148.5 614.71,-148.5 618.42,-148.5 622.12,-152.21 622.12,-155.92 622.12,-155.92 622.12,-163.33 622.12,-163.33 622.12,-167.04 618.42,-170.75 614.71,-170.75 614.71,-170.75 503.29,-170.75 503.29,-170.75 499.58,-170.75 495.88,-167.04 495.88,-163.33 495.88,-163.33 495.88,-155.92 495.88,-155.92 495.88,-152.21 499.58,-148.5 503.29,-148.5"/>
<text text-anchor="middle" x="559" y="-155.35" font-family="Times,serif" font-size="12.00">driver_tags_getter</text>
</g>
<!-- driver_tags_get&#45;&gt;driver_tags_getter -->
<g id="edge1" class="edge">
<title>driver_tags_get&#45;&gt;driver_tags_getter</title>
<path fill="none" stroke="black" d="M392.64,-208.94C409.73,-206.22 428.54,-202.29 445.25,-196.62 462.38,-190.82 464.31,-183.96 481.25,-177.62 486.44,-175.68 491.91,-173.9 497.44,-172.29"/>
<polygon fill="black" stroke="black" points="497.65,-173.77 501.98,-170.72 496.7,-170.4 497.65,-173.77"/>
</g>
<!-- driver_tags_getter&#45;&gt;mutt_str_append_item -->
<g id="edge2" class="edge">
<title>driver_tags_getter&#45;&gt;mutt_str_append_item</title>
<path fill="none" stroke="black" d="M621.98,-153.3C636.35,-151.83 651.85,-150.25 666.86,-148.72"/>
<polygon fill="black" stroke="black" points="667.01,-150.36 671.8,-148.11 666.65,-146.88 667.01,-150.36"/>
</g>
<!-- driver_tags_get_transformed -->
<g id="node6" class="node">
<title>driver_tags_get_transformed</title>
<path fill="#ffffff" stroke="black" stroke-width="1.5" d="M250.67,-166.5C250.67,-166.5 425.83,-166.5 425.83,-166.5 429.54,-166.5 433.25,-170.21 433.25,-173.92 433.25,-173.92 433.25,-181.33 433.25,-181.33 433.25,-185.04 429.54,-188.75 425.83,-188.75 425.83,-188.75 250.67,-188.75 250.67,-188.75 246.96,-188.75 243.25,-185.04 243.25,-181.33 243.25,-181.33 243.25,-173.92 243.25,-173.92 243.25,-170.21 246.96,-166.5 250.67,-166.5"/>
<text text-anchor="middle" x="338.25" y="-173.35" font-family="Times,serif" font-size="12.00">driver_tags_get_transformed</text>
</g>
<!-- driver_tags_get_transformed&#45;&gt;driver_tags_getter -->
<g id="edge3" class="edge">
<title>driver_tags_get_transformed&#45;&gt;driver_tags_getter</title>
<path fill="none" stroke="black" d="M432.97,-169.91C452.31,-168.32 472.31,-166.68 490.5,-165.18"/>
<polygon fill="black" stroke="black" points="490.24,-166.87 495.08,-164.72 489.95,-163.39 490.24,-166.87"/>
</g>
<!-- driver_tags_get_transformed_for -->
<g id="node7" class="node">
<title>driver_tags_get_transformed_for</title>
<path fill="#ffffff" stroke="black" stroke-width="1.5" d="M238.67,-129.5C238.67,-129.5 437.83,-129.5 437.83,-129.5 441.54,-129.5 445.25,-133.21 445.25,-136.92 445.25,-136.92 445.25,-144.33 445.25,-144.33 445.25,-148.04 441.54,-151.75 437.83,-151.75 437.83,-151.75 238.67,-151.75 238.67,-151.75 234.96,-151.75 231.25,-148.04 231.25,-144.33 231.25,-144.33 231.25,-136.92 231.25,-136.92 231.25,-133.21 234.96,-129.5 238.67,-129.5"/>
<text text-anchor="middle" x="338.25" y="-136.35" font-family="Times,serif" font-size="12.00">driver_tags_get_transformed_for</text>
</g>
<!-- driver_tags_get_transformed_for&#45;&gt;driver_tags_getter -->
<g id="edge4" class="edge">
<title>driver_tags_get_transformed_for&#45;&gt;driver_tags_getter</title>
<path fill="none" stroke="black" d="M445.1,-149.82C460.5,-151.16 476,-152.5 490.37,-153.75"/>
<polygon fill="black" stroke="black" points="489.9,-155.55 495.03,-154.24 490.2,-152.07 489.9,-155.55"/>
</g>
<!-- driver_tags_get_with_hidden&#45;&gt;driver_tags_getter -->
<g id="edge5" class="edge">
<title>driver_tags_get_with_hidden&#45;&gt;driver_tags_getter</title>
<path fill="none" stroke="black" d="M377.16,-96.68C397.66,-103.11 423.22,-111.86 445.25,-121.62 461.98,-129.04 464.18,-135.03 481.25,-141.62 486.32,-143.59 491.67,-145.37 497.09,-146.99"/>
<polygon fill="black" stroke="black" points="496.23,-148.85 501.52,-148.55 497.2,-145.49 496.23,-148.85"/>
</g>
<!-- imap_sync_message_for_copy -->
<g id="node9" class="node">
<title>imap_sync_message_for_copy</title>
<path fill="#ffffff" stroke="black" stroke-width="1.5" d="M7.42,-74.5C7.42,-74.5 187.83,-74.5 187.83,-74.5 191.54,-74.5 195.25,-78.21 195.25,-81.92 195.25,-81.92 195.25,-89.33 195.25,-89.33 195.25,-93.04 191.54,-96.75 187.83,-96.75 187.83,-96.75 7.42,-96.75 7.42,-96.75 3.71,-96.75 0,-93.04 0,-89.33 0,-89.33 0,-81.92 0,-81.92 0,-78.21 3.71,-74.5 7.42,-74.5"/>
<text text-anchor="middle" x="97.62" y="-81.35" font-family="Times,serif" font-size="12.00">imap_sync_message_for_copy</text>
</g>
<!-- imap_sync_message_for_copy&#45;&gt;driver_tags_get_with_hidden -->
<g id="edge6" class="edge">
<title>imap_sync_message_for_copy&#45;&gt;driver_tags_get_with_hidden</title>
<path fill="none" stroke="black" d="M195,-85.62C209.38,-85.62 224.23,-85.62 238.67,-85.62"/>
<polygon fill="black" stroke="black" points="238.39,-87.38 243.39,-85.62 238.39,-83.88 238.39,-87.38"/>
</g>
<!-- index_format_str -->
<g id="node10" class="node">
<title>index_format_str</title>
<path fill="#ffffff" stroke="black" stroke-width="1.5" d="M46.04,-148.5C46.04,-148.5 149.21,-148.5 149.21,-148.5 152.92,-148.5 156.62,-152.21 156.62,-155.92 156.62,-155.92 156.62,-163.33 156.62,-163.33 156.62,-167.04 152.92,-170.75 149.21,-170.75 149.21,-170.75 46.04,-170.75 46.04,-170.75 42.33,-170.75 38.62,-167.04 38.62,-163.33 38.62,-163.33 38.62,-155.92 38.62,-155.92 38.62,-152.21 42.33,-148.5 46.04,-148.5"/>
<text text-anchor="middle" x="97.62" y="-155.35" font-family="Times,serif" font-size="12.00">index_format_str</text>
</g>
<!-- index_format_str&#45;&gt;driver_tags_get_transformed -->
<g id="edge8" class="edge">
<title>index_format_str&#45;&gt;driver_tags_get_transformed</title>
<path fill="none" stroke="black" d="M156.39,-163.98C180.73,-165.82 209.77,-168.01 237.39,-170.09"/>
<polygon fill="black" stroke="black" points="237.14,-171.9 242.25,-170.53 237.4,-168.41 237.14,-171.9"/>
</g>
<!-- index_format_str&#45;&gt;driver_tags_get_transformed_for -->
<g id="edge9" class="edge">
<title>index_format_str&#45;&gt;driver_tags_get_transformed_for</title>
<path fill="none" stroke="black" d="M156.39,-155.03C177.33,-153.36 201.76,-151.41 225.76,-149.5"/>
<polygon fill="black" stroke="black" points="225.68,-151.18 230.52,-149.04 225.4,-147.7 225.68,-151.18"/>
</g>
<!-- mutt_copy_header -->
<g id="node11" class="node">
<title>mutt_copy_header</title>
<path fill="#ffffff" stroke="black" stroke-width="1.5" d="M41.92,-259.5C41.92,-259.5 153.33,-259.5 153.33,-259.5 157.04,-259.5 160.75,-263.21 160.75,-266.92 160.75,-266.92 160.75,-274.33 160.75,-274.33 160.75,-278.04 157.04,-281.75 153.33,-281.75 153.33,-281.75 41.92,-281.75 41.92,-281.75 38.21,-281.75 34.5,-278.04 34.5,-274.33 34.5,-274.33 34.5,-266.92 34.5,-266.92 34.5,-263.21 38.21,-259.5 41.92,-259.5"/>
<text text-anchor="middle" x="97.62" y="-266.35" font-family="Times,serif" font-size="12.00">mutt_copy_header</text>
</g>
<!-- mutt_copy_header&#45;&gt;driver_tags_get -->
<g id="edge11" class="edge">
<title>mutt_copy_header&#45;&gt;driver_tags_get</title>
<path fill="none" stroke="black" d="M160.63,-259.81C172.17,-257.59 184.1,-255.15 195.25,-252.62 228.5,-245.09 265.72,-235.07 293.71,-227.21"/>
<polygon fill="black" stroke="black" points="293.84,-228.71 298.18,-225.67 292.89,-225.34 293.84,-228.71"/>
</g>
<!-- nm_read_entire_thread -->
<g id="node12" class="node">
<title>nm_read_entire_thread</title>
<path fill="#ffffff" stroke="black" stroke-width="1.5" d="M488.67,-111.5C488.67,-111.5 629.33,-111.5 629.33,-111.5 633.04,-111.5 636.75,-115.21 636.75,-118.92 636.75,-118.92 636.75,-126.33 636.75,-126.33 636.75,-130.04 633.04,-133.75 629.33,-133.75 629.33,-133.75 488.67,-133.75 488.67,-133.75 484.96,-133.75 481.25,-130.04 481.25,-126.33 481.25,-126.33 481.25,-118.92 481.25,-118.92 481.25,-115.21 484.96,-111.5 488.67,-111.5"/>
<text text-anchor="middle" x="559" y="-118.35" font-family="Times,serif" font-size="12.00">nm_read_entire_thread</text>
</g>
<!-- nm_read_entire_thread&#45;&gt;mutt_str_append_item -->
<g id="edge12" class="edge">
<title>nm_read_entire_thread&#45;&gt;mutt_str_append_item</title>
<path fill="none" stroke="black" d="M636.51,-130.02C646.57,-131 656.89,-132 666.99,-132.97"/>
<polygon fill="black" stroke="black" points="666.76,-134.8 671.91,-133.54 667.1,-131.32 666.76,-134.8"/>
</g>
<!-- nm_record_message -->
<g id="node13" class="node">
<title>nm_record_message</title>
<path fill="#ffffff" stroke="black" stroke-width="1.5" d="M35.54,-222.5C35.54,-222.5 159.71,-222.5 159.71,-222.5 163.42,-222.5 167.12,-226.21 167.12,-229.92 167.12,-229.92 167.12,-237.33 167.12,-237.33 167.12,-241.04 163.42,-244.75 159.71,-244.75 159.71,-244.75 35.54,-244.75 35.54,-244.75 31.83,-244.75 28.12,-241.04 28.12,-237.33 28.12,-237.33 28.12,-229.92 28.12,-229.92 28.12,-226.21 31.83,-222.5 35.54,-222.5"/>
<text text-anchor="middle" x="97.62" y="-229.35" font-family="Times,serif" font-size="12.00">nm_record_message</text>
</g>
<!-- nm_record_message&#45;&gt;driver_tags_get -->
<g id="edge13" class="edge">
<title>nm_record_message&#45;&gt;driver_tags_get</title>
<path fill="none" stroke="black" d="M167.01,-228.18C202.16,-225.38 244.57,-222 278.27,-219.32"/>
<polygon fill="black" stroke="black" points="278.18,-221 283.03,-218.86 277.9,-217.52 278.18,-221"/>
</g>
<!-- op_main_modify_tags -->
<g id="node14" class="node">
<title>op_main_modify_tags</title>
<path fill="#ffffff" stroke="black" stroke-width="1.5" d="M32.17,-37.5C32.17,-37.5 163.08,-37.5 163.08,-37.5 166.79,-37.5 170.5,-41.21 170.5,-44.92 170.5,-44.92 170.5,-52.33 170.5,-52.33 170.5,-56.04 166.79,-59.75 163.08,-59.75 163.08,-59.75 32.17,-59.75 32.17,-59.75 28.46,-59.75 24.75,-56.04 24.75,-52.33 24.75,-52.33 24.75,-44.92 24.75,-44.92 24.75,-41.21 28.46,-37.5 32.17,-37.5"/>
<text text-anchor="middle" x="97.62" y="-44.35" font-family="Times,serif" font-size="12.00">op_main_modify_tags</text>
</g>
<!-- op_main_modify_tags&#45;&gt;driver_tags_get_with_hidden -->
<g id="edge14" class="edge">
<title>op_main_modify_tags&#45;&gt;driver_tags_get_with_hidden</title>
<path fill="none" stroke="black" d="M170.22,-59.73C198.53,-64.12 231.14,-69.17 259.99,-73.65"/>
<polygon fill="black" stroke="black" points="259.5,-75.49 264.71,-74.53 260.03,-72.04 259.5,-75.49"/>
</g>
<!-- pattern_exec -->
<g id="node15" class="node">
<title>pattern_exec</title>
<path fill="#ffffff" stroke="black" stroke-width="1.5" d="M58.42,-0.5C58.42,-0.5 136.83,-0.5 136.83,-0.5 140.54,-0.5 144.25,-4.21 144.25,-7.92 144.25,-7.92 144.25,-15.33 144.25,-15.33 144.25,-19.04 140.54,-22.75 136.83,-22.75 136.83,-22.75 58.42,-22.75 58.42,-22.75 54.71,-22.75 51,-19.04 51,-15.33 51,-15.33 51,-7.92 51,-7.92 51,-4.21 54.71,-0.5 58.42,-0.5"/>
<text text-anchor="middle" x="97.62" y="-7.35" font-family="Times,serif" font-size="12.00">pattern_exec</text>
</g>
<!-- pattern_exec&#45;&gt;driver_tags_get_with_hidden -->
<g id="edge15" class="edge">
<title>pattern_exec&#45;&gt;driver_tags_get_with_hidden</title>
<path fill="none" stroke="black" d="M143.78,-18.19C160.15,-21.06 178.69,-24.86 195.25,-29.62 235.24,-41.12 279.6,-59.58 307.92,-72.14"/>
<polygon fill="black" stroke="black" points="307.09,-74.13 312.37,-74.57 308.51,-70.94 307.09,-74.13"/>
</g>
<!-- rename_filename -->
<g id="node16" class="node">
<title>rename_filename</title>
<path fill="#ffffff" stroke="black" stroke-width="1.5" d="M45.29,-185.5C45.29,-185.5 149.96,-185.5 149.96,-185.5 153.67,-185.5 157.38,-189.21 157.38,-192.92 157.38,-192.92 157.38,-200.33 157.38,-200.33 157.38,-204.04 153.67,-207.75 149.96,-207.75 149.96,-207.75 45.29,-207.75 45.29,-207.75 41.58,-207.75 37.88,-204.04 37.88,-200.33 37.88,-200.33 37.88,-192.92 37.88,-192.92 37.88,-189.21 41.58,-185.5 45.29,-185.5"/>
<text text-anchor="middle" x="97.62" y="-192.35" font-family="Times,serif" font-size="12.00">rename_filename</text>
</g>
<!-- rename_filename&#45;&gt;driver_tags_get -->
<g id="edge16" class="edge">
<title>rename_filename&#45;&gt;driver_tags_get</title>
<path fill="none" stroke="black" d="M157.3,-201.05C194.11,-203.83 241.41,-207.4 278.27,-210.18"/>
<polygon fill="black" stroke="black" points="277.98,-211.98 283.1,-210.62 278.24,-208.49 277.98,-211.98"/>
</g>
<!-- update_email_tags -->
<g id="node17" class="node">
<title>update_email_tags</title>
<path fill="#ffffff" stroke="black" stroke-width="1.5" d="M502.54,-74.5C502.54,-74.5 615.46,-74.5 615.46,-74.5 619.17,-74.5 622.88,-78.21 622.88,-81.92 622.88,-81.92 622.88,-89.33 622.88,-89.33 622.88,-93.04 619.17,-96.75 615.46,-96.75 615.46,-96.75 502.54,-96.75 502.54,-96.75 498.83,-96.75 495.12,-93.04 495.12,-89.33 495.12,-89.33 495.12,-81.92 495.12,-81.92 495.12,-78.21 498.83,-74.5 502.54,-74.5"/>
<text text-anchor="middle" x="559" y="-81.35" font-family="Times,serif" font-size="12.00">update_email_tags</text>
</g>
<!-- update_email_tags&#45;&gt;mutt_str_append_item -->
<g id="edge17" class="edge">
<title>update_email_tags&#45;&gt;mutt_str_append_item</title>
<path fill="none" stroke="black" d="M610.13,-96.65C619.04,-98.82 628.2,-101.18 636.75,-103.62 661.7,-110.75 689.38,-120.13 710.65,-127.66"/>
<polygon fill="black" stroke="black" points="709.9,-129.61 715.19,-129.63 711.07,-126.31 709.9,-129.61"/>
</g>
</g>
</svg>
